<svg width="200" height="115" viewBox="0 0 200 115" fill="none" xmlns="http://www.w3.org/2000/svg">
<g clip-path="url(#clip0_636_69)">
<path d="M197.403 22.4687C197.403 20.577 197.403 18.6854 197.403 16.7937V14.7085H189.393V17.2953L189.684 17.0225C190.423 17.7528 191.682 18.4039 191.805 19.2309C191.995 21.3283 192.03 23.4367 191.911 25.5393H183.469V14.7173H175.468V17.4449C176.744 17.5065 177.915 17.9464 178.003 19.3629C178.135 21.4129 178.003 23.4717 178.003 25.5217H169.517V14.7526H161.595C161.393 16.2043 161.049 17.568 163.083 17.8672C163.317 17.9803 163.52 18.1495 163.674 18.3597C163.827 18.57 163.926 18.8148 163.963 19.0725C164.06 21.2105 163.963 23.3573 163.963 25.5481H162.73V25.5041H123.956C124.968 22.6447 125.98 19.7412 127.045 16.8465C127.308 16.1292 127.672 15.4535 128.128 14.8405C129.977 12.3858 133.339 12.8257 134.66 15.6412C134.08 15.8846 133.523 16.179 132.996 16.521C132.426 16.9711 132.009 17.5865 131.802 18.2827C131.596 18.9789 131.61 19.722 131.843 20.4099C132.053 21.1061 132.481 21.7167 133.064 22.1521C133.647 22.5875 134.354 22.8249 135.082 22.8294C135.812 22.8946 136.542 22.7011 137.144 22.283C137.745 21.8648 138.181 21.2485 138.374 20.5418C139.378 17.2777 138.128 14.5062 135.892 12.3154C134.409 10.882 132.663 9.74698 130.751 8.97207C126.898 7.42786 122.614 7.34025 118.701 8.72569C111.967 10.9429 109.529 17.524 113.032 23.6828C113.349 24.2635 113.701 24.8179 114.132 25.5305H105.744V25.4865H74.7502V1.20312H66.784C66.784 1.66064 66.7224 1.96855 66.696 2.2765C66.6256 3.26191 66.5992 4.0362 67.9812 4.29135C68.5445 4.39693 69.1167 5.47032 69.3191 6.20938C69.4612 7.08193 69.4878 7.96938 69.3983 8.84888V22.9262C69.3983 24.0788 69.1607 25.2137 67.8403 25.4249C66.8104 25.5921 66.6784 26.076 66.6872 26.9646C66.6872 32.8683 66.6872 38.772 66.6872 44.6845C66.6872 45.1156 66.6872 45.5643 66.74 45.9251H200V25.7769C197.729 25.161 197.421 24.7914 197.403 22.4687Z" fill="#F4B512"/>
<path d="M60.7896 25.6004C59.3372 25.354 58.8883 24.4214 58.8531 23.1017C58.8003 21.4828 58.8531 19.8463 58.6507 18.245C57.876 12.1302 54.0822 8.38206 47.9469 7.78377C44.1442 7.41424 40.5617 8.16214 37.6129 10.7928C36.8159 11.4397 36.2742 12.3481 36.084 13.3565C35.8938 14.3649 36.0675 15.408 36.5741 16.3005C36.936 16.8485 37.4509 17.2783 38.055 17.5364C38.659 17.7944 39.3256 17.8695 39.9719 17.7523C40.4698 17.6913 40.9361 17.4761 41.3055 17.1369C41.6749 16.7977 41.9288 16.3514 42.0317 15.8606C42.1856 15.2866 42.1313 14.6766 41.8784 14.1387C41.6254 13.6008 41.1901 13.1698 40.6497 12.922C40.5969 12.922 40.5969 12.7636 40.5088 12.4469C41.8536 11.9747 43.2229 11.5752 44.6108 11.2503C46.2553 10.8664 47.9833 11.0906 49.4752 11.8815C50.9672 12.6724 52.1222 13.9765 52.7266 15.5527C54.0294 18.7905 53.3956 22.1779 53.5629 25.6356H37.9297C35.2186 25.6356 34.8929 25.3364 34.4616 22.6354C34.4616 22.5562 34.3559 22.4946 34.2943 22.4066H31.4688C31.6448 27.3425 31.4687 32.2344 32.0849 37.0207C32.2939 39.3818 33.372 41.5814 35.1103 43.1937C36.8486 44.8061 39.1235 45.7164 41.4947 45.7486C48.0877 46.0917 54.6984 45.8366 61.5379 45.8366C61.5379 39.3786 61.5379 32.8502 61.5379 26.3307C61.5114 26.0667 61.0361 25.6444 60.7896 25.6004Z" fill="#F4B512"/>
<path d="M4.26952 19.5208C1.93688 23.2249 1.15347 27.3425 1.05664 32.5335C1.17987 33.5365 1.30311 35.4282 1.69042 37.2758C3.12521 44.1825 7.97535 47.6578 15.0261 47.0508C19.4713 46.6724 23.0539 44.8512 24.7088 40.6192C27.552 33.3782 27.2087 26.1459 23.0979 19.5032C18.239 11.5231 9.21649 11.6463 4.26952 19.5208ZM13.8026 26.665C11.3203 26.665 9.9647 25.3805 9.97351 22.9873C9.97351 20.3478 11.734 18.157 13.7057 18.1307C15.6775 18.1043 17.5436 20.383 17.526 23.0401C17.5172 25.3981 16.2232 26.6562 13.8026 26.665Z" fill="#F4B512"/>
<path d="M8.52997 9.07841C7.4623 9.02925 6.45464 8.57073 5.71647 7.79813C4.97831 7.02554 4.56641 5.99828 4.56641 4.92997C4.56641 3.86166 4.97831 2.83446 5.71647 2.06187C6.45464 1.28927 7.4623 0.83075 8.52997 0.78159C9.07275 0.774614 9.61153 0.875112 10.1152 1.07737C10.6189 1.27963 11.0776 1.57963 11.4646 1.96C11.8517 2.34037 12.1596 2.79361 12.3706 3.29355C12.5815 3.79349 12.6912 4.33022 12.6935 4.87278C12.7005 5.4233 12.5979 5.96973 12.3917 6.48026C12.1855 6.99079 11.8798 7.45527 11.4924 7.84662C11.1049 8.23797 10.6435 8.54839 10.1349 8.75986C9.62635 8.97133 9.08079 9.07962 8.52997 9.07841Z" fill="#F4B512"/>
<path d="M18.7837 9.08608C18.2291 9.08796 17.68 8.97691 17.1697 8.75974C16.6595 8.54257 16.1988 8.22384 15.8159 7.82293C15.4329 7.42202 15.1356 6.94733 14.9421 6.42784C14.7487 5.90835 14.6631 5.35493 14.6906 4.8013C14.6925 4.25885 14.8038 3.72231 15.0177 3.22378C15.2316 2.72526 15.5439 2.27495 15.9357 1.89968C16.3276 1.52441 16.7911 1.23191 17.2986 1.03961C17.806 0.847314 18.347 0.759175 18.8893 0.780451C19.9867 0.782765 21.0385 1.21891 21.8153 1.99366C22.592 2.76841 23.0306 3.8188 23.0353 4.91563C23.0307 5.46867 22.917 6.01538 22.7007 6.52445C22.4845 7.03351 22.1698 7.49495 21.7749 7.88232C21.38 8.2697 20.9125 8.57542 20.3993 8.78197C19.886 8.98853 19.337 9.09188 18.7837 9.08608Z" fill="#F4B512"/>
<path d="M8.47753 74.7659C8.2791 75.8493 8.16725 76.9467 8.14304 78.0478C8.16002 78.644 8.39518 79.2133 8.80399 79.6479C9.21281 80.0824 9.76687 80.3521 10.3612 80.4057C10.8487 80.4994 11.3437 80.5495 11.8401 80.5553H35.2369C35.501 80.5553 35.7651 80.5553 36.1172 80.4937C36.1172 78.3557 36.2228 76.2529 36.1172 74.1677C36.0291 72.9007 34.9728 72.408 33.6613 72.408V69.6189H41.6715V72.8919C41.6715 74.5636 41.6715 76.2265 41.6715 77.8981C41.6715 79.781 42.2965 80.4145 44.1714 80.5376C45.5622 80.6168 46.9617 80.5376 48.3525 80.5376H77.2949C77.6118 80.5376 77.9199 80.5377 78.1752 80.4849C78.4034 79.3634 78.2003 78.1972 77.6065 77.2188C77.0126 76.2403 76.0716 75.5216 74.9711 75.2059C73.6298 74.8312 72.2442 74.6389 70.8515 74.634C63.5895 74.5812 56.3275 74.634 49.0655 74.634H47.5163V70.1556C50.7292 70.0588 52.2784 67.8945 53.7572 65.4397C55.109 63.0097 56.7429 60.7475 58.625 58.7002C62.1459 55.1193 68.202 55.3744 71.0276 58.9554C71.7685 59.9284 72.2983 61.0452 72.5832 62.2344C72.8681 63.4236 72.9019 64.6591 72.6824 65.862C72.5797 66.7039 72.1664 67.4772 71.5233 68.0305C70.8802 68.5838 70.0537 68.8773 69.2055 68.8535C68.3841 68.8631 67.5863 68.5795 66.9554 68.0538C66.3245 67.528 65.902 66.7945 65.7637 65.9852C65.6169 65.1326 65.7838 64.2557 66.2336 63.5165C66.6834 62.7774 67.3858 62.226 68.2108 61.9644L68.8094 61.7356C68.5026 61.1814 68.0872 60.6946 67.5881 60.3043C67.089 59.914 66.5163 59.6282 65.9043 59.464C65.2922 59.2997 64.6534 59.2604 64.0258 59.3484C63.3982 59.4364 62.7948 59.6498 62.2516 59.9759C60.7904 60.9049 59.5157 62.0985 58.4929 63.4953C56.9525 65.5277 55.6938 67.7625 54.2502 70.0149C54.6727 70.0149 55.1304 70.0764 55.6057 70.0764C60.9312 70.0764 66.2479 70.0148 71.5733 70.0764C73.414 70.1095 75.2449 70.3516 77.0309 70.7979C80.8951 71.7833 82.9901 74.458 83.6151 78.3381C83.7295 79.0067 83.7911 79.6754 83.8879 80.4145H116.184C112.971 77.7134 112.047 73.7453 109.864 70.5428C109.148 69.3301 108.089 68.3564 106.82 67.7442C105.551 67.132 104.129 66.9088 102.734 67.1026C102.019 67.1505 101.33 67.3833 100.732 67.7782C100.135 68.1731 99.651 68.7165 99.3274 69.355L100.287 69.7245C101.03 70.0093 101.655 70.5375 102.06 71.223C102.464 71.9085 102.624 72.7108 102.514 73.499C102.384 74.284 101.999 75.0043 101.418 75.5483C100.837 76.0923 100.093 76.4296 99.301 76.508C98.5311 76.5946 97.7555 76.4063 97.1111 75.9764C96.4668 75.5465 95.9953 74.9027 95.78 74.1589C94.7413 71.2642 96.2377 66.3724 98.7905 64.3399C100.252 63.2714 101.995 62.6551 103.804 62.5675C105.613 62.4799 107.408 62.9249 108.966 63.8472C110.995 65.2165 112.65 67.0703 113.781 69.2406C115.128 71.581 116.351 73.9917 117.724 76.2793C119.01 78.4613 120.541 80.4145 123.49 80.4937V100.941H121.73C85.8773 100.941 50.0338 100.827 14.1815 101.011C4.78932 101.011 0.696191 95.0461 0.0976259 88.2186C-0.386508 82.8604 0.696186 77.8806 4.16434 73.631C5.06398 72.4356 6.23422 71.4703 7.57914 70.8142C8.92406 70.1581 10.4054 69.8299 11.9017 69.8565C12.7891 69.79 13.6697 70.0545 14.3735 70.5988C15.0774 71.1431 15.5546 71.9287 15.7131 72.8039C15.8511 73.5636 15.73 74.3476 15.3693 75.0303C15.0087 75.7131 14.4292 76.2551 13.7238 76.5696C12.0249 77.3087 10.3437 76.7544 9.16413 75.0651C9.08491 74.9683 8.98808 74.8803 8.90005 74.7924L8.47753 74.7659Z" fill="#F4B512"/>
<path d="M191.876 80.4675C191.876 78.3119 191.937 76.2003 191.823 74.1151C191.823 73.6136 191.163 72.769 190.749 72.7338C188.988 72.5754 189.297 71.3876 189.314 70.2966C189.314 70.1206 189.314 69.9359 189.393 69.6455H197.412V71.6956C197.412 73.5872 197.412 75.4789 197.412 77.3705C197.412 79.7461 197.659 80.01 200 80.6787V100.915H180.036C179.711 102.622 179.482 104.267 179.077 105.868C178.302 108.957 176.929 111.719 174.13 113.496C169.561 116.374 163.461 114.174 161.349 108.825C160.824 107.527 160.526 106.149 160.469 104.751C160.372 99.5247 160.425 94.2985 160.425 89.0723C160.425 88.8523 160.477 88.6412 160.504 88.3596H162.898C163.778 89.8817 164.28 91.4214 165.283 92.5476C168.003 95.6271 172.246 94.844 173.76 91.0343C174.206 89.8583 174.444 88.614 174.464 87.3566C174.552 83.3534 174.464 79.3413 174.508 75.3293C174.508 73.8248 174.156 72.6898 172.405 72.3994C172.176 72.3994 171.868 71.9419 171.832 71.678C171.792 70.9864 171.792 70.2931 171.832 69.6016H179.94V74.3263C179.94 75.9979 179.94 77.6608 179.94 79.3325C179.94 80.0716 180.212 80.4411 180.943 80.4499L191.876 80.4675Z" fill="#F4B512"/>
<path d="M128.753 85.6228C129.231 85.6503 129.71 85.6503 130.188 85.6228C131.209 85.482 131.605 85.8603 131.904 86.9161C132.864 90.3563 135.478 92.0456 138.762 92.9254C143.471 94.1836 148.083 91.8432 149.518 87.4352C149.678 86.9767 149.678 86.4773 149.518 86.0187C149.267 86.2121 149.043 86.4368 148.849 86.6874C145.328 93.0837 135.76 91.0866 133.005 85.1389C130.302 79.3056 131.887 71.519 136.649 67.9029C138.816 66.3217 141.439 65.4879 144.122 65.5274C147.81 65.4658 151.499 65.5274 155.266 65.5274C155.266 66.0905 155.337 66.5304 155.337 66.9703C155.337 75.5751 155.337 84.1828 155.337 92.7934C155.481 96.8047 154.845 100.806 153.462 104.574C151.173 110.214 146.684 112.959 140.804 112.361C134.501 111.727 130.109 107.962 129.132 101.996C128.843 99.5353 128.732 97.0566 128.797 94.5795C128.709 91.6672 128.753 88.7462 128.753 85.6228ZM149.879 70.0761C147.934 70.0761 146.217 69.9353 144.527 70.0761C143.569 70.1253 142.652 70.4811 141.912 71.0911C141.172 71.7011 140.647 72.5328 140.416 73.4635C140.147 74.3048 140.053 75.1922 140.139 76.0712C140.226 76.9502 140.491 77.8023 140.918 78.5753C141.52 79.5504 142.408 80.3157 143.462 80.7661C145.601 81.6459 147.573 80.5286 149.483 79.6311C149.588 79.5592 149.676 79.4653 149.742 79.356C149.807 79.2466 149.848 79.1243 149.861 78.9976C149.941 76.0678 149.941 73.1115 149.941 70.0761H149.879Z" fill="#F4B512"/>
<path d="M28.4667 56.7121C29.0203 56.6991 29.5709 56.7973 30.0858 57.001C30.6007 57.2046 31.0695 57.5096 31.4644 57.8977C31.8592 58.2858 32.1721 58.7491 32.3844 59.2603C32.5968 59.7715 32.7043 60.3202 32.7006 60.8737C32.6683 61.9476 32.2225 62.9676 31.4562 63.7211C30.6899 64.4746 29.6623 64.9034 28.5874 64.9181C27.5126 64.9329 26.4736 64.5324 25.6869 63.8003C24.9002 63.0681 24.4266 62.0607 24.3647 60.988C24.3422 60.4353 24.4316 59.8837 24.6275 59.3663C24.8235 58.849 25.1219 58.3765 25.5049 57.9772C25.888 57.5779 26.3477 57.26 26.8567 57.0426C27.3656 56.8252 27.9132 56.7128 28.4667 56.7121Z" fill="#F4B512"/>
<path d="M18.2203 64.9818C17.6777 64.9923 17.1385 64.8944 16.6342 64.6939C16.13 64.4933 15.6709 64.1942 15.2839 63.8139C14.8969 63.4337 14.5898 62.98 14.3806 62.4795C14.1714 61.979 14.0642 61.4418 14.0655 60.8993C14.0441 60.3338 14.1375 59.7698 14.3402 59.2414C14.5429 58.713 14.8506 58.2311 15.2448 57.8249C15.639 57.4187 16.1115 57.0965 16.6337 56.8779C17.156 56.6593 17.7171 56.5487 18.2833 56.5528C18.8495 56.557 19.4089 56.6758 19.9279 56.9021C20.4468 57.1284 20.9145 57.4575 21.3027 57.8695C21.6909 58.2815 21.9915 58.7678 22.1864 59.2992C22.3813 59.8305 22.4664 60.3958 22.4366 60.9609C22.4299 61.5035 22.3148 62.0392 22.0981 62.5367C21.8814 63.0342 21.5675 63.4834 21.1747 63.858C20.782 64.2325 20.3183 64.5248 19.8109 64.7178C19.3036 64.9108 18.7628 65.0006 18.2203 64.9818Z" fill="#F4B512"/>
<path d="M197.307 108.27C197.323 109.101 197.09 109.917 196.64 110.615C196.189 111.313 195.541 111.861 194.777 112.189C194.014 112.517 193.17 112.61 192.353 112.456C191.536 112.303 190.784 111.909 190.192 111.326C189.6 110.743 189.195 109.997 189.029 109.183C188.864 108.369 188.944 107.524 189.261 106.756C189.578 105.988 190.116 105.332 190.808 104.872C191.499 104.411 192.312 104.167 193.143 104.17C194.236 104.172 195.285 104.603 196.063 105.37C196.842 106.136 197.288 107.178 197.307 108.27Z" fill="#F4B512"/>
<path d="M107.531 104.17C108.355 104.168 109.16 104.41 109.847 104.866C110.533 105.321 111.069 105.969 111.387 106.728C111.706 107.488 111.792 108.324 111.636 109.133C111.479 109.941 111.087 110.685 110.508 111.271C109.93 111.856 109.19 112.258 108.384 112.425C107.577 112.591 106.739 112.515 105.975 112.207C105.212 111.898 104.557 111.37 104.092 110.69C103.628 110.01 103.376 109.208 103.367 108.384C103.363 107.834 103.467 107.288 103.674 106.778C103.881 106.268 104.186 105.804 104.573 105.413C104.96 105.021 105.421 104.71 105.928 104.496C106.436 104.283 106.98 104.172 107.531 104.17Z" fill="#F4B512"/>
</g>
<defs>
<clipPath id="clip0_636_69">
<rect width="200" height="114" fill="white" transform="translate(0 0.78125)"/>
</clipPath>
</defs>
</svg>
