<svg width="116" height="96" viewBox="0 0 116 96" fill="none" xmlns="http://www.w3.org/2000/svg">
<g clip-path="url(#clip0_616_592)">
<path d="M9.72461 65.8066C9.72461 65.8066 9.72461 65.8181 9.73331 65.8238C9.73519 65.8182 9.73519 65.8122 9.73331 65.8066" fill="white"/>
<path d="M9.81578 72.2079C9.81578 78.1062 8.55678 83.1346 4.27758 82.3919C0.748187 81.7806 0.0151696 76.9467 0.0151696 72.1156L2.57374 71.9533C2.57374 74.5437 2.92765 76.1495 4.18106 76.1942C5.49881 76.2432 5.83035 74.7661 5.83035 73.2346C5.83035 72.0722 5.66528 71.3449 5.25261 71.0078C4.60729 70.6262 3.9085 70.3434 3.17945 70.1686C2.98921 70.1118 2.80238 70.044 2.6199 69.9658C2.43259 69.8855 2.25121 69.792 2.07713 69.686C1.5682 69.3954 1.14834 68.9712 0.862896 68.4594C0.668581 68.0859 0.519705 67.6905 0.419448 67.2817C0.104194 65.8668 -0.0367418 64.4186 -0.000218127 62.9695C-0.000218127 57.7299 1.3665 53.4723 4.30556 51.9827C8.13152 50.0455 9.39751 53.801 9.39751 61.0001L6.09754 61.9023C6.09754 59.0559 5.57855 57.7061 4.44545 58.1258C3.40048 58.5132 2.96962 59.8042 2.96962 61.3288C2.96962 62.4617 3.08573 63.0814 3.38929 63.3975C4.04947 63.7732 4.77901 64.0111 5.53378 64.0968C6.63734 64.2147 7.66094 64.7279 8.41549 65.5417C8.50877 65.6684 8.59516 65.8001 8.67429 65.9361C8.67429 65.9361 8.68268 65.9445 8.68548 65.9529C9.15871 66.8446 9.46452 67.8155 9.58776 68.8174C9.60595 68.9237 9.61854 69.0259 9.63672 69.1322C9.7672 70.1526 9.82936 71.1806 9.82277 72.2093" fill="white"/>
<path d="M26.6516 67.9477V64.2229V61.3164L20.7679 62.5752V55.9873L28.9206 53.3606V42.4199L15.5304 48.8665V65.9825H15.5234V69.2107L20.7679 68.6162L26.6516 67.9477Z" fill="white"/>
<path d="M11.0566 84.9262L24.4538 87.069V76.1745L16.1836 76.1857V69.209L11.0566 69.7992V84.9262Z" fill="white"/>
<path d="M26.6855 87.6914L49.0146 91.535V76.0234L34.8453 76.0458V66.9766L26.6855 67.9836V87.6914Z" fill="white"/>
<path d="M49.4778 60.2706V56.2829L39.5191 58.4313V50.1677L53.4814 45.6122V31.2559L31.1523 42.135V63.219V66.9759L39.5121 66.0192L49.4638 64.8793H49.4764V60.2706H49.4778Z" fill="white"/>
<path d="M64.6445 62.8459V92.4243L86.9736 96.0008V60.2793L64.6445 62.8459Z" fill="white"/>
<path d="M116.005 0L55.7129 29.4175V44.7445L68.4274 40.6407V56.9272H68.419V62.5136L90.5858 59.968V53.3507V33.4892L116.005 25.2969V0Z" fill="white"/>
</g>
<defs>
<clipPath id="clip0_616_592">
<rect width="116" height="96" fill="white"/>
</clipPath>
</defs>
</svg>
