<svg width="40" height="40" viewBox="0 0 40 40" fill="none" xmlns="http://www.w3.org/2000/svg">
<path d="M13.8309 30.5879H7.80304C3.50037 30.5879 0 34.0883 0 38.3906C0 39.2527 0.698547 39.9513 1.56067 39.9513H20.0732C20.9351 39.9513 21.6336 39.2527 21.6336 38.3906C21.6336 34.0883 18.1335 30.5879 13.8309 30.5879ZM3.38867 36.8303C4.03259 35.0135 5.76843 33.7089 7.80304 33.7089H13.8309C15.8655 33.7089 17.601 35.0135 18.2452 36.8303H3.38867Z" fill="#ED1F4A"/>
<path d="M24.628 0C16.152 0 9.25629 6.89575 9.25629 15.372C9.25629 15.8923 9.28345 16.412 9.33533 16.9284C6.60431 17.594 4.57031 20.0595 4.57031 22.9929C4.57031 26.4349 7.37061 29.2352 10.8127 29.2352C12.4969 29.2352 14.0265 28.5635 15.1505 27.4753C17.8159 29.57 21.1124 30.7437 24.628 30.7437C33.1042 30.7437 40 23.848 40 15.372C40 6.89575 33.1042 0 24.628 0V0ZM10.8127 26.1139C9.09149 26.1139 7.69135 24.7137 7.69135 22.9929C7.69135 21.2717 9.09149 19.8715 10.8127 19.8715C10.8652 19.8715 10.9177 19.873 10.9695 19.8755C10.9943 19.8782 11.019 19.8798 11.044 19.881C12.6572 20 13.9337 21.3498 13.9337 22.9929C13.9337 24.7137 12.5336 26.1139 10.8127 26.1139ZM19.2502 26.3843V25.0229C19.2502 22.085 21.6406 19.6948 24.5786 19.6948C27.5165 19.6948 29.9066 22.085 29.9066 25.0229V26.4258C28.3072 27.1924 26.517 27.6224 24.6283 27.6224C22.7347 27.6227 20.9048 27.1939 19.2502 26.3843ZM32.9974 24.3091C32.634 19.9829 28.9972 16.5735 24.5786 16.5735C21.1615 16.5735 18.212 18.6124 16.882 21.5375C16.3538 19.3347 14.6552 17.583 12.4823 16.9791C12.413 16.4478 12.3773 15.9103 12.3773 15.372C12.3773 8.61694 17.8732 3.12134 24.628 3.12134C31.3831 3.12134 36.8787 8.61694 36.8787 15.372C36.8787 18.8934 35.3845 22.0724 32.9974 24.3091Z" fill="#ED1F4A"/>
<path d="M24.573 5.52539C21.7764 5.52539 19.501 7.80048 19.501 10.5971C19.501 13.394 21.7764 15.6691 24.573 15.6691C27.3696 15.6691 29.6447 13.394 29.6447 10.5971C29.6447 7.80048 27.3696 5.52539 24.573 5.52539ZM24.573 12.5481C23.4973 12.5481 22.6223 11.6729 22.6223 10.5971C22.6223 9.52167 23.4973 8.64642 24.573 8.64642C25.6484 8.64642 26.5237 9.52167 26.5237 10.5971C26.5237 11.6729 25.6484 12.5481 24.573 12.5481Z" fill="#ED1F4A"/>
</svg>
