<svg width="20" height="20" viewBox="0 0 20 20" fill="none" xmlns="http://www.w3.org/2000/svg">
<path d="M19.2188 1.5625H16.0547V0.78125C16.0547 0.349766 15.7049 0 15.2734 0C14.842 0 14.4922 0.349766 14.4922 0.78125V1.5625H10.7812V0.78125C10.7812 0.349766 10.4315 0 10 0C9.56852 0 9.21875 0.349766 9.21875 0.78125V1.5625H5.50781V0.78125C5.50781 0.349766 5.15805 0 4.72656 0C4.29508 0 3.94531 0.349766 3.94531 0.78125V1.5625H0.78125C0.349766 1.5625 0 1.91227 0 2.34375V19.2188C0 19.6502 0.349766 20 0.78125 20H9.10156C9.53305 20 9.88281 19.6502 9.88281 19.2188C9.88281 18.7873 9.53305 18.4375 9.10156 18.4375H1.5625V7.03125H18.4375V9.88281C18.4375 10.3143 18.7873 10.6641 19.2188 10.6641C19.6502 10.6641 20 10.3143 20 9.88281V2.34375C20 1.91227 19.6502 1.5625 19.2188 1.5625ZM1.5625 5.46875V3.125H3.94531V3.90625C3.94531 4.33773 4.29508 4.6875 4.72656 4.6875C5.15805 4.6875 5.50781 4.33773 5.50781 3.90625V3.125H9.21875V3.90625C9.21875 4.33773 9.56852 4.6875 10 4.6875C10.4315 4.6875 10.7812 4.33773 10.7812 3.90625V3.125H14.4922V3.90625C14.4922 4.33773 14.842 4.6875 15.2734 4.6875C15.7049 4.6875 16.0547 4.33773 16.0547 3.90625V3.125H18.4375V5.46875H1.5625ZM19.8 13.5298L14.2216 19.7408C14.0805 19.8979 13.8819 19.9911 13.6709 19.9994C13.6607 19.9998 13.6505 20 13.6404 20C13.4402 20 13.2473 19.9232 13.1017 19.7846L9.69246 16.5394C9.37996 16.2419 9.36773 15.7474 9.66523 15.4348C9.96273 15.1223 10.4572 15.1102 10.7698 15.4076L13.5965 18.0984L18.6375 12.4857C18.9258 12.1648 19.4198 12.1382 19.7408 12.4266C20.0618 12.7149 20.0883 13.2089 19.8 13.5298Z" fill="#ED1F4A"/>
</svg>
