<svg width="40" height="40" viewBox="0 0 40 40" fill="none" xmlns="http://www.w3.org/2000/svg">
<path d="M19.9946 27.4922C16.5491 27.4922 13.7461 30.2952 13.7461 33.7407C13.7461 37.1858 16.5491 39.9888 19.9946 39.9888C23.44 39.9888 26.243 37.1858 26.243 33.7407C26.243 30.2952 23.44 27.4922 19.9946 27.4922ZM19.9946 36.8647C18.2719 36.8647 16.8705 35.4634 16.8705 33.7407C16.8705 32.0179 18.2719 30.6163 19.9946 30.6163C21.7173 30.6163 23.119 32.0179 23.119 33.7407C23.119 35.4634 21.7173 36.8647 19.9946 36.8647Z" fill="#ED1F4A"/>
<path d="M33.7514 27.4922C30.306 27.4922 27.5029 30.2952 27.5029 33.7407C27.5029 37.1858 30.306 39.9888 33.7514 39.9888C37.1968 39.9888 39.9999 37.1858 39.9999 33.7407C39.9999 30.2952 37.1968 27.4922 33.7514 27.4922ZM33.7514 36.8647C32.0287 36.8647 30.6273 35.4634 30.6273 33.7407C30.6273 32.0179 32.0287 30.6163 33.7514 30.6163C35.4741 30.6163 36.8758 32.0179 36.8758 33.7407C36.8758 35.4634 35.4741 36.8647 33.7514 36.8647Z" fill="#ED1F4A"/>
<path d="M6.24847 27.4922C2.80304 27.4922 0 30.2952 0 33.7407C0 37.1858 2.80304 39.9888 6.24847 39.9888C9.69391 39.9888 12.4969 37.1858 12.4969 33.7407C12.4969 30.2952 9.69391 27.4922 6.24847 27.4922ZM6.24847 36.8647C4.52576 36.8647 3.12408 35.4634 3.12408 33.7407C3.12408 32.0179 4.52576 30.6163 6.24847 30.6163C7.97119 30.6163 9.37256 32.0179 9.37256 33.7407C9.37256 35.4634 7.97119 36.8647 6.24847 36.8647Z" fill="#ED1F4A"/>
<path d="M19.9946 13.9102C16.5491 13.9102 13.7461 16.7132 13.7461 20.1586C13.7461 23.6041 16.5491 26.4071 19.9946 26.4071C23.44 26.4071 26.243 23.6041 26.243 20.1586C26.243 16.7132 23.44 13.9102 19.9946 13.9102ZM19.9946 23.2827C18.2719 23.2827 16.8705 21.8813 16.8705 20.1586C16.8705 18.4359 18.2719 17.0345 19.9946 17.0345C21.7173 17.0345 23.119 18.4359 23.119 20.1586C23.119 21.8813 21.7173 23.2827 19.9946 23.2827Z" fill="#ED1F4A"/>
<path d="M33.7514 26.4071C37.1968 26.4071 39.9999 23.6041 39.9999 20.1586C39.9999 16.7132 37.1968 13.9102 33.7514 13.9102C30.306 13.9102 27.5029 16.7132 27.5029 20.1586C27.5029 23.6041 30.306 26.4071 33.7514 26.4071ZM33.7514 17.0345C35.4741 17.0345 36.8758 18.4359 36.8758 20.1586C36.8758 21.8813 35.4741 23.2827 33.7514 23.2827C32.0287 23.2827 30.6273 21.8813 30.6273 20.1586C30.6273 18.4359 32.0287 17.0345 33.7514 17.0345Z" fill="#ED1F4A"/>
<path d="M6.24847 13.9102C2.80304 13.9102 0 16.7132 0 20.1586C0 23.6041 2.80304 26.4071 6.24847 26.4071C9.69391 26.4071 12.4969 23.6041 12.4969 20.1586C12.4969 16.7132 9.69391 13.9102 6.24847 13.9102ZM6.24847 23.2827C4.52576 23.2827 3.12408 21.8813 3.12408 20.1586C3.12408 18.4359 4.52576 17.0345 6.24847 17.0345C7.97119 17.0345 9.37256 18.4359 9.37256 20.1586C9.37256 21.8813 7.97119 23.2827 6.24847 23.2827Z" fill="#ED1F4A"/>
<path d="M19.9946 0C16.5491 0 13.7461 2.80304 13.7461 6.24847C13.7461 9.69391 16.5491 12.4969 19.9946 12.4969C23.44 12.4969 26.243 9.69391 26.243 6.24847C26.243 2.80304 23.44 0 19.9946 0ZM19.9946 9.37256C18.2719 9.37256 16.8705 7.97119 16.8705 6.24847C16.8705 4.52576 18.2719 3.12408 19.9946 3.12408C21.7173 3.12408 23.119 4.52576 23.119 6.24847C23.119 7.97119 21.7173 9.37256 19.9946 9.37256Z" fill="#ED1F4A"/>
</svg>
