<svg width="40" height="40" viewBox="0 0 40 40" fill="none" xmlns="http://www.w3.org/2000/svg">
<g clip-path="url(#clip0_22_5398)">
<path d="M15.8105 14.5743C17.9431 14.5743 19.6782 12.8393 19.6782 10.7066C19.6782 8.57383 17.9431 6.83883 15.8105 6.83883C13.6778 6.83883 11.9427 8.57383 11.9427 10.7066C11.9427 12.8393 13.6778 14.5743 15.8105 14.5743ZM15.8105 9.96383C16.22 9.96383 16.5532 10.297 16.5532 10.7066C16.5532 11.1161 16.22 11.4493 15.8105 11.4493C15.4009 11.4493 15.0677 11.1161 15.0677 10.7066C15.0677 10.297 15.4009 9.96383 15.8105 9.96383ZM20.7138 16.6577C20.5466 15.9532 19.9175 15.4557 19.1934 15.4557H12.4275C11.7034 15.4557 11.0742 15.9532 10.9071 16.6577L9.43695 22.8591C9.20531 23.8368 9.9457 24.782 10.9573 24.782H20.6635C21.6684 24.782 22.4171 23.8433 22.1839 22.8591L20.7138 16.6577ZM12.9336 21.657L13.6629 18.5807H17.9581L18.6873 21.657H12.9336ZM39.5424 33.1342L33.6049 27.1967C32.9947 26.5865 32.0053 26.5865 31.3952 27.1967L30.4008 28.1911L28.0352 25.8255C30.2748 23.0966 31.6209 19.608 31.6209 15.8105C31.6209 7.0925 24.5284 0 15.8105 0C7.0925 0 0 7.0925 0 15.8105C0 24.5284 7.0925 31.6209 15.8105 31.6209C19.6079 31.6209 23.0966 30.2748 25.8254 28.0352L28.191 30.4009L27.1966 31.3952C26.5865 32.0055 26.5865 32.9948 27.1966 33.6049L33.1341 39.5424C33.7443 40.1526 34.7337 40.1526 35.3439 39.5424L39.5424 35.344C40.1525 34.7337 40.1525 33.7444 39.5424 33.1342ZM3.125 15.8105C3.125 8.81562 8.8157 3.125 15.8105 3.125C22.8052 3.125 28.4959 8.81562 28.4959 15.8105C28.4959 22.8053 22.8052 28.4959 15.8105 28.4959C8.8157 28.4959 3.125 22.8052 3.125 15.8105ZM34.2391 36.2278L30.5113 32.5L32.5 30.5112L36.2278 34.2391L34.2391 36.2278Z" fill="#ED1F4A"/>
</g>
<defs>
<clipPath id="clip0_22_5398">
<rect width="40" height="40" fill="white"/>
</clipPath>
</defs>
</svg>
