<svg width="20" height="20" viewBox="0 0 20 20" fill="none" xmlns="http://www.w3.org/2000/svg">
<path d="M19.2188 0H0.78125C0.349731 0 0 0.349731 0 0.78125V19.2188C0 19.6503 0.349731 20 0.78125 20H19.2188C19.6503 20 20 19.6503 20 19.2188V0.78125C20 0.349731 19.6503 0 19.2188 0ZM18.4375 18.4375H1.5625V1.5625H18.4375V18.4375ZM3.19763 5.35889C2.89246 5.05386 2.89246 4.55917 3.19763 4.254C3.50266 3.94897 3.99734 3.94897 4.30237 4.254L4.8082 4.75983L6.47888 3.08929C6.78391 2.78412 7.27859 2.78412 7.58362 3.08929C7.88879 3.39447 7.88879 3.88901 7.58362 4.19418L5.36072 6.41708C5.05554 6.72226 4.56085 6.72211 4.25583 6.41708L3.19763 5.35889ZM9.21875 4.75327C9.21875 4.32175 9.56848 3.97202 10 3.97202H16.25C16.6815 3.97202 17.0312 4.32175 17.0312 4.75327C17.0312 5.18463 16.6815 5.53452 16.25 5.53452H10C9.56848 5.53452 9.21875 5.18463 9.21875 4.75327ZM3.19763 15.8525C2.89246 15.5473 2.89246 15.0526 3.19763 14.7476C3.50266 14.4426 3.99734 14.4424 4.30237 14.7476L4.8082 15.2534L6.47888 13.5829C6.78391 13.2777 7.27859 13.2777 7.58362 13.5829C7.88879 13.8879 7.88879 14.3826 7.58362 14.6878L5.36072 16.9107C5.05554 17.2159 4.56085 17.2157 4.25583 16.9107L3.19763 15.8525ZM9.21875 15.2467C9.21875 14.8154 9.56848 14.4655 10 14.4655H16.25C16.6815 14.4655 17.0312 14.8154 17.0312 15.2467C17.0312 15.6783 16.6815 16.028 16.25 16.028H10C9.56848 16.028 9.21875 15.6783 9.21875 15.2467ZM3.19763 10.6058C2.89246 10.3006 2.89246 9.80591 3.19763 9.50089C3.50266 9.19571 3.99734 9.19571 4.30237 9.50089L4.8082 10.0067L6.47888 8.33603C6.78391 8.03101 7.27859 8.03101 7.58362 8.33603C7.88879 8.6412 7.88879 9.13589 7.58362 9.44092L5.36072 11.664C5.05554 11.969 4.56085 11.969 4.25583 11.664L3.19763 10.6058ZM9.21875 10C9.21875 9.56848 9.56848 9.21875 10 9.21875H16.25C16.6815 9.21875 17.0312 9.56848 17.0312 10C17.0312 10.4315 16.6815 10.7812 16.25 10.7812H10C9.56848 10.7812 9.21875 10.4315 9.21875 10Z" fill="#ED1F4A"/>
</svg>
