<svg width="18" height="16" viewBox="0 0 18 16" fill="none" xmlns="http://www.w3.org/2000/svg">
<path d="M5.50766 2.17483C5.64035 1.06073 6.14823 0.300256 7.19163 0.0473183C7.49335 -0.0259006 7.81956 0.00488464 8.13392 0.00238854C8.83137 -0.00260366 9.52881 -0.00010756 10.2262 0.000724473C11.445 0.00322057 12.2056 0.658031 12.4418 1.90941C12.4568 1.98845 12.4686 2.06749 12.4868 2.174C13.9054 2.174 15.3121 2.20312 16.7173 2.16484C17.8223 2.13489 18.0063 2.42194 18 3.5352C17.9763 7.34675 17.9921 11.1583 17.9929 14.9698C17.9929 15.7794 17.782 15.9974 17.0056 15.9974C11.6504 15.9974 6.29514 15.9966 0.939927 15.9949C0.213261 15.9949 0.000789855 15.7669 0.000789855 15.0039C0 11.0684 0 7.13208 0 3.19573C0 2.43609 0.248804 2.17483 0.969942 2.17483C2.33797 2.174 3.70679 2.17483 5.07482 2.17483C5.21857 2.17483 5.36153 2.17483 5.50766 2.17483ZM1.41937 14.5314C6.49656 14.5314 11.5271 14.5314 16.5569 14.5314C16.5569 11.5344 16.5569 8.56734 16.5569 5.51627C16.4479 5.68934 16.3816 5.78835 16.3208 5.89069C15.7205 6.89994 15.1123 7.90421 14.5262 8.92262C14.3122 9.2937 14.0405 9.4676 13.625 9.45928C12.8494 9.44264 12.0729 9.46593 11.2965 9.45512C11.0627 9.45179 10.9261 9.51003 10.8068 9.74966C10.4253 10.5118 9.8021 10.9078 8.98223 10.9045C8.17737 10.9012 7.5676 10.4977 7.18926 9.75964C7.05893 9.50504 6.91123 9.4468 6.66716 9.45012C5.8781 9.46094 5.08824 9.44513 4.29918 9.45761C3.9319 9.46344 3.68072 9.31367 3.48879 8.98335C2.88455 7.94414 2.26609 6.91409 1.65159 5.88153C1.59393 5.78419 1.52521 5.6935 1.41937 5.53874C1.41937 8.58315 1.41937 11.5435 1.41937 14.5314ZM2.01808 3.65668C2.04335 3.73905 2.04967 3.7948 2.07574 3.83723C2.86085 5.16515 3.6436 6.49558 4.44214 7.81435C4.50217 7.91336 4.6712 7.98575 4.79126 7.98907C5.44842 8.00655 6.10637 8.01154 6.76353 7.98741C6.89543 7.98242 7.07789 7.86843 7.14187 7.74779C7.55338 6.98148 8.15999 6.55299 8.99487 6.55215C9.82974 6.55132 10.4379 6.97649 10.8471 7.74612C10.9111 7.86677 11.0935 7.98242 11.2246 7.98741C11.8684 8.01154 12.5137 8.0132 13.1574 7.98491C13.3043 7.97826 13.5002 7.86011 13.58 7.72948C14.3335 6.49474 15.0665 5.24669 15.8042 4.00114C15.8619 3.90296 15.9061 3.79646 15.9748 3.65668C11.2918 3.65668 6.66953 3.65668 2.01808 3.65668ZM11.0287 2.15236C10.9727 1.68642 10.761 1.4468 10.3518 1.44097C9.44745 1.42766 8.54307 1.42766 7.63869 1.4443C7.22085 1.45179 7.0147 1.68642 6.96257 2.15236C8.31875 2.15236 9.67256 2.15236 11.0287 2.15236ZM8.9767 8.00156C8.61969 8.01237 8.30216 8.35184 8.30058 8.72542C8.299 9.11648 8.63864 9.45928 9.01619 9.4468C9.37795 9.43515 9.69547 9.09651 9.6931 8.72459C9.69073 8.3352 9.34951 7.99074 8.9767 8.00156Z" fill="#707070"/>
</svg>
