<svg width="20" height="20" viewBox="0 0 20 20" fill="none" xmlns="http://www.w3.org/2000/svg">
<path d="M12.6695 1.66507C8.98812 -0.523097 4.01406 -0.498371 0.377344 1.66507C0.141758 1.82038 0 2.0837 0 2.36585V18.0369C0 18.343 0.178711 18.6208 0.457227 18.7478C0.533984 18.7828 2.36633 19.6081 4.87234 19.8941C5.90227 19.9747 6.07594 18.4984 5.04949 18.3417C3.49469 18.1643 2.21129 17.7498 1.5625 17.5087V15.376C2.31258 15.623 3.39648 15.9182 4.6668 16.0802C5.08637 16.1365 5.48793 15.8339 5.54059 15.4041C5.5952 14.9761 5.29246 14.5849 4.86445 14.5303C3.39359 14.3427 2.18586 13.9514 1.5625 13.7197V11.587C2.31258 11.834 3.39648 12.1291 4.6668 12.2912C5.08637 12.3474 5.48793 12.0448 5.54059 11.615C5.5952 11.187 5.29246 10.7958 4.86445 10.7412C3.39359 10.5536 2.18586 10.1623 1.5625 9.93061V7.71425C2.54516 8.03347 4.10281 8.43479 5.90285 8.51468C6.33086 8.53491 6.7009 8.1994 6.71805 7.7669C6.73625 7.33378 6.38672 6.97268 5.95367 6.95288C3.9993 6.86335 2.33543 6.34233 1.5625 6.06003V3.59835C4.63293 5.02315 8.42023 5.0203 11.4844 3.59835V5.60608C11.5188 6.65573 13.002 6.67007 13.0469 5.62479V2.36585C13.0469 2.0837 12.9051 1.82038 12.6695 1.66507ZM6.52344 3.12479C4.98785 3.12479 3.58922 2.72003 2.60957 2.33706C5.0466 1.32561 7.99492 1.32655 10.434 2.33835C9.45434 2.72097 8.05707 3.12479 6.52344 3.12479ZM19.6245 9.41034C15.9346 7.2071 10.974 7.2319 7.32863 9.41034C7.09484 9.55847 6.95316 9.816 6.95316 10.0928V18.0369C6.95316 18.3421 7.13086 18.6193 7.40812 18.7468C10.9534 20.3876 16.0546 20.3644 19.545 18.7468C19.8223 18.6193 20 18.3421 20 18.0369V10.0928C20 9.81597 19.8583 9.55847 19.6245 9.41034ZM13.4766 9.29667C15.0119 9.29667 16.4104 9.69862 17.3904 10.0792C14.9482 11.0984 12.0054 11.0964 9.56262 10.0766C10.5395 9.6969 11.9349 9.29667 13.4766 9.29667ZM18.4375 17.5111C15.423 18.7201 11.5237 18.7135 8.51562 17.5102V15.3767C11.4968 16.4495 15.4629 16.4473 18.4375 15.3767V17.5111ZM18.4375 13.7203C15.4205 14.9191 11.526 14.9124 8.51562 13.7194V11.3391C11.5939 12.7562 15.3655 12.7533 18.4375 11.3391V13.7203Z" fill="#ED1F4A"/>
</svg>
