<svg width="18" height="20" viewBox="0 0 18 20" fill="none" xmlns="http://www.w3.org/2000/svg">
<path d="M17.6727 0.777813C17.6708 0.343985 17.3161 -0.000234255 16.8913 1.19616e-07H14.4089C13.9774 1.19616e-07 13.6276 0.349766 13.6276 0.78125C13.6276 1.21273 13.9774 1.5625 14.4089 1.5625H15.0055L12.3332 4.23484C11.5074 3.63301 10.4913 3.2773 9.39363 3.2773C7.16187 3.2773 5.26703 4.7466 4.625 6.76855C2.19914 7.11187 0.327148 9.20164 0.327148 11.7207C0.327148 14.2131 2.15957 16.2854 4.54789 16.6616V17.4941H4.3857C3.95422 17.4941 3.60445 17.8438 3.60445 18.2753C3.60445 18.7068 3.95422 19.0566 4.3857 19.0566H4.54789V19.2188C4.54789 19.6502 4.89766 20 5.32914 20C5.76062 20 6.11039 19.6502 6.11039 19.2188V19.0566H6.27258C6.70406 19.0566 7.05383 18.7068 7.05383 18.2753C7.05383 17.8438 6.70406 17.4941 6.27258 17.4941H6.11039V16.6616C7.99434 16.3648 9.53219 15.0127 10.0978 13.2314C12.5236 12.8881 14.3956 10.7984 14.3956 8.27926C14.3956 7.18152 14.0399 6.16547 13.4381 5.33973L16.1104 2.66738V3.26406C16.1104 3.69555 16.4602 4.04531 16.8917 4.04531C17.3232 4.04531 17.6729 3.69555 17.6729 3.26406V0.78125C17.6729 0.780078 17.6727 0.778985 17.6727 0.777813ZM5.32914 15.1602C3.43258 15.1602 1.88965 13.6173 1.88965 11.7207C1.88965 10.1484 2.95012 8.81922 4.39336 8.41066C4.45484 10.7838 6.17746 12.7505 8.43879 13.1895C7.88691 14.3533 6.70059 15.1602 5.32914 15.1602ZM5.95492 8.33848C7.53492 8.63008 8.73977 10.005 8.76789 11.6616C7.18789 11.3699 5.98305 9.995 5.95492 8.33848ZM10.3294 11.5893C10.2679 9.21621 8.54531 7.24945 6.28398 6.81055C6.8359 5.64664 8.02223 4.83977 9.39367 4.83977C11.2902 4.83977 12.8332 6.3827 12.8332 8.27926C12.8331 9.85156 11.7727 11.1808 10.3294 11.5893Z" fill="#ED1F4A"/>
</svg>
