<svg width="20" height="18" viewBox="0 0 20 18" fill="none" xmlns="http://www.w3.org/2000/svg">
<path d="M6.11962 2.41669C6.26706 1.17881 6.83137 0.333835 7.9907 0.0527929C8.32595 -0.0285614 8.6884 0.00564439 9.03769 0.00287095C9.81263 -0.00267594 10.5876 9.75027e-05 11.3625 0.00102198C12.7167 0.00379543 13.5618 0.731362 13.8242 2.12178C13.8409 2.20961 13.8541 2.29743 13.8742 2.41577C15.4504 2.41577 17.0135 2.44812 18.5748 2.4056C19.8025 2.37232 20.007 2.69126 20 3.92822C19.9737 8.16327 19.9912 12.3983 19.9921 16.6334C19.9921 17.5329 19.7578 17.7751 18.8951 17.7751C12.9448 17.7751 6.9946 17.7742 1.04436 17.7723C0.236956 17.7723 0.000877616 17.519 0.000877616 16.6713C0 12.2985 0 7.92475 0 3.55103C0 2.70698 0.276449 2.41669 1.07771 2.41669C2.59774 2.41577 4.11865 2.41669 5.63869 2.41669C5.79841 2.41669 5.95726 2.41669 6.11962 2.41669ZM1.57708 16.1462C7.2184 16.1462 12.8079 16.1462 18.3966 16.1462C18.3966 12.8162 18.3966 9.51948 18.3966 6.12941C18.2755 6.3217 18.2018 6.43171 18.1342 6.54542C17.4672 7.66682 16.7914 8.78267 16.1402 9.91424C15.9024 10.3266 15.6005 10.5198 15.1389 10.5105C14.2771 10.492 13.4144 10.5179 12.5517 10.5059C12.2919 10.5022 12.1401 10.5669 12.0075 10.8332C11.5837 11.68 10.8912 12.12 9.98026 12.1163C9.08596 12.1127 8.40844 11.6643 7.98806 10.8443C7.84326 10.5614 7.67914 10.4967 7.40796 10.5004C6.53122 10.5124 5.65361 10.4948 4.77687 10.5087C4.36877 10.5151 4.08969 10.3487 3.87643 9.98172C3.20506 8.82704 2.51788 7.68254 1.8351 6.53526C1.77103 6.42709 1.69468 6.32632 1.57708 6.15437C1.57708 9.53705 1.57708 12.8264 1.57708 16.1462ZM2.24231 4.06319C2.27039 4.15472 2.27741 4.21666 2.30638 4.26381C3.17873 5.73928 4.04845 7.21752 4.93572 8.68283C5.00241 8.79284 5.19022 8.87327 5.32362 8.87697C6.0538 8.89638 6.78485 8.90193 7.51503 8.87512C7.66159 8.86957 7.86432 8.74292 7.93541 8.60887C8.39265 7.75742 9.06666 7.28131 9.9943 7.28039C10.9219 7.27946 11.5977 7.75187 12.0523 8.60702C12.1234 8.74107 12.3261 8.86957 12.4718 8.87512C13.1871 8.90193 13.9041 8.90378 14.6193 8.87234C14.7826 8.86495 15.0002 8.73367 15.0889 8.58853C15.9261 7.2166 16.7405 5.82988 17.5602 4.44593C17.6243 4.33684 17.6734 4.21851 17.7498 4.06319C12.5464 4.06319 7.41059 4.06319 2.24231 4.06319ZM12.2542 2.39173C12.1918 1.87402 11.9566 1.60777 11.502 1.6013C10.4972 1.58651 9.4923 1.58651 8.48743 1.605C8.02317 1.61332 7.79411 1.87402 7.73619 2.39173C9.24306 2.39173 10.7473 2.39173 12.2542 2.39173ZM9.97411 8.89083C9.57743 8.90285 9.22463 9.28004 9.22287 9.69513C9.22112 10.1296 9.59849 10.5105 10.018 10.4967C10.4199 10.4837 10.7727 10.1075 10.7701 9.69421C10.7675 9.26155 10.3883 8.87882 9.97411 8.89083Z" fill="#ED1F4A"/>
</svg>
