<svg width="20" height="20" viewBox="0 0 20 20" fill="none" xmlns="http://www.w3.org/2000/svg">
<g clip-path="url(#clip0_19_4931)">
<path d="M19.2326 9.41693C18.8023 9.40853 18.4443 9.75048 18.4353 10.1818C18.4198 10.9355 18.3132 11.6594 18.1266 12.3439H13.8092C13.8677 11.6501 13.9004 10.9319 13.9054 10.1996C13.9083 9.76817 13.5609 9.41603 13.1294 9.4131C12.6972 9.41048 12.3459 9.75755 12.3429 10.189C12.3379 10.9289 12.3036 11.6512 12.2417 12.3439H7.75816C7.69097 11.5923 7.65613 10.806 7.65613 10.0002C7.65613 9.19428 7.69097 8.40804 7.75816 7.65645H10.847C11.2785 7.65645 11.6283 7.30669 11.6283 6.87521C11.6283 6.44373 11.2785 6.09397 10.847 6.09397H7.95292C8.09651 5.21172 8.29007 4.40349 8.52959 3.70151C9.1056 2.01322 9.72481 1.56279 9.99988 1.56279C10.2503 1.56279 10.5031 1.57365 10.7511 1.59514C11.1808 1.63186 11.5595 1.31401 11.5967 0.884094C11.6339 0.454257 11.3156 0.0756296 10.8857 0.0384427C10.5384 0.00840411 10.1464 -0.0034707 9.95582 0.00086517C4.36954 0.0239117 0 4.40755 0 10.0002C0 15.6034 4.38903 20 9.99984 20C12.6064 20 15.1266 19.0417 17.0324 17.1736C18.8892 15.3534 19.9423 12.8818 19.9975 10.2141C20.0064 9.78278 19.664 9.42587 19.2326 9.41693V9.41693ZM12.047 13.9064C11.8993 14.8148 11.6988 15.6438 11.4503 16.3578C10.9504 17.7945 10.3616 18.4376 9.99984 18.4376C9.72477 18.4376 9.10556 17.9871 8.52955 16.2989C8.29003 15.5969 8.09647 14.7886 7.95288 13.9064H12.047ZM6.19037 12.3439H1.87981C1.6729 11.6024 1.56248 10.8166 1.56248 10.0002C1.56248 9.18385 1.6729 8.39804 1.87981 7.65649H6.19037C6.12658 8.41319 6.09369 9.19885 6.09369 10.0002C6.09369 10.8016 6.12654 11.5872 6.19037 12.3439ZM7.5975 1.89724C7.40735 2.26106 7.22356 2.69059 7.05079 3.19703C6.76157 4.04467 6.53326 5.02559 6.37228 6.09401H2.48977C3.52608 4.06662 5.35652 2.54001 7.5975 1.89724V1.89724ZM2.48977 13.9064H6.37228C6.5333 14.9748 6.76161 15.9557 7.05079 16.8034C7.2236 17.3098 7.40735 17.7393 7.5975 18.1032C5.35652 17.4604 3.52608 15.9338 2.48977 13.9064V13.9064ZM12.3972 18.1136C12.5807 17.7639 12.7584 17.3531 12.926 16.8713C13.2257 16.0099 13.4618 15.0045 13.6272 13.9064H17.5291C16.4993 15.9564 14.6649 17.48 12.3972 18.1136Z" fill="#ED1F4A"/>
<path d="M15.4514 9.81965C15.5974 10.0304 15.8374 10.1561 16.0937 10.1561C16.35 10.1561 16.59 10.0304 16.7359 9.81965L19.3161 6.09409C19.7634 5.44812 19.9999 4.69157 19.9999 3.90619C19.9999 1.75232 18.2476 0 16.0937 0C13.9398 0 12.1875 1.75232 12.1875 3.90619C12.1875 4.69157 12.4239 5.44812 12.8713 6.09405L15.4514 9.81965ZM16.0937 1.56248C17.386 1.56248 18.4374 2.61387 18.4374 3.90619C18.4374 4.37216 18.2971 4.8211 18.0315 5.20449L16.0937 8.00269L14.1558 5.20449C13.8903 4.82114 13.75 4.37216 13.75 3.90619C13.75 2.61387 14.8014 1.56248 16.0937 1.56248Z" fill="#ED1F4A"/>
<path d="M16.0938 4.6875C16.5252 4.6875 16.875 4.33772 16.875 3.90625C16.875 3.47478 16.5252 3.125 16.0938 3.125C15.6623 3.125 15.3125 3.47478 15.3125 3.90625C15.3125 4.33772 15.6623 4.6875 16.0938 4.6875Z" fill="#ED1F4A"/>
</g>
<defs>
<clipPath id="clip0_19_4931">
<rect width="20" height="20" fill="white"/>
</clipPath>
</defs>
</svg>
