<svg width="32" height="28" viewBox="0 0 32 28" fill="none" xmlns="http://www.w3.org/2000/svg">
<path d="M32 8.75C32 6.68225 30.3177 5 28.25 5H22.25V3.75C22.25 1.68225 20.5677 0 18.5 0H13.5C11.4323 0 9.75 1.68225 9.75 3.75V5H3.75C1.68225 5 0 6.68225 0 8.75C0 10.7153 0.94425 12.5736 2.5 13.7396V23.75C2.5 25.8177 4.18225 27.5 6.25 27.5H25.75C27.8177 27.5 29.5 25.8177 29.5 23.75V13.7396C31.0557 12.5736 32 10.7153 32 8.75ZM12.25 3.75C12.25 3.06075 12.8108 2.5 13.5 2.5H18.5C19.1893 2.5 19.75 3.06075 19.75 3.75V5H12.25V3.75ZM25.75 25H6.25C5.56075 25 5 24.4393 5 23.75V15.1517C7.96412 16.5656 11.1806 17.3313 14.75 17.4746V18.75C14.75 19.4404 15.3096 20 16 20C16.6904 20 17.25 19.4404 17.25 18.75V17.4746C20.8193 17.3314 24.0358 16.5657 27 15.1518V23.75C27 24.4393 26.4393 25 25.75 25ZM27.6873 11.9499C24.5832 13.8068 21.158 14.8003 17.25 14.9727V13.75C17.25 13.0596 16.6904 12.5 16 12.5C15.3096 12.5 14.75 13.0596 14.75 13.75V14.9727C10.842 14.8003 7.41675 13.8069 4.31269 11.9499C3.17762 11.2708 2.5 10.0746 2.5 8.75C2.5 8.06075 3.06075 7.5 3.75 7.5H28.25C28.9393 7.5 29.5 8.06075 29.5 8.75C29.5 10.0746 28.8223 11.2708 27.6873 11.9499Z" fill="#FFC23C"/>
</svg>
