<?xml version="1.0" encoding="UTF-8"?>
<svg xmlns="http://www.w3.org/2000/svg" xmlns:xlink="http://www.w3.org/1999/xlink" width="px" height="px" viewBox="0 0 120 66" version="1.1">
<g id="surface1">
<path style=" stroke:none;fill-rule:nonzero;fill:rgb(25.490196%,25.490196%,25.490196%);fill-opacity:1;" d="M 19.855469 21 C 18.683594 21 17.515625 21.175781 16.394531 21.527344 L 25.460938 24.886719 L 25.460938 30.394531 L 11.050781 25.042969 C 7.097656 29.582031 7.097656 36.417969 11.050781 40.957031 L 16.703125 38.859375 L 24.097656 41.617188 L 16.394531 44.472656 C 20.816406 45.855469 25.617188 44.46875 28.675781 40.929688 C 31.730469 37.394531 32.472656 32.363281 30.570312 28.066406 C 28.667969 23.769531 24.480469 21.007812 19.855469 21 Z M 16.714844 28.140625 L 24.128906 30.894531 L 19.789062 32.511719 L 12.375 29.75 Z M 25.460938 41.132812 L 11.945312 36.089844 L 11.945312 30.585938 L 25.460938 35.617188 Z M 25.460938 41.132812 "/>
<path style=" stroke:none;fill-rule:nonzero;fill:rgb(25.490196%,25.490196%,25.490196%);fill-opacity:1;" d="M 39.140625 24.691406 L 53.921875 24.691406 C 56.082031 24.703125 57.84375 26.40625 57.953125 28.546875 L 57.960938 28.765625 L 57.960938 30.097656 C 57.960938 30.976562 57.679688 31.832031 57.152344 32.539062 C 57.625 33.171875 57.902344 33.929688 57.953125 34.714844 L 57.960938 34.980469 L 57.960938 36.316406 C 57.960938 38.484375 56.269531 40.257812 54.136719 40.378906 L 53.921875 40.382812 L 39.140625 40.382812 L 39.140625 37.132812 L 53.921875 37.132812 C 54.328125 37.132812 54.667969 36.828125 54.722656 36.433594 L 54.730469 36.324219 L 54.730469 34.988281 C 54.730469 34.578125 54.425781 34.238281 54.03125 34.183594 L 53.921875 34.175781 L 41.085938 34.175781 L 41.085938 30.910156 L 53.921875 30.910156 C 54.332031 30.910156 54.667969 30.601562 54.722656 30.207031 L 54.730469 30.097656 L 54.730469 28.765625 C 54.734375 28.347656 54.429688 28 54.03125 27.941406 L 53.921875 27.929688 L 39.140625 27.929688 L 39.140625 24.691406 L 53.921875 24.691406 Z M 67.589844 24.691406 L 68.542969 24.691406 C 69.25 24.707031 69.917969 24.988281 70.425781 25.480469 L 70.570312 25.632812 L 76.308594 31.796875 L 82.0625 25.617188 C 82.53125 25.09375 83.175781 24.769531 83.863281 24.703125 L 84.074219 24.691406 L 85.042969 24.691406 C 86.144531 24.691406 87.042969 25.546875 87.125 26.628906 L 87.132812 26.796875 L 87.132812 40.382812 L 83.917969 40.382812 L 83.917969 28.359375 L 77.785156 35.007812 C 77.417969 35.453125 76.871094 35.710938 76.296875 35.707031 C 75.785156 35.707031 75.300781 35.5 74.941406 35.136719 L 74.816406 34.996094 L 68.722656 28.382812 L 68.722656 40.382812 L 65.488281 40.382812 L 65.488281 26.796875 C 65.496094 25.6875 66.347656 24.78125 67.425781 24.699219 L 67.589844 24.691406 L 68.542969 24.691406 Z M 109.441406 24.691406 C 111.675781 24.703125 113.484375 26.523438 113.480469 28.765625 L 113.480469 36.316406 C 113.484375 38.554688 111.675781 40.375 109.441406 40.382812 L 94.660156 40.382812 L 94.660156 24.691406 Z M 109.441406 27.929688 L 97.90625 27.929688 L 97.90625 37.125 L 109.441406 37.125 C 109.886719 37.125 110.25 36.761719 110.25 36.316406 L 110.25 28.765625 C 110.253906 28.3125 109.894531 27.9375 109.441406 27.929688 Z M 109.441406 27.929688 "/>
</g>
</svg>
