<?xml version="1.0" encoding="UTF-8"?>
<svg xmlns="http://www.w3.org/2000/svg" xmlns:xlink="http://www.w3.org/1999/xlink" width="px" height="px" viewBox="0 0 120 66" version="1.1">
<g id="surface1">
<path style=" stroke:none;fill-rule:nonzero;fill:rgb(25.490196%,25.490196%,25.490196%);fill-opacity:1;" d="M 54.1875 42.6875 L 53.351562 40.589844 L 49.15625 40.589844 L 48.371094 42.6875 L 45.542969 42.6875 L 50.050781 31.945312 L 52.566406 31.945312 L 57.019531 42.6875 Z M 51.308594 34.828125 L 49.945312 38.496094 L 52.667969 38.496094 Z M 51.308594 34.828125 "/>
<path style=" stroke:none;fill-rule:nonzero;fill:rgb(25.490196%,25.490196%,25.490196%);fill-opacity:1;" d="M 62.625 42.894531 C 61.734375 42.894531 60.898438 42.527344 60.320312 41.847656 L 60.269531 41.847656 L 60.269531 46.355469 L 57.753906 46.355469 L 57.753906 35.140625 L 60.109375 35.140625 L 60.109375 36.03125 L 60.269531 36.03125 C 60.84375 35.296875 61.734375 34.878906 62.679688 34.878906 C 64.878906 34.878906 66.242188 36.710938 66.242188 38.859375 C 66.242188 41.007812 64.933594 42.894531 62.625 42.894531 Z M 62.050781 36.972656 C 61 37.027344 60.214844 37.863281 60.214844 38.914062 C 60.164062 39.960938 60.949219 40.800781 61.996094 40.851562 C 61.996094 40.851562 61.996094 40.851562 62.050781 40.851562 C 63.046875 40.851562 63.832031 40.015625 63.832031 39.019531 C 63.832031 38.964844 63.832031 38.914062 63.832031 38.859375 C 63.882812 37.863281 63.148438 37.027344 62.207031 36.921875 C 62.15625 36.972656 62.101562 36.972656 62.050781 36.972656 Z M 62.050781 36.972656 "/>
<path style=" stroke:none;fill-rule:nonzero;fill:rgb(25.490196%,25.490196%,25.490196%);fill-opacity:1;" d="M 71.691406 42.894531 C 70.800781 42.894531 69.960938 42.527344 69.386719 41.847656 L 69.386719 46.355469 L 66.871094 46.355469 L 66.871094 35.140625 L 69.230469 35.140625 L 69.230469 36.03125 L 69.28125 36.03125 C 69.859375 35.296875 70.75 34.878906 71.691406 34.878906 C 73.894531 34.878906 75.253906 36.710938 75.253906 38.859375 C 75.253906 41.007812 74 42.894531 71.691406 42.894531 Z M 71.117188 36.972656 C 70.066406 37.027344 69.28125 37.863281 69.28125 38.914062 C 69.230469 39.960938 70.015625 40.800781 71.0625 40.851562 C 71.0625 40.851562 71.0625 40.851562 71.117188 40.851562 C 72.113281 40.851562 72.898438 40.015625 72.898438 39.019531 C 72.898438 38.964844 72.898438 38.914062 72.898438 38.859375 C 73.003906 37.863281 72.269531 37.027344 71.273438 36.921875 C 71.21875 36.972656 71.167969 36.921875 71.117188 36.972656 Z M 71.117188 36.972656 "/>
<path style=" stroke:none;fill-rule:nonzero;fill:rgb(25.490196%,25.490196%,25.490196%);fill-opacity:1;" d="M 80.757812 37.339844 C 80.339844 36.921875 79.761719 36.660156 79.1875 36.660156 C 78.714844 36.660156 78.242188 36.816406 78.242188 37.289062 C 78.242188 37.761719 78.664062 37.8125 79.605469 38.074219 C 80.757812 38.335938 82.015625 38.914062 82.015625 40.382812 C 82.015625 42.320312 80.339844 42.949219 78.769531 42.949219 C 77.5625 43 76.355469 42.582031 75.464844 41.796875 L 76.882812 40.328125 C 77.351562 40.851562 78.035156 41.167969 78.714844 41.167969 C 79.132812 41.167969 79.605469 41.011719 79.605469 40.484375 C 79.605469 39.960938 79.132812 39.855469 78.085938 39.59375 C 77.039062 39.332031 75.886719 38.808594 75.886719 37.394531 C 75.886719 35.558594 77.613281 34.878906 79.03125 34.878906 C 80.128906 34.824219 81.230469 35.191406 82.070312 35.925781 Z M 80.757812 37.339844 "/>
<path style=" stroke:none;fill-rule:nonzero;fill:rgb(25.490196%,25.490196%,25.490196%);fill-opacity:1;" d="M 88.566406 43 C 85.265625 43 82.804688 40.695312 82.804688 37.289062 C 82.804688 33.882812 85.371094 31.628906 88.621094 31.628906 C 90.140625 31.628906 91.765625 32.152344 92.65625 33.199219 L 90.875 34.980469 C 90.347656 34.351562 89.5625 33.988281 88.726562 33.988281 C 86.941406 33.988281 85.632812 35.402344 85.632812 37.289062 C 85.632812 39.175781 86.890625 40.589844 88.671875 40.589844 C 89.5625 40.640625 90.402344 40.222656 90.980469 39.488281 L 92.761719 41.21875 C 91.710938 42.371094 90.140625 43.054688 88.566406 43 Z M 88.566406 43 "/>
<path style=" stroke:none;fill-rule:nonzero;fill:rgb(25.490196%,25.490196%,25.490196%);fill-opacity:1;" d="M 97.058594 42.949219 C 94.753906 42.949219 92.863281 41.375 92.863281 38.859375 C 92.863281 36.34375 94.753906 34.878906 97.058594 34.878906 C 99.363281 34.878906 101.25 36.398438 101.25 38.859375 C 101.25 41.324219 99.363281 42.949219 97.058594 42.949219 Z M 97.058594 36.972656 C 96.0625 36.972656 95.277344 37.8125 95.277344 38.808594 C 95.277344 38.859375 95.277344 38.914062 95.277344 38.914062 C 95.171875 39.910156 95.90625 40.800781 96.902344 40.851562 C 97.894531 40.957031 98.785156 40.222656 98.839844 39.226562 C 98.839844 39.121094 98.839844 39.019531 98.839844 38.914062 C 98.890625 37.917969 98.160156 37.027344 97.109375 36.972656 C 97.164062 36.972656 97.109375 36.972656 97.058594 36.972656 Z M 97.058594 36.972656 "/>
<path style=" stroke:none;fill-rule:nonzero;fill:rgb(80%,80%,80%);fill-opacity:1;" d="M 36.421875 20.101562 C 36.316406 19.941406 36.109375 19.941406 36.054688 20.101562 L 25.890625 42.320312 C 25.835938 42.476562 25.890625 42.632812 26.097656 42.582031 L 38.625 42.582031 C 38.832031 42.582031 39.042969 42.476562 39.148438 42.269531 L 44.808594 29.953125 C 44.859375 29.742188 44.859375 29.53125 44.703125 29.375 Z M 36.421875 20.101562 "/>
<path style=" stroke:none;fill-rule:nonzero;fill:rgb(0%,0%,0%);fill-opacity:1;" d="M 21.015625 33.515625 L 26.464844 21.570312 L 25.15625 19.996094 C 25 19.839844 24.839844 19.839844 24.789062 19.996094 L 18.761719 33.253906 C 18.710938 33.414062 18.761719 33.570312 18.917969 33.621094 L 18.972656 33.621094 Z M 21.015625 33.515625 "/>
<path style=" stroke:none;fill-rule:nonzero;fill:rgb(25.490196%,25.490196%,25.490196%);fill-opacity:1;" d="M 28.089844 19.996094 L 20.804688 35.980469 C 20.703125 36.136719 20.804688 36.242188 21.015625 36.242188 L 23.636719 36.136719 L 30.132812 21.988281 L 28.457031 19.996094 C 28.351562 19.835938 28.195312 19.835938 28.089844 19.996094 Z M 28.089844 19.996094 "/>
<path style=" stroke:none;fill-rule:nonzero;fill:rgb(59.607843%,59.607843%,59.607843%);fill-opacity:1;" d="M 31.863281 20.152344 L 23.269531 39.019531 C 23.21875 39.175781 23.269531 39.28125 23.480469 39.28125 L 26.414062 39.175781 L 34.011719 22.40625 L 32.179688 20.152344 C 32.074219 19.996094 31.917969 19.996094 31.863281 20.152344 Z M 31.863281 20.152344 "/>
</g>
</svg>
