<?xml version="1.0" encoding="UTF-8"?>
<svg xmlns="http://www.w3.org/2000/svg" xmlns:xlink="http://www.w3.org/1999/xlink" width="px" height="px" viewBox="0 0 120 66" version="1.1">
<g id="surface1">
<path style=" stroke:none;fill-rule:nonzero;fill:rgb(25.490196%,25.490196%,25.490196%);fill-opacity:1;" d="M 79.066406 20.25 C 79.066406 20.25 77.320312 20.945312 75.285156 23.1875 C 73.253906 25.425781 72.070312 27.945312 72.945312 28.617188 C 73.28125 28.871094 74.058594 28.917969 75.464844 27.644531 C 76.765625 26.515625 77.785156 25.101562 78.445312 23.515625 C 79.355469 21.296875 79.066406 20.277344 79.066406 20.253906 Z M 90.191406 24.28125 C 87.933594 23.121094 86.28125 21.703125 84.566406 20.824219 C 82.925781 19.984375 81.867188 19.632812 80.542969 19.808594 C 80.355469 19.84375 80.175781 19.890625 79.996094 19.945312 C 79.996094 19.945312 80.675781 22.277344 77.964844 26.191406 C 75.214844 30.160156 72.71875 30.132812 72.007812 29.042969 C 71.265625 27.890625 72.226562 25.546875 73.828125 23.460938 C 75.503906 21.277344 78.453125 19.464844 78.453125 19.464844 C 78.453125 19.464844 77.511719 18.890625 75.207031 20.199219 C 72.953125 21.46875 69.082031 24.503906 65.484375 29.613281 C 61.890625 34.726562 61.175781 37.542969 60.660156 39.753906 C 60.144531 41.96875 60.613281 44.34375 63.070312 44.34375 C 65.527344 44.34375 68.382812 40.597656 69.191406 39.292969 C 70.691406 36.871094 71.667969 33.148438 69.628906 33.660156 C 68.621094 33.914062 67.808594 35.023438 67.292969 36.097656 C 66.96875 36.785156 66.722656 37.507812 66.554688 38.25 C 65.84375 38.542969 65.171875 38.933594 64.566406 39.40625 C 63.886719 39.90625 63.257812 40.464844 62.675781 41.074219 C 62.675781 41.074219 62.683594 39.304688 64.097656 36.4375 C 65.507812 33.574219 68.097656 32.265625 69.566406 32.144531 C 70.886719 32.039062 72.609375 33.160156 71.148438 37.296875 C 69.691406 41.433594 65.390625 46.464844 60.871094 46.527344 C 56.699219 46.585938 53.972656 41.265625 59.777344 31.976562 C 66.199219 21.714844 73.734375 18.566406 76.183594 18.21875 C 78.628906 17.867188 79.425781 18.945312 79.425781 18.945312 C 80.898438 18.34375 82.488281 18.078125 84.078125 18.179688 C 87.0625 18.382812 89.375 20.496094 92.425781 21.980469 C 91.632812 22.738281 90.875 23.535156 90.191406 24.28125 Z M 103.613281 20.824219 C 101.542969 22.152344 98.679688 23.359375 95.925781 23.101562 C 95.226562 23.820312 94.484375 24.652344 93.734375 25.5625 C 98.507812 26.507812 102.691406 23.550781 104.914062 21.03125 C 105.726562 20.128906 106.421875 19.125 106.988281 18.050781 C 105.976562 19.105469 104.84375 20.035156 103.613281 20.824219 Z M 97.257812 34.273438 C 97.292969 34.210938 97.320312 34.144531 97.34375 34.074219 C 97.328125 33.964844 97.277344 33.867188 97.199219 33.789062 C 97.121094 33.714844 97.015625 33.667969 96.90625 33.65625 C 96.453125 33.636719 95.832031 33.722656 94.207031 35.523438 C 92.855469 37.011719 91.695312 38.65625 90.746094 40.429688 C 89.816406 42.128906 89.4375 43.398438 89.972656 43.722656 C 90.148438 43.8125 90.347656 43.835938 90.539062 43.78125 C 90.902344 43.695312 91.3125 43.355469 91.9375 42.632812 C 92.226562 42.292969 92.554688 41.8125 92.941406 41.28125 C 94.015625 39.816406 96.722656 35.207031 97.257812 34.273438 Z M 80.359375 36.234375 C 80.632812 35.523438 80.976562 34.128906 80.257812 33.582031 C 79.488281 33.003906 77.519531 34.367188 77.507812 35.761719 C 77.496094 37.195312 78.894531 37.839844 79.230469 37.933594 C 79.421875 37.984375 79.488281 37.976562 79.582031 37.824219 C 79.878906 37.3125 80.136719 36.78125 80.359375 36.234375 Z M 78.871094 38.835938 C 78.382812 38.609375 77.929688 38.320312 77.519531 37.972656 C 77.109375 37.628906 76.765625 37.210938 76.507812 36.742188 C 76.480469 36.695312 76.453125 36.730469 76.421875 36.769531 C 76.394531 36.8125 76.269531 36.921875 75.222656 38.460938 C 74.171875 39.996094 72.5625 43.179688 74.019531 43.722656 C 74.953125 44.070312 76.507812 42.4375 77.355469 41.351562 C 77.933594 40.59375 78.457031 39.800781 78.921875 38.96875 C 78.964844 38.875 78.921875 38.855469 78.875 38.835938 Z M 95.414062 42.515625 C 95.019531 43.148438 94.566406 44.363281 95.871094 43.605469 C 97.460938 42.6875 99.730469 39.246094 99.730469 39.246094 L 100.761719 39.246094 C 99.824219 40.683594 98.78125 42.054688 97.640625 43.335938 C 96.027344 45.125 94.058594 46.75 92.671875 46.589844 C 91.050781 46.402344 91.558594 44.273438 91.558594 44.273438 C 91.558594 44.273438 89.242188 46.742188 87.636719 46.566406 C 85.472656 46.324219 86.132812 43.648438 86.132812 43.648438 C 86.132812 43.648438 83.683594 46.652344 82.011719 46.5625 C 79.398438 46.410156 80.054688 43.226562 80.78125 40.984375 C 81.171875 39.785156 81.53125 38.84375 81.53125 38.84375 C 81.53125 38.84375 81.273438 38.914062 80.714844 38.996094 C 80.425781 39.039062 79.894531 39.066406 79.894531 39.066406 C 79.894531 39.066406 78.804688 40.988281 77.933594 42.144531 C 77.0625 43.300781 73.355469 47.28125 71.175781 46.484375 C 69.160156 45.746094 69.828125 42.660156 71 40.207031 C 72.714844 36.632812 77.53125 31.496094 80.308594 32.175781 C 83.1875 32.875 80.375 38.128906 80.375 38.128906 C 80.375 38.128906 80.375 38.148438 80.40625 38.164062 C 80.460938 38.183594 80.613281 38.199219 80.960938 38.132812 C 81.320312 38.058594 81.671875 37.953125 82.011719 37.820312 C 82.011719 37.820312 84.910156 31.753906 88.105469 27.789062 C 91.304688 23.820312 97.683594 16.988281 100.191406 18.640625 C 100.796875 19.046875 100.523438 20.445312 99.699219 22.144531 C 99.328125 22.265625 98.949219 22.367188 98.566406 22.449219 C 99.121094 21.445312 99.484375 20.601562 99.59375 20.011719 C 99.972656 17.960938 95.183594 22.285156 91.765625 26.929688 C 89.707031 29.730469 87.875 32.691406 86.292969 35.789062 C 86.910156 35.410156 87.5 34.988281 88.058594 34.527344 C 89.582031 33.261719 91.035156 31.910156 92.398438 30.472656 C 93.714844 29.128906 94.949219 27.703125 96.09375 26.207031 C 96.460938 26.191406 96.820312 26.152344 97.183594 26.097656 C 95.933594 27.792969 94.570312 29.402344 93.105469 30.914062 C 91.738281 32.292969 90.265625 33.777344 88.980469 34.855469 C 87.835938 35.828125 86.628906 36.726562 85.363281 37.542969 C 85.363281 37.542969 82.375 43.574219 84 43.960938 C 84.957031 44.191406 86.84375 41.28125 86.84375 41.28125 C 86.84375 41.28125 89.3125 37.519531 90.796875 35.824219 C 92.820312 33.519531 94.566406 32.1875 96.308594 32.164062 C 97.324219 32.144531 97.925781 33.222656 97.925781 33.222656 L 98.402344 32.484375 L 101.34375 32.484375 C 101.34375 32.484375 95.851562 41.804688 95.410156 42.503906 Z M 103.613281 20.824219 C 101.542969 22.152344 98.675781 23.359375 95.925781 23.101562 C 95.226562 23.820312 94.480469 24.652344 93.734375 25.5625 C 98.507812 26.507812 102.6875 23.550781 104.914062 21.03125 C 105.722656 20.128906 106.421875 19.125 106.988281 18.050781 C 105.976562 19.105469 104.84375 20.035156 103.613281 20.824219 Z M 62.3125 25.398438 L 59.515625 25.398438 L 57.9375 27.953125 L 60.734375 27.953125 Z M 49.070312 34.242188 C 50.261719 32.613281 53.542969 26.894531 53.542969 26.894531 C 53.53125 26.785156 53.480469 26.683594 53.398438 26.609375 C 53.320312 26.53125 53.21875 26.484375 53.109375 26.476562 C 52.652344 26.457031 51.894531 26.609375 50.390625 28.492188 C 48.886719 30.378906 47.714844 31.875 46.863281 33.4375 C 45.929688 35.136719 45.523438 36.339844 46.058594 36.664062 C 46.234375 36.753906 46.433594 36.773438 46.621094 36.722656 C 46.96875 36.632812 47.425781 36.285156 48.054688 35.566406 C 48.347656 35.226562 48.679688 34.773438 49.070312 34.242188 Z M 34.066406 26.511719 C 33.292969 25.929688 31.324219 27.292969 31.316406 28.6875 C 31.304688 30.121094 33.085938 30.558594 33.316406 30.570312 C 33.382812 30.574219 33.449219 30.5625 33.511719 30.527344 C 33.550781 30.503906 33.582031 30.46875 33.605469 30.425781 C 33.8125 30.015625 34 29.59375 34.167969 29.160156 C 34.4375 28.453125 34.785156 27.058594 34.066406 26.511719 Z M 32.898438 31.441406 C 32.367188 31.277344 31.855469 31.042969 31.382812 30.746094 C 30.925781 30.445312 30.550781 30.035156 30.300781 29.546875 C 30.273438 29.5 30.242188 29.535156 30.214844 29.578125 C 30.1875 29.617188 30.03125 29.816406 28.980469 31.359375 C 27.925781 32.902344 26.367188 36.058594 27.828125 36.601562 C 28.757812 36.953125 30.332031 35.304688 31.183594 34.222656 C 31.824219 33.375 32.414062 32.492188 32.953125 31.578125 C 32.988281 31.484375 32.953125 31.464844 32.902344 31.449219 Z M 55.742188 32.394531 L 56.765625 32.394531 C 56.765625 32.394531 51.632812 39.820312 48.730469 39.476562 C 47.113281 39.285156 47.59375 37.289062 47.59375 37.289062 C 47.59375 37.289062 45.320312 39.949219 43.230469 39.410156 C 41.335938 38.921875 42.558594 35.773438 42.558594 35.773438 C 42.34375 35.859375 38.242188 40.480469 35.363281 39.371094 C 32.347656 38.207031 33.914062 34.339844 34.484375 33.175781 C 34.972656 32.191406 35.511719 31.238281 35.511719 31.238281 C 35.511719 31.238281 35.046875 31.367188 34.753906 31.433594 C 34.457031 31.503906 34.03125 31.585938 34.03125 31.585938 C 34.03125 31.585938 32.605469 33.90625 31.730469 35.0625 C 30.859375 36.21875 27.15625 40.191406 24.972656 39.402344 C 22.789062 38.609375 23.332031 35.554688 24.558594 33.128906 C 26.546875 29.195312 31.265625 24.363281 34.105469 25.097656 C 36.976562 25.828125 34.601562 30.484375 34.601562 30.484375 C 34.601562 30.484375 35.171875 30.558594 36.542969 29.625 C 38.511719 28.28125 41.113281 24.664062 43.929688 25.089844 C 45.257812 25.289062 46.496094 26.644531 44.804688 29.222656 C 44.261719 30.050781 43.359375 30.789062 42.664062 30.058594 C 42.234375 29.601562 42.609375 28.773438 43.0625 28.207031 C 43.242188 27.976562 43.472656 27.792969 43.734375 27.671875 C 44 27.550781 44.289062 27.496094 44.578125 27.511719 C 44.578125 27.511719 45.046875 26.453125 43.863281 26.464844 C 42.902344 26.484375 40.476562 28.71875 39.109375 30.972656 C 37.855469 33.042969 35.953125 36.570312 37.863281 37.339844 C 39.613281 38.046875 42.945312 34.089844 44.488281 32.019531 C 46.03125 29.945312 49.546875 25.25 52.496094 25.0625 C 53.511719 24.996094 54.117188 25.921875 54.117188 25.921875 L 54.457031 25.382812 L 57.410156 25.382812 C 57.410156 25.382812 51.851562 34.652344 51.417969 35.355469 C 51.078125 35.902344 50.625 37.136719 51.875 36.445312 C 53.125 35.753906 55.742188 32.394531 55.742188 32.394531 Z M 54.136719 47.25 C 51.964844 45.746094 49.363281 44.984375 46.722656 45.085938 C 46.007812 45.105469 45.308594 45.292969 44.679688 45.632812 C 44.050781 45.972656 43.511719 46.457031 43.105469 47.046875 C 41.980469 45.082031 39.757812 43.878906 36.320312 43.90625 C 30.765625 43.96875 25.253906 46.53125 20.890625 46.527344 C 16.707031 46.527344 13.652344 43.898438 13.753906 39.226562 C 13.9375 31.03125 20.863281 23.648438 26.03125 20.328125 C 29.011719 18.421875 31.503906 17.855469 33.132812 18.035156 C 34.320312 18.167969 35.75 19.542969 34.847656 21.566406 C 33.523438 24.523438 31.695312 24.28125 31.761719 22.867188 C 31.800781 21.945312 32.414062 21.367188 32.875 21.046875 C 33.164062 20.847656 33.683594 20.789062 33.953125 20.78125 C 34.214844 20.5625 34.40625 18.941406 32.285156 19.472656 C 30.164062 20.007812 27.585938 22.097656 25.140625 24.800781 C 22.691406 27.503906 18.882812 32.613281 17.941406 37.976562 C 17.503906 40.464844 17.789062 45 23.6875 44.949219 C 28.691406 44.90625 36.0625 41.613281 42.839844 41.683594 C 45.46875 41.707031 47.757812 42.417969 49.542969 43.519531 C 51.296875 44.597656 53.394531 46.171875 54.140625 47.25 "/>
</g>
</svg>
