<?xml version="1.0" encoding="UTF-8"?>
<svg xmlns="http://www.w3.org/2000/svg" xmlns:xlink="http://www.w3.org/1999/xlink" width="px" height="px" viewBox="0 0 120 66" version="1.1">
<defs>
<clipPath id="clip1">
  <path d="M 4.6875 21.75 L 27 21.75 L 27 44.25 L 4.6875 44.25 Z M 4.6875 21.75 "/>
</clipPath>
<clipPath id="clip2">
  <path d="M 105 27 L 115.3125 27 L 115.3125 41 L 105 41 Z M 105 27 "/>
</clipPath>
</defs>
<g id="surface1">
<g clip-path="url(#clip1)" clip-rule="nonzero">
<path style=" stroke:none;fill-rule:nonzero;fill:rgb(25.490196%,25.490196%,25.490196%);fill-opacity:1;" d="M 25.867188 30.628906 L 15.761719 40.730469 L 8.207031 33.175781 L 15.855469 25.527344 L 18.40625 28.078125 L 13.023438 33.460938 L 15.574219 36.011719 L 20.957031 30.628906 L 23.410156 28.171875 L 23.503906 28.078125 L 18.027344 22.601562 C 16.894531 21.464844 15.003906 21.464844 13.777344 22.601562 L 5.75 30.628906 C 4.335938 32.042969 4.335938 34.308594 5.75 35.632812 L 13.304688 43.1875 C 14.722656 44.605469 16.988281 44.605469 18.3125 43.1875 L 25.867188 35.632812 C 27.1875 34.308594 27.1875 32.042969 25.867188 30.628906 Z M 25.867188 30.628906 "/>
</g>
<path style=" stroke:none;fill-rule:nonzero;fill:rgb(25.490196%,25.490196%,25.490196%);fill-opacity:1;" d="M 32.289062 33.367188 C 32.382812 34.78125 33.609375 35.539062 34.835938 35.539062 C 35.875 35.539062 36.539062 35.066406 37.007812 34.3125 L 39.183594 34.3125 C 38.804688 35.253906 38.144531 36.011719 37.386719 36.578125 C 36.632812 37.050781 35.78125 37.332031 34.835938 37.332031 C 32.097656 37.332031 30.117188 35.160156 30.117188 32.609375 C 30.117188 30.0625 32.097656 27.890625 34.742188 27.890625 C 36.066406 27.890625 37.199219 28.363281 38.046875 29.210938 C 39.085938 30.34375 39.558594 31.761719 39.371094 33.273438 L 32.289062 33.273438 Z M 37.386719 31.667969 C 37.292969 30.816406 36.441406 29.683594 34.835938 29.683594 C 33.230469 29.683594 32.382812 30.816406 32.289062 31.667969 Z M 37.386719 31.667969 "/>
<path style=" stroke:none;fill-rule:nonzero;fill:rgb(25.490196%,25.490196%,25.490196%);fill-opacity:1;" d="M 44.09375 30.535156 C 44.09375 30.0625 43.808594 29.589844 43.054688 29.589844 C 42.296875 29.589844 42.015625 30.0625 42.015625 30.4375 C 42.015625 31.003906 42.675781 31.289062 43.527344 31.570312 C 44.941406 31.949219 46.453125 32.421875 46.546875 34.3125 C 46.546875 36.105469 45.035156 37.332031 43.148438 37.332031 C 41.730469 37.332031 39.9375 36.578125 39.75 34.5 L 41.824219 34.5 C 41.921875 35.445312 42.769531 35.632812 43.148438 35.632812 C 43.808594 35.632812 44.375 35.160156 44.375 34.59375 C 44.375 33.839844 43.714844 33.648438 42.109375 33.082031 C 40.882812 32.707031 39.9375 32.042969 39.9375 30.722656 C 39.9375 28.929688 41.449219 27.890625 43.148438 27.890625 C 44.375 27.890625 46.167969 28.457031 46.265625 30.535156 Z M 44.09375 30.535156 "/>
<path style=" stroke:none;fill-rule:nonzero;fill:rgb(25.490196%,25.490196%,25.490196%);fill-opacity:1;" d="M 56.371094 37.046875 L 54.292969 37.046875 L 54.292969 35.726562 C 53.726562 36.765625 52.496094 37.238281 51.269531 37.238281 C 48.4375 37.238281 46.738281 35.066406 46.738281 32.515625 C 46.738281 29.683594 48.71875 27.792969 51.269531 27.792969 C 52.875 27.792969 53.914062 28.644531 54.292969 29.398438 L 54.292969 28.078125 L 56.371094 28.078125 Z M 48.910156 32.703125 C 48.910156 33.839844 49.664062 35.441406 51.648438 35.441406 C 52.875 35.441406 53.628906 34.78125 54.007812 34.027344 C 54.195312 33.648438 54.292969 33.175781 54.386719 32.800781 C 54.386719 32.421875 54.292969 31.949219 54.101562 31.570312 C 53.726562 30.722656 52.875 29.964844 51.648438 29.964844 C 49.851562 29.871094 48.910156 31.289062 48.910156 32.703125 Z M 48.910156 32.703125 "/>
<path style=" stroke:none;fill-rule:nonzero;fill:rgb(25.490196%,25.490196%,25.490196%);fill-opacity:1;" d="M 66.757812 36.011719 C 66.757812 37.425781 66.472656 38.371094 65.90625 39.128906 C 65.152344 40.164062 63.640625 40.921875 61.847656 40.921875 C 59.105469 40.921875 57.785156 39.316406 57.40625 37.898438 L 59.863281 37.898438 C 60.050781 38.277344 60.429688 38.65625 60.808594 38.84375 C 61.28125 39.128906 61.75 39.128906 61.941406 39.128906 C 63.167969 39.128906 64.585938 38.277344 64.585938 36.484375 L 64.585938 35.726562 C 64.113281 36.484375 63.167969 37.332031 61.65625 37.332031 C 59.105469 37.332031 57.125 35.351562 57.125 32.609375 C 57.125 29.683594 59.203125 27.890625 61.65625 27.890625 C 62.980469 27.890625 64.019531 28.457031 64.585938 29.304688 L 64.585938 28.078125 L 66.757812 28.078125 Z M 59.390625 32.609375 C 59.390625 34.121094 60.523438 35.351562 62.035156 35.351562 C 62.789062 35.351562 63.453125 35.066406 63.921875 34.59375 C 64.394531 34.121094 64.679688 33.460938 64.679688 32.707031 C 64.679688 32.042969 64.492188 31.289062 64.019531 30.816406 C 63.640625 30.25 62.980469 29.964844 62.035156 29.964844 C 60.523438 29.871094 59.390625 31.003906 59.390625 32.609375 Z M 59.390625 32.609375 "/>
<path style=" stroke:none;fill-rule:nonzero;fill:rgb(25.490196%,25.490196%,25.490196%);fill-opacity:1;" d="M 77.144531 37.046875 L 75.066406 37.046875 L 75.066406 35.726562 C 74.5 36.765625 73.273438 37.238281 72.046875 37.238281 C 69.210938 37.238281 67.511719 35.066406 67.511719 32.515625 C 67.511719 29.683594 69.496094 27.792969 72.046875 27.792969 C 73.652344 27.792969 74.691406 28.644531 75.066406 29.398438 L 75.066406 28.078125 L 77.144531 28.078125 Z M 69.683594 32.703125 C 69.683594 33.839844 70.441406 35.441406 72.421875 35.441406 C 73.652344 35.441406 74.40625 34.78125 74.785156 34.027344 C 74.972656 33.648438 75.066406 33.175781 75.160156 32.800781 C 75.160156 32.421875 75.066406 31.949219 74.878906 31.570312 C 74.5 30.722656 73.652344 29.964844 72.421875 29.964844 C 70.628906 29.871094 69.683594 31.289062 69.683594 32.703125 Z M 69.683594 32.703125 "/>
<path style=" stroke:none;fill-rule:nonzero;fill:rgb(25.490196%,25.490196%,25.490196%);fill-opacity:1;" d="M 78.46875 28.171875 L 80.449219 28.171875 L 80.449219 29.304688 C 80.640625 28.929688 81.488281 27.890625 83 27.890625 C 83.757812 27.890625 84.511719 28.078125 85.171875 28.832031 C 85.359375 29.023438 85.550781 29.398438 85.738281 29.683594 C 85.929688 29.398438 86.117188 29.117188 86.398438 28.832031 C 86.96875 28.363281 87.722656 27.984375 88.667969 27.984375 C 89.421875 27.984375 90.367188 28.171875 91.027344 28.832031 C 91.878906 29.683594 91.972656 30.4375 91.972656 32.234375 L 91.972656 37.144531 L 89.894531 37.144531 L 89.894531 32.328125 C 89.894531 31.761719 89.800781 31.101562 89.515625 30.722656 C 89.328125 30.25 88.855469 29.964844 88.097656 29.964844 C 87.34375 29.964844 86.871094 30.25 86.589844 30.816406 C 86.304688 31.289062 86.304688 31.761719 86.304688 32.328125 L 86.304688 37.238281 L 84.226562 37.238281 L 84.226562 32.328125 C 84.226562 31.855469 84.132812 31.289062 83.945312 30.816406 C 83.660156 30.34375 83.285156 29.964844 82.527344 29.964844 C 81.773438 29.964844 81.300781 30.34375 81.015625 30.816406 C 80.734375 31.289062 80.640625 31.855469 80.640625 32.328125 L 80.640625 37.144531 L 78.5625 37.144531 L 78.5625 28.171875 Z M 78.46875 28.171875 "/>
<path style=" stroke:none;fill-rule:nonzero;fill:rgb(25.490196%,25.490196%,25.490196%);fill-opacity:1;" d="M 93.292969 25.054688 L 95.371094 25.054688 L 95.371094 26.945312 L 93.292969 26.945312 Z M 93.292969 28.171875 L 95.371094 28.171875 L 95.371094 37.050781 L 93.292969 37.050781 Z M 93.292969 28.171875 "/>
<path style=" stroke:none;fill-rule:nonzero;fill:rgb(25.490196%,25.490196%,25.490196%);fill-opacity:1;" d="M 96.695312 28.171875 L 98.675781 28.171875 C 98.675781 28.550781 98.675781 28.925781 98.675781 29.398438 C 99.054688 28.738281 99.90625 27.886719 101.414062 27.984375 C 104.34375 27.984375 104.816406 30.25 104.816406 31.761719 L 104.816406 37.144531 L 102.738281 37.144531 L 102.738281 32.328125 C 102.738281 31.003906 102.265625 29.964844 100.847656 29.964844 C 99.335938 29.964844 98.867188 31.003906 98.867188 32.234375 L 98.867188 37.144531 L 96.789062 37.144531 L 96.789062 28.171875 Z M 96.695312 28.171875 "/>
<g clip-path="url(#clip2)" clip-rule="nonzero">
<path style=" stroke:none;fill-rule:nonzero;fill:rgb(25.490196%,25.490196%,25.490196%);fill-opacity:1;" d="M 115.203125 36.011719 C 115.203125 37.425781 114.921875 38.371094 114.355469 39.128906 C 113.597656 40.164062 112.085938 40.921875 110.292969 40.921875 C 107.554688 40.921875 106.230469 39.316406 105.855469 37.898438 L 108.308594 37.898438 C 108.5 38.277344 108.875 38.65625 109.253906 38.84375 C 109.726562 39.128906 110.199219 39.128906 110.386719 39.128906 C 111.613281 39.128906 113.03125 38.277344 113.03125 36.484375 L 113.03125 35.726562 C 112.558594 36.484375 111.613281 37.332031 110.105469 37.332031 C 107.554688 37.332031 105.570312 35.351562 105.570312 32.609375 C 105.570312 29.683594 107.648438 27.890625 110.105469 27.890625 C 111.425781 27.890625 112.464844 28.457031 113.03125 29.304688 L 113.03125 28.078125 L 115.203125 28.078125 Z M 107.742188 32.609375 C 107.742188 34.121094 108.875 35.351562 110.386719 35.351562 C 111.140625 35.351562 111.804688 35.066406 112.277344 34.59375 C 112.75 34.121094 113.03125 33.460938 113.03125 32.707031 C 113.03125 32.042969 112.84375 31.289062 112.371094 30.816406 C 111.992188 30.25 111.332031 29.964844 110.386719 29.964844 C 108.96875 29.871094 107.742188 31.003906 107.742188 32.609375 Z M 107.742188 32.609375 "/>
</g>
</g>
</svg>
