<?xml version="1.0" encoding="UTF-8"?>
<svg xmlns="http://www.w3.org/2000/svg" xmlns:xlink="http://www.w3.org/1999/xlink" width="px" height="px" viewBox="0 0 120 66" version="1.1">
<defs>
<clipPath id="clip1">
  <path d="M 21.832031 28 L 37 28 L 37 45.503906 L 21.832031 45.503906 Z M 21.832031 28 "/>
</clipPath>
<clipPath id="clip2">
  <path d="M 56 28 L 60 28 L 60 45.503906 L 56 45.503906 Z M 56 28 "/>
</clipPath>
<clipPath id="clip3">
  <path d="M 37 21.183594 L 55 21.183594 L 55 45.503906 L 37 45.503906 Z M 37 21.183594 "/>
</clipPath>
<clipPath id="clip4">
  <path d="M 77 28 L 81 28 L 81 45.503906 L 77 45.503906 Z M 77 28 "/>
</clipPath>
<clipPath id="clip5">
  <path d="M 62 28 L 74 28 L 74 45.503906 L 62 45.503906 Z M 62 28 "/>
</clipPath>
<clipPath id="clip6">
  <path d="M 84 28 L 93 28 L 93 45.503906 L 84 45.503906 Z M 84 28 "/>
</clipPath>
<clipPath id="clip7">
  <path d="M 94 28 L 97.5 28 L 97.5 32 L 94 32 Z M 94 28 "/>
</clipPath>
</defs>
<g id="surface1">
<g clip-path="url(#clip1)" clip-rule="nonzero">
<path style=" stroke:none;fill-rule:nonzero;fill:rgb(25.490196%,25.490196%,25.490196%);fill-opacity:1;" d="M 34.65625 32.417969 L 34.65625 32.214844 C 34.652344 32.167969 34.640625 32.121094 34.628906 32.074219 C 34.582031 31.890625 34.5 31.714844 34.378906 31.566406 C 34.078125 31.230469 33.671875 31.003906 33.226562 30.921875 C 32.960938 30.863281 32.691406 30.828125 32.417969 30.820312 L 31.757812 30.820312 C 31.699219 30.816406 31.640625 30.824219 31.585938 30.847656 C 31.316406 30.898438 31.054688 30.980469 30.800781 31.089844 C 30.542969 31.199219 30.292969 31.332031 30.058594 31.488281 C 29.566406 31.820312 29.125 32.226562 28.75 32.683594 C 28.355469 33.167969 28.015625 33.695312 27.742188 34.253906 C 27.433594 34.867188 27.183594 35.503906 27 36.164062 C 27.335938 36.132812 27.683594 36.101562 28.046875 36.046875 C 28.28125 36.015625 28.523438 35.976562 28.761719 35.929688 C 28.878906 35.910156 28.996094 35.878906 29.117188 35.855469 L 29.5 35.765625 C 30.582031 35.53125 31.636719 35.179688 32.640625 34.71875 C 33.136719 34.488281 33.59375 34.1875 33.996094 33.820312 C 34.171875 33.660156 34.320312 33.476562 34.441406 33.269531 C 34.550781 33.097656 34.625 32.902344 34.65625 32.699219 C 34.660156 32.648438 34.660156 32.597656 34.65625 32.550781 Z M 36.804688 32.417969 L 36.804688 32.550781 C 36.808594 32.613281 36.800781 32.671875 36.789062 32.730469 C 36.777344 32.847656 36.761719 32.96875 36.734375 33.085938 C 36.636719 33.546875 36.453125 33.988281 36.191406 34.378906 C 35.949219 34.730469 35.65625 35.046875 35.320312 35.316406 C 34.746094 35.785156 34.105469 36.160156 33.421875 36.4375 C 32.269531 36.898438 31.074219 37.238281 29.851562 37.449219 L 29.648438 37.488281 L 29.441406 37.523438 C 29.300781 37.546875 29.15625 37.570312 29.023438 37.585938 C 28.761719 37.625 28.480469 37.648438 28.21875 37.671875 C 27.699219 37.71875 27.214844 37.734375 26.753906 37.738281 L 26.699219 37.738281 L 26.699219 37.761719 C 26.546875 38.84375 26.640625 39.945312 26.976562 40.988281 C 27.128906 41.40625 27.355469 41.792969 27.640625 42.136719 C 27.902344 42.441406 28.222656 42.691406 28.582031 42.871094 C 28.933594 43.046875 29.308594 43.160156 29.695312 43.210938 C 29.746094 43.214844 29.792969 43.222656 29.839844 43.230469 L 30.574219 43.230469 L 30.859375 43.214844 C 31.523438 43.160156 32.175781 43.003906 32.796875 42.757812 C 33.210938 42.589844 33.609375 42.394531 33.996094 42.164062 C 34.128906 42.085938 34.230469 42.019531 34.300781 41.972656 L 34.40625 41.910156 L 34.4375 41.886719 C 34.574219 41.789062 34.742188 41.746094 34.910156 41.765625 C 35.078125 41.789062 35.230469 41.875 35.335938 42.003906 C 35.441406 42.136719 35.496094 42.300781 35.480469 42.46875 C 35.46875 42.636719 35.394531 42.792969 35.269531 42.90625 L 35.167969 43.011719 C 35.105469 43.082031 35.007812 43.1875 34.871094 43.3125 C 34.191406 43.960938 33.402344 44.480469 32.535156 44.847656 C 32.101562 45.035156 31.652344 45.179688 31.1875 45.28125 L 30.804688 45.355469 C 30.671875 45.375 30.527344 45.390625 30.378906 45.410156 L 30.015625 45.441406 L 29.546875 45.441406 C 28.890625 45.429688 28.242188 45.300781 27.632812 45.066406 C 26.945312 44.796875 26.320312 44.390625 25.800781 43.871094 C 25.257812 43.324219 24.824219 42.675781 24.523438 41.964844 C 24.375 41.609375 24.253906 41.246094 24.160156 40.871094 C 24.070312 40.507812 24.003906 40.140625 23.957031 39.765625 C 23.917969 39.386719 23.898438 39.007812 23.898438 38.625 C 23.898438 38.4375 23.898438 38.226562 23.914062 38.035156 L 23.929688 37.773438 L 23.929688 37.597656 L 23.484375 37.535156 L 23.140625 37.472656 L 22.839844 37.410156 C 22.648438 37.375 22.535156 37.339844 22.445312 37.320312 L 22.320312 37.289062 C 22.15625 37.246094 22.015625 37.140625 21.925781 37 C 21.839844 36.855469 21.808594 36.683594 21.847656 36.519531 C 21.882812 36.351562 21.980469 36.210938 22.121094 36.117188 C 22.261719 36.023438 22.433594 35.988281 22.597656 36.015625 L 22.617188 36.015625 L 22.746094 36.042969 C 22.832031 36.042969 22.96875 36.089844 23.117188 36.109375 L 23.378906 36.144531 L 23.699219 36.179688 L 24.1875 36.214844 C 24.257812 35.875 24.34375 35.535156 24.449219 35.203125 C 24.558594 34.824219 24.695312 34.453125 24.84375 34.082031 C 24.988281 33.707031 25.175781 33.34375 25.363281 32.992188 C 25.753906 32.265625 26.222656 31.585938 26.765625 30.964844 C 27.320312 30.316406 27.964844 29.757812 28.679688 29.296875 C 29.449219 28.824219 30.304688 28.515625 31.199219 28.390625 C 31.304688 28.371094 31.441406 28.363281 31.5625 28.355469 L 31.75 28.339844 L 32.21875 28.339844 C 32.332031 28.335938 32.441406 28.34375 32.550781 28.363281 C 32.996094 28.398438 33.433594 28.488281 33.859375 28.625 C 34.304688 28.761719 34.730469 28.960938 35.121094 29.21875 C 35.542969 29.492188 35.90625 29.847656 36.191406 30.265625 C 36.476562 30.6875 36.667969 31.167969 36.75 31.671875 C 36.765625 31.796875 36.785156 31.902344 36.792969 32.042969 L 36.792969 32.421875 Z M 36.804688 32.417969 "/>
</g>
<g clip-path="url(#clip2)" clip-rule="nonzero">
<path style=" stroke:none;fill-rule:nonzero;fill:rgb(25.490196%,25.490196%,25.490196%);fill-opacity:1;" d="M 58.824219 28.636719 C 58.5 28.433594 58.121094 28.332031 57.742188 28.347656 C 57.371094 28.335938 57.007812 28.4375 56.695312 28.636719 C 56.5625 28.714844 56.453125 28.824219 56.378906 28.957031 C 56.300781 29.089844 56.261719 29.242188 56.261719 29.394531 L 56.261719 44.375 C 56.265625 44.527344 56.308594 44.675781 56.386719 44.808594 C 56.460938 44.941406 56.566406 45.050781 56.695312 45.136719 C 57.003906 45.351562 57.375 45.464844 57.753906 45.460938 C 58.132812 45.457031 58.5 45.335938 58.804688 45.117188 C 58.933594 45.039062 59.042969 44.929688 59.121094 44.800781 C 59.199219 44.671875 59.246094 44.527344 59.257812 44.375 L 59.257812 29.394531 C 59.261719 29.242188 59.21875 29.089844 59.144531 28.957031 C 59.066406 28.824219 58.957031 28.710938 58.824219 28.636719 Z M 58.824219 28.636719 "/>
</g>
<g clip-path="url(#clip3)" clip-rule="nonzero">
<path style=" stroke:none;fill-rule:nonzero;fill:rgb(25.490196%,25.490196%,25.490196%);fill-opacity:1;" d="M 53.707031 21.285156 C 53.34375 21.164062 52.953125 21.152344 52.585938 21.253906 C 52.4375 21.292969 52.300781 21.367188 52.1875 21.472656 C 52.078125 21.578125 51.996094 21.710938 51.953125 21.859375 L 50.097656 28.183594 C 50.101562 28.195312 50.101562 28.207031 50.097656 28.21875 L 48.746094 32.816406 L 47.742188 36.21875 L 47.742188 36.238281 L 46.125 41.675781 L 42.324219 28.726562 C 42.324219 28.703125 42.304688 28.675781 42.292969 28.652344 L 40.292969 21.847656 C 40.246094 21.703125 40.167969 21.574219 40.058594 21.46875 C 39.945312 21.363281 39.8125 21.289062 39.664062 21.253906 C 39.296875 21.152344 38.90625 21.160156 38.542969 21.285156 C 38.183594 21.378906 37.863281 21.578125 37.621094 21.855469 C 37.515625 21.96875 37.441406 22.105469 37.40625 22.253906 C 37.371094 22.40625 37.375 22.5625 37.417969 22.707031 L 39.429688 29.535156 L 39.429688 29.574219 L 43.554688 43.589844 L 43.585938 43.6875 C 43.777344 44.207031 44.125 44.652344 44.578125 44.96875 C 45.035156 45.285156 45.574219 45.457031 46.125 45.457031 C 46.679688 45.457031 47.21875 45.285156 47.675781 44.96875 C 48.128906 44.652344 48.472656 44.207031 48.667969 43.6875 L 52.976562 29.066406 C 52.976562 29.035156 52.980469 29.007812 52.992188 28.984375 L 54.839844 22.703125 C 54.886719 22.554688 54.890625 22.398438 54.855469 22.25 C 54.820312 22.101562 54.746094 21.964844 54.640625 21.851562 C 54.394531 21.570312 54.066406 21.375 53.707031 21.285156 Z M 53.707031 21.285156 "/>
</g>
<g clip-path="url(#clip4)" clip-rule="nonzero">
<path style=" stroke:none;fill-rule:nonzero;fill:rgb(25.490196%,25.490196%,25.490196%);fill-opacity:1;" d="M 79.992188 28.636719 C 79.667969 28.433594 79.292969 28.332031 78.910156 28.347656 C 78.539062 28.335938 78.175781 28.4375 77.863281 28.636719 C 77.730469 28.714844 77.621094 28.824219 77.546875 28.957031 C 77.46875 29.089844 77.429688 29.242188 77.429688 29.394531 L 77.429688 44.375 C 77.4375 44.527344 77.476562 44.675781 77.554688 44.808594 C 77.628906 44.941406 77.734375 45.050781 77.863281 45.136719 C 78.171875 45.351562 78.542969 45.464844 78.921875 45.460938 C 79.300781 45.457031 79.667969 45.335938 79.976562 45.117188 C 80.101562 45.039062 80.210938 44.929688 80.289062 44.800781 C 80.367188 44.671875 80.414062 44.527344 80.425781 44.375 L 80.425781 29.394531 C 80.425781 29.242188 80.386719 29.089844 80.3125 28.957031 C 80.234375 28.824219 80.125 28.710938 79.992188 28.636719 Z M 79.992188 28.636719 "/>
</g>
<g clip-path="url(#clip5)" clip-rule="nonzero">
<path style=" stroke:none;fill-rule:nonzero;fill:rgb(25.490196%,25.490196%,25.490196%);fill-opacity:1;" d="M 71.671875 36.726562 L 71.628906 36.699219 C 71.496094 36.605469 71.355469 36.515625 71.210938 36.4375 C 70.582031 36.078125 69.917969 35.796875 69.222656 35.589844 L 68.316406 35.328125 C 65.777344 34.542969 65.777344 33.421875 65.777344 33.050781 C 65.777344 31.59375 67.292969 31.289062 68.5625 31.289062 C 69.742188 31.328125 70.90625 31.589844 71.996094 32.058594 L 72.15625 32.132812 C 72.296875 32.1875 72.449219 32.210938 72.601562 32.195312 C 72.753906 32.179688 72.898438 32.128906 73.027344 32.046875 C 73.347656 31.851562 73.605469 31.558594 73.757812 31.214844 C 73.910156 30.867188 73.949219 30.480469 73.875 30.113281 C 73.855469 29.964844 73.800781 29.820312 73.71875 29.699219 C 73.632812 29.574219 73.523438 29.472656 73.390625 29.398438 C 73.015625 29.195312 72.621094 29.019531 72.21875 28.875 L 72.199219 28.875 L 72.144531 28.855469 L 72.117188 28.855469 C 71.910156 28.785156 71.6875 28.714844 71.433594 28.648438 L 71.300781 28.613281 C 71.070312 28.554688 70.820312 28.503906 70.554688 28.460938 C 70.332031 28.421875 70.101562 28.398438 69.871094 28.375 C 69.78125 28.375 69.703125 28.351562 69.609375 28.34375 C 69.292969 28.316406 68.972656 28.304688 68.640625 28.304688 L 68.570312 28.304688 C 68.253906 28.304688 67.957031 28.320312 67.671875 28.347656 L 67.433594 28.375 C 67.25 28.398438 67.070312 28.425781 66.894531 28.460938 C 66.722656 28.492188 66.617188 28.515625 66.480469 28.550781 L 66.355469 28.585938 C 65.914062 28.695312 65.492188 28.859375 65.09375 29.074219 L 65.109375 29.09375 C 64.398438 29.484375 63.804688 30.058594 63.394531 30.761719 C 62.980469 31.460938 62.769531 32.261719 62.777344 33.074219 C 62.777344 34.464844 63.386719 36.980469 67.472656 38.234375 L 68.378906 38.496094 C 68.550781 38.550781 68.710938 38.605469 68.863281 38.664062 L 68.878906 38.664062 C 69.027344 38.714844 69.160156 38.773438 69.285156 38.828125 C 70.910156 39.566406 70.917969 40.445312 70.917969 40.765625 C 70.917969 42.222656 69.402344 42.527344 68.132812 42.527344 C 66.953125 42.488281 65.785156 42.226562 64.699219 41.757812 L 64.539062 41.683594 C 64.398438 41.628906 64.246094 41.605469 64.09375 41.621094 C 63.941406 41.636719 63.796875 41.6875 63.667969 41.769531 C 63.347656 41.964844 63.09375 42.253906 62.9375 42.597656 C 62.785156 42.941406 62.742188 43.324219 62.816406 43.691406 C 62.835938 43.839844 62.890625 43.984375 62.976562 44.109375 C 63.058594 44.234375 63.171875 44.335938 63.304688 44.40625 C 63.683594 44.609375 64.074219 44.785156 64.480469 44.929688 L 64.492188 44.929688 L 64.546875 44.953125 L 64.574219 44.953125 C 64.78125 45.023438 65.007812 45.09375 65.261719 45.15625 L 65.390625 45.195312 C 65.621094 45.253906 65.871094 45.300781 66.136719 45.347656 C 66.359375 45.382812 66.589844 45.410156 66.820312 45.433594 C 66.910156 45.433594 66.988281 45.457031 67.082031 45.464844 C 67.398438 45.492188 67.71875 45.503906 68.054688 45.503906 L 68.121094 45.503906 C 68.4375 45.503906 68.734375 45.484375 69.019531 45.460938 L 69.257812 45.429688 C 69.441406 45.40625 69.625 45.378906 69.796875 45.347656 C 69.96875 45.3125 70.074219 45.292969 70.210938 45.257812 L 70.335938 45.222656 C 70.777344 45.113281 71.203125 44.949219 71.601562 44.738281 L 71.582031 44.71875 C 72.296875 44.332031 72.890625 43.757812 73.300781 43.054688 C 73.710938 42.355469 73.921875 41.558594 73.914062 40.75 C 73.914062 39.703125 73.570312 38.027344 71.671875 36.726562 Z M 71.671875 36.726562 "/>
</g>
<g clip-path="url(#clip6)" clip-rule="nonzero">
<path style=" stroke:none;fill-rule:nonzero;fill:rgb(25.490196%,25.490196%,25.490196%);fill-opacity:1;" d="M 84.496094 34.359375 C 84.496094 38.226562 84.496094 40.507812 84.515625 40.671875 C 84.550781 41.632812 84.835938 42.566406 85.335938 43.386719 C 86.054688 44.484375 87.207031 45.152344 88.839844 45.429688 C 89.171875 45.503906 89.519531 45.457031 89.816406 45.296875 C 90.050781 45.160156 90.246094 44.96875 90.386719 44.738281 C 90.539062 44.449219 90.585938 44.113281 90.515625 43.789062 C 90.449219 43.46875 90.273438 43.179688 90.015625 42.972656 C 89.824219 42.832031 89.601562 42.738281 89.371094 42.695312 C 88.996094 42.628906 88.640625 42.480469 88.324219 42.265625 C 87.933594 41.972656 87.691406 41.480469 87.578125 40.734375 C 87.546875 40.535156 87.542969 40.140625 87.539062 35.933594 L 87.539062 31.34375 L 92.132812 31.34375 L 92.238281 31.296875 C 92.402344 31.226562 92.546875 31.117188 92.65625 30.972656 C 93.136719 30.332031 93.097656 29.140625 92.574219 28.601562 C 92.511719 28.535156 92.4375 28.476562 92.355469 28.429688 C 92.132812 28.316406 92.378906 28.320312 88.269531 28.320312 L 84.496094 28.320312 Z M 84.496094 34.359375 "/>
</g>
<g clip-path="url(#clip7)" clip-rule="nonzero">
<path style=" stroke:none;fill-rule:nonzero;fill:rgb(25.490196%,25.490196%,25.490196%);fill-opacity:1;" d="M 95.769531 28.320312 C 95.585938 28.359375 95.410156 28.421875 95.246094 28.511719 C 95.136719 28.578125 95.035156 28.660156 94.945312 28.753906 C 94.832031 28.851562 94.742188 28.972656 94.683594 29.109375 C 94.570312 29.320312 94.511719 29.558594 94.515625 29.796875 C 94.515625 30.128906 94.625 30.453125 94.828125 30.714844 C 95.03125 30.976562 95.316406 31.160156 95.636719 31.238281 C 95.878906 31.289062 96.121094 31.289062 96.363281 31.238281 C 96.6875 31.160156 96.976562 30.972656 97.183594 30.710938 C 97.386719 30.449219 97.5 30.125 97.503906 29.789062 C 97.503906 29.585938 97.460938 29.378906 97.378906 29.191406 C 97.296875 29.003906 97.175781 28.832031 97.027344 28.691406 C 96.855469 28.542969 96.65625 28.429688 96.441406 28.367188 C 96.222656 28.300781 95.992188 28.285156 95.769531 28.320312 Z M 96.292969 28.636719 C 96.515625 28.695312 96.714844 28.816406 96.871094 28.984375 C 97.03125 29.152344 97.136719 29.363281 97.175781 29.589844 C 97.226562 29.871094 97.171875 30.160156 97.027344 30.40625 C 96.878906 30.648438 96.648438 30.835938 96.378906 30.921875 C 96.105469 31.011719 95.8125 31.003906 95.546875 30.890625 C 95.285156 30.78125 95.066406 30.582031 94.941406 30.328125 C 94.855469 30.160156 94.8125 29.980469 94.8125 29.792969 C 94.8125 29.609375 94.855469 29.425781 94.941406 29.261719 C 95.023438 29.109375 95.132812 28.976562 95.269531 28.867188 C 95.402344 28.761719 95.558594 28.679688 95.726562 28.636719 C 95.914062 28.605469 96.109375 28.605469 96.300781 28.636719 Z M 96.292969 28.636719 "/>
</g>
<path style=" stroke:none;fill-rule:nonzero;fill:rgb(25.490196%,25.490196%,25.490196%);fill-opacity:1;" d="M 95.375 29.789062 L 95.375 30.488281 L 95.71875 30.488281 L 95.71875 30.011719 L 95.765625 30.011719 C 95.804688 30.011719 95.863281 30.066406 96.027344 30.25 L 96.238281 30.488281 L 96.421875 30.488281 C 96.582031 30.488281 96.625 30.488281 96.617188 30.464844 C 96.609375 30.441406 96.515625 30.34375 96.417969 30.234375 C 96.320312 30.121094 96.234375 30.019531 96.230469 30.011719 C 96.226562 30.003906 96.265625 29.980469 96.3125 29.960938 C 96.375 29.929688 96.429688 29.886719 96.476562 29.832031 C 96.519531 29.773438 96.546875 29.710938 96.5625 29.640625 C 96.574219 29.570312 96.574219 29.5 96.554688 29.433594 C 96.535156 29.363281 96.5 29.300781 96.453125 29.25 C 96.332031 29.117188 96.265625 29.101562 95.78125 29.09375 L 95.363281 29.09375 Z M 96.136719 29.417969 C 96.164062 29.425781 96.191406 29.445312 96.210938 29.46875 C 96.226562 29.492188 96.238281 29.523438 96.238281 29.554688 C 96.238281 29.6875 96.171875 29.722656 95.914062 29.722656 L 95.71875 29.722656 L 95.71875 29.394531 L 95.898438 29.394531 C 95.976562 29.394531 96.054688 29.402344 96.128906 29.417969 Z M 96.136719 29.417969 "/>
</g>
</svg>
