<?xml version="1.0" encoding="UTF-8"?>
<svg xmlns="http://www.w3.org/2000/svg" xmlns:xlink="http://www.w3.org/1999/xlink" width="px" height="px" viewBox="0 0 120 66" version="1.1">
<g id="surface1">
<path style=" stroke:none;fill-rule:nonzero;fill:rgb(25.490196%,25.490196%,25.490196%);fill-opacity:1;" d="M 37.433594 29.804688 C 40.757812 29.203125 43.394531 26.550781 43.992188 23.183594 C 44.082031 22.695312 44.117188 22.207031 44.117188 21.734375 C 44.117188 21.363281 44.09375 20.980469 44.042969 20.59375 L 44.015625 20.453125 L 35.910156 20.453125 L 35.910156 23.015625 L 41.441406 23.015625 L 41.367188 23.273438 C 40.84375 25.140625 39.375 26.628906 37.519531 27.152344 C 36.53125 27.433594 35.476562 27.433594 34.488281 27.152344 C 34.070312 27.039062 33.664062 26.859375 33.28125 26.652344 C 32.382812 26.140625 31.632812 25.398438 31.136719 24.488281 C 30.921875 24.105469 30.757812 23.695312 30.644531 23.273438 C 30.503906 22.773438 30.425781 22.261719 30.425781 21.734375 C 30.425781 21.222656 30.503906 20.695312 30.644531 20.199219 C 31.164062 18.328125 32.636719 16.84375 34.488281 16.316406 C 35.476562 16.035156 36.53125 16.035156 37.519531 16.316406 C 37.851562 16.40625 38.179688 16.535156 38.484375 16.6875 L 38.585938 16.738281 L 40.4375 14.871094 L 40.261719 14.765625 C 39.386719 14.214844 38.433594 13.859375 37.433594 13.664062 C 36.949219 13.574219 36.46875 13.539062 35.996094 13.539062 C 35.527344 13.539062 35.046875 13.574219 34.5625 13.664062 C 31.238281 14.265625 28.601562 16.917969 28.003906 20.289062 C 27.914062 20.773438 27.875 21.261719 27.875 21.734375 C 27.875 22.207031 27.914062 22.695312 28.003906 23.183594 C 28.207031 24.347656 28.664062 25.4375 29.335938 26.410156 C 29.894531 27.203125 30.566406 27.894531 31.355469 28.445312 C 32.316406 29.125 33.398438 29.574219 34.550781 29.792969 C 35.035156 29.878906 35.503906 29.917969 35.984375 29.917969 C 36.480469 29.933594 36.949219 29.894531 37.433594 29.804688 Z M 37.433594 29.804688 "/>
<path style=" stroke:none;fill-rule:nonzero;fill:rgb(25.490196%,25.490196%,25.490196%);fill-opacity:1;" d="M 48.789062 13.613281 L 46.277344 13.613281 L 46.277344 29.933594 L 48.789062 29.933594 Z M 48.789062 13.613281 "/>
<path style=" stroke:none;fill-rule:nonzero;fill:rgb(25.490196%,25.490196%,25.490196%);fill-opacity:1;" d="M 98.910156 13.613281 L 96.398438 13.613281 L 96.398438 29.933594 L 98.910156 29.933594 Z M 98.910156 13.613281 "/>
<path style=" stroke:none;fill-rule:nonzero;fill:rgb(25.490196%,25.490196%,25.490196%);fill-opacity:1;" d="M 28.726562 33.171875 L 21.074219 33.171875 L 21.074219 49.4375 L 23.589844 49.4375 L 23.589844 44.40625 L 28.726562 44.40625 C 30.199219 44.40625 31.59375 43.816406 32.648438 42.753906 C 33.703125 41.691406 34.285156 40.28125 34.285156 38.769531 C 34.285156 37.285156 33.703125 35.875 32.648438 34.8125 C 31.59375 33.75 30.199219 33.171875 28.726562 33.171875 Z M 31.761719 38.769531 C 31.761719 40.472656 30.402344 41.855469 28.726562 41.855469 L 23.589844 41.855469 L 23.589844 35.707031 L 28.726562 35.707031 C 30.402344 35.707031 31.761719 37.078125 31.761719 38.769531 Z M 31.761719 38.769531 "/>
<path style=" stroke:none;fill-rule:nonzero;fill:rgb(25.490196%,25.490196%,25.490196%);fill-opacity:1;" d="M 83.632812 33.171875 L 81.121094 33.171875 L 81.121094 49.492188 L 83.632812 49.492188 Z M 83.632812 33.171875 "/>
<path style=" stroke:none;fill-rule:nonzero;fill:rgb(25.490196%,25.490196%,25.490196%);fill-opacity:1;" d="M 74.484375 16.789062 L 74.460938 16.777344 C 74.382812 16.753906 74.308594 16.726562 74.230469 16.714844 L 74.195312 16.699219 C 74.167969 16.699219 74.15625 16.6875 74.128906 16.6875 C 74.09375 16.675781 74.054688 16.664062 74.003906 16.664062 L 73.914062 16.636719 C 73.875 16.625 73.839844 16.625 73.800781 16.613281 C 73.773438 16.613281 73.761719 16.597656 73.738281 16.597656 L 73.6875 16.585938 C 73.609375 16.574219 73.535156 16.558594 73.457031 16.546875 L 73.417969 16.546875 C 73.203125 16.523438 73 16.496094 72.796875 16.484375 L 72.785156 16.484375 C 72.570312 16.46875 72.339844 16.46875 72.136719 16.484375 L 72.113281 16.484375 C 72.011719 16.484375 71.921875 16.496094 71.820312 16.507812 C 71.796875 16.507812 71.78125 16.507812 71.757812 16.523438 L 71.71875 16.523438 C 71.644531 16.535156 71.566406 16.535156 71.503906 16.546875 C 71.464844 16.558594 71.414062 16.558594 71.363281 16.574219 C 71.3125 16.585938 71.261719 16.585938 71.199219 16.597656 C 71.136719 16.613281 71.070312 16.625 71.019531 16.636719 C 70.984375 16.648438 70.957031 16.648438 70.917969 16.664062 C 70.84375 16.675781 70.769531 16.699219 70.691406 16.726562 L 70.667969 16.738281 C 69.816406 16.984375 69.027344 17.394531 68.332031 17.945312 L 68.332031 13.613281 L 65.820312 13.613281 L 65.820312 23.117188 C 65.820312 23.144531 65.820312 23.183594 65.820312 23.207031 C 65.820312 25.128906 66.644531 26.960938 68.066406 28.242188 L 68.332031 28.484375 L 68.332031 28.472656 C 69.027344 29.035156 69.816406 29.433594 70.667969 29.6875 L 70.691406 29.703125 C 70.769531 29.726562 70.84375 29.738281 70.917969 29.765625 L 71.019531 29.792969 C 71.085938 29.804688 71.148438 29.816406 71.199219 29.828125 C 71.25 29.84375 71.300781 29.855469 71.363281 29.855469 L 71.390625 29.855469 C 71.425781 29.867188 71.464844 29.867188 71.503906 29.867188 C 71.578125 29.878906 71.65625 29.894531 71.71875 29.894531 L 71.746094 29.894531 C 71.769531 29.894531 71.78125 29.894531 71.808594 29.90625 C 71.910156 29.917969 72 29.917969 72.101562 29.933594 L 72.125 29.933594 C 72.238281 29.933594 72.355469 29.945312 72.457031 29.945312 L 72.46875 29.945312 C 72.570312 29.945312 72.671875 29.945312 72.785156 29.933594 L 72.796875 29.933594 C 73 29.917969 73.214844 29.90625 73.433594 29.867188 L 73.46875 29.867188 C 73.546875 29.855469 73.621094 29.84375 73.710938 29.828125 L 73.75 29.816406 C 73.773438 29.816406 73.789062 29.804688 73.8125 29.804688 C 73.851562 29.792969 73.890625 29.792969 73.925781 29.777344 L 74.015625 29.753906 C 74.054688 29.738281 74.09375 29.738281 74.128906 29.726562 C 74.15625 29.726562 74.167969 29.714844 74.195312 29.714844 L 74.230469 29.703125 C 74.308594 29.675781 74.382812 29.664062 74.460938 29.636719 L 74.484375 29.625 C 76.566406 28.972656 78.191406 27.320312 78.835938 25.21875 L 78.835938 25.207031 C 78.863281 25.128906 78.890625 25.050781 78.902344 24.976562 L 78.914062 24.9375 C 78.914062 24.925781 78.925781 24.898438 78.925781 24.886719 C 78.941406 24.847656 78.953125 24.808594 78.953125 24.757812 L 78.976562 24.667969 C 78.988281 24.628906 78.988281 24.589844 79.003906 24.550781 C 79.003906 24.527344 79.015625 24.515625 79.015625 24.488281 L 79.027344 24.425781 C 79.039062 24.359375 79.054688 24.285156 79.066406 24.21875 L 79.066406 24.167969 C 79.078125 24.078125 79.09375 23.976562 79.105469 23.886719 L 79.105469 23.875 C 79.117188 23.757812 79.117188 23.65625 79.128906 23.539062 C 79.128906 23.527344 79.128906 23.503906 79.128906 23.488281 L 79.128906 23.464844 C 79.128906 23.375 79.128906 23.296875 79.128906 23.207031 C 79.140625 20.25 77.277344 17.675781 74.484375 16.789062 Z M 76.628906 23.195312 C 76.628906 25.511719 74.765625 27.382812 72.480469 27.382812 C 70.210938 27.382812 68.355469 25.5 68.355469 23.195312 C 68.355469 20.902344 70.210938 19.03125 72.480469 19.03125 C 74.765625 19.03125 76.628906 20.902344 76.628906 23.195312 Z M 76.628906 23.195312 "/>
<path style=" stroke:none;fill-rule:nonzero;fill:rgb(25.490196%,25.490196%,25.490196%);fill-opacity:1;" d="M 79.140625 42.597656 C 79.140625 42.585938 79.140625 42.5625 79.140625 42.546875 C 79.140625 42.445312 79.128906 42.328125 79.117188 42.214844 C 79.101562 42.113281 79.089844 42.023438 79.078125 41.933594 L 79.078125 41.882812 C 79.066406 41.816406 79.054688 41.742188 79.039062 41.675781 L 79.027344 41.613281 C 79.027344 41.585938 79.015625 41.574219 79.015625 41.546875 C 79.003906 41.511719 79.003906 41.472656 78.988281 41.433594 L 78.964844 41.34375 C 78.949219 41.304688 78.949219 41.265625 78.9375 41.214844 C 78.9375 41.203125 78.925781 41.175781 78.925781 41.164062 L 78.914062 41.125 C 78.886719 41.050781 78.875 40.972656 78.851562 40.894531 L 78.835938 40.871094 C 78.191406 38.769531 76.554688 37.128906 74.472656 36.464844 L 74.460938 36.464844 C 74.382812 36.4375 74.308594 36.414062 74.230469 36.398438 L 74.191406 36.386719 C 74.167969 36.386719 74.15625 36.375 74.128906 36.375 C 74.089844 36.363281 74.054688 36.363281 74.015625 36.347656 L 73.925781 36.324219 C 73.886719 36.308594 73.851562 36.308594 73.800781 36.296875 C 73.773438 36.296875 73.761719 36.285156 73.734375 36.285156 L 73.699219 36.273438 C 73.621094 36.257812 73.546875 36.246094 73.457031 36.234375 L 73.417969 36.234375 C 73.203125 36.207031 73 36.183594 72.785156 36.167969 L 72.773438 36.167969 C 72.554688 36.15625 72.339844 36.15625 72.125 36.167969 L 72.097656 36.167969 C 71.996094 36.167969 71.910156 36.183594 71.808594 36.195312 C 71.78125 36.195312 71.769531 36.195312 71.742188 36.207031 L 71.707031 36.207031 C 71.628906 36.21875 71.554688 36.21875 71.488281 36.234375 C 71.453125 36.234375 71.402344 36.246094 71.351562 36.257812 C 71.300781 36.273438 71.25 36.273438 71.183594 36.285156 C 71.121094 36.296875 71.058594 36.308594 71.007812 36.324219 C 70.96875 36.335938 70.945312 36.335938 70.90625 36.347656 C 70.828125 36.363281 70.753906 36.386719 70.679688 36.414062 L 70.652344 36.425781 C 69.800781 36.667969 69.015625 37.078125 68.316406 37.628906 L 68.316406 37.617188 L 68.050781 37.859375 C 66.617188 39.140625 65.804688 40.972656 65.804688 42.894531 C 65.804688 42.90625 65.804688 42.933594 65.804688 42.945312 L 65.804688 52.5 L 68.316406 52.5 L 68.316406 48.132812 C 69.015625 48.695312 69.800781 49.09375 70.652344 49.335938 L 70.679688 49.347656 C 70.753906 49.375 70.828125 49.386719 70.90625 49.414062 C 70.945312 49.425781 70.96875 49.425781 71.007812 49.4375 C 71.070312 49.453125 71.132812 49.464844 71.199219 49.476562 C 71.25 49.488281 71.300781 49.503906 71.363281 49.503906 L 71.386719 49.503906 C 71.425781 49.515625 71.464844 49.515625 71.503906 49.515625 C 71.578125 49.527344 71.65625 49.542969 71.71875 49.542969 L 71.757812 49.542969 C 71.78125 49.542969 71.792969 49.542969 71.820312 49.554688 C 71.921875 49.566406 72.011719 49.566406 72.113281 49.578125 L 72.136719 49.578125 C 72.351562 49.59375 72.554688 49.59375 72.785156 49.578125 L 72.796875 49.578125 C 73 49.566406 73.214844 49.554688 73.417969 49.515625 L 73.457031 49.515625 C 73.53125 49.503906 73.609375 49.488281 73.683594 49.476562 L 73.722656 49.464844 C 73.75 49.464844 73.761719 49.453125 73.785156 49.453125 C 73.824219 49.4375 73.875 49.4375 73.914062 49.425781 L 74.003906 49.398438 C 74.039062 49.386719 74.078125 49.386719 74.128906 49.375 C 74.15625 49.375 74.167969 49.363281 74.191406 49.363281 L 74.230469 49.347656 C 74.308594 49.324219 74.382812 49.3125 74.460938 49.285156 L 74.484375 49.273438 C 77.277344 48.386719 79.140625 45.8125 79.140625 42.867188 C 79.140625 42.777344 79.140625 42.703125 79.140625 42.613281 Z M 76.628906 42.894531 C 76.628906 45.1875 74.765625 47.054688 72.480469 47.054688 C 70.207031 47.054688 68.355469 45.1875 68.355469 42.894531 C 68.355469 40.574219 70.207031 38.707031 72.480469 38.707031 C 74.765625 38.691406 76.628906 40.574219 76.628906 42.894531 Z M 76.628906 42.894531 "/>
<path style=" stroke:none;fill-rule:nonzero;fill:rgb(25.490196%,25.490196%,25.490196%);fill-opacity:1;" d="M 87.425781 29.929688 C 87.453125 29.929688 87.476562 29.929688 87.503906 29.929688 L 87.566406 29.929688 C 87.628906 29.929688 87.679688 29.929688 87.746094 29.929688 C 87.820312 29.929688 87.910156 29.917969 87.984375 29.917969 L 88.050781 29.917969 C 88.136719 29.90625 88.238281 29.894531 88.328125 29.878906 L 88.339844 29.878906 C 89.519531 29.714844 90.636719 29.238281 91.578125 28.484375 L 91.578125 29.945312 L 94.089844 29.945312 L 94.089844 23.207031 C 94.089844 21.285156 93.265625 19.453125 91.84375 18.171875 L 91.578125 17.929688 L 91.578125 17.941406 C 90.636719 17.1875 89.519531 16.714844 88.339844 16.546875 L 88.316406 16.546875 C 88.226562 16.535156 88.136719 16.519531 88.035156 16.519531 L 87.972656 16.519531 C 87.898438 16.507812 87.808594 16.507812 87.730469 16.507812 C 87.667969 16.507812 87.605469 16.507812 87.542969 16.507812 L 87.503906 16.507812 C 87.476562 16.507812 87.453125 16.507812 87.425781 16.507812 C 83.761719 16.507812 80.777344 19.519531 80.777344 23.21875 C 80.777344 23.320312 80.777344 23.425781 80.789062 23.539062 L 80.789062 23.550781 C 80.804688 23.757812 80.816406 23.976562 80.855469 24.191406 L 80.855469 24.230469 C 80.867188 24.308594 80.878906 24.386719 80.890625 24.449219 L 80.90625 24.5 C 80.90625 24.527344 80.917969 24.539062 80.917969 24.566406 C 80.929688 24.601562 80.929688 24.640625 80.941406 24.691406 L 80.96875 24.78125 C 80.980469 24.820312 80.980469 24.859375 80.992188 24.898438 C 80.992188 24.921875 81.007812 24.9375 81.007812 24.960938 L 81.019531 25 C 81.042969 25.078125 81.058594 25.152344 81.082031 25.230469 L 81.09375 25.257812 C 81.957031 28.035156 84.507812 29.929688 87.425781 29.929688 Z M 87.425781 19.03125 C 89.722656 19.03125 91.578125 20.902344 91.578125 23.195312 C 91.578125 25.511719 89.710938 27.382812 87.425781 27.382812 C 85.15625 27.382812 83.304688 25.5 83.304688 23.195312 C 83.289062 20.902344 85.144531 19.03125 87.425781 19.03125 Z M 87.425781 19.03125 "/>
<path style=" stroke:none;fill-rule:nonzero;fill:rgb(25.490196%,25.490196%,25.490196%);fill-opacity:1;" d="M 42.230469 36.15625 C 40.453125 36.15625 38.789062 36.859375 37.535156 38.128906 C 36.277344 39.398438 35.578125 41.089844 35.578125 42.867188 C 35.578125 44.675781 36.277344 46.363281 37.535156 47.632812 C 38.789062 48.902344 40.464844 49.605469 42.230469 49.605469 C 43.320312 49.605469 44.398438 49.347656 45.324219 48.851562 C 45.996094 48.492188 46.632812 47.992188 47.152344 47.414062 L 47.28125 47.273438 L 45.222656 45.777344 L 45.121094 45.878906 C 44.832031 46.160156 44.5 46.402344 44.144531 46.609375 C 43.546875 46.914062 42.890625 47.082031 42.214844 47.082031 C 40.414062 47.082031 38.828125 45.890625 38.28125 44.160156 L 48.890625 44.160156 L 48.890625 42.894531 C 48.890625 41.101562 48.191406 39.421875 46.9375 38.15625 C 45.691406 36.847656 44.019531 36.15625 42.230469 36.15625 Z M 42.230469 38.691406 C 44.042969 38.691406 45.628906 39.871094 46.1875 41.585938 L 38.308594 41.585938 C 38.839844 39.871094 40.425781 38.691406 42.230469 38.691406 Z M 42.230469 38.691406 "/>
<path style=" stroke:none;fill-rule:nonzero;fill:rgb(25.490196%,25.490196%,25.490196%);fill-opacity:1;" d="M 92.25 36.15625 C 90.472656 36.15625 88.8125 36.859375 87.554688 38.128906 C 86.296875 39.398438 85.601562 41.089844 85.601562 42.867188 C 85.601562 44.675781 86.296875 46.363281 87.554688 47.632812 C 88.8125 48.902344 90.484375 49.605469 92.25 49.605469 C 93.339844 49.605469 94.417969 49.347656 95.347656 48.851562 C 96.019531 48.492188 96.652344 47.992188 97.171875 47.414062 L 97.300781 47.273438 L 95.246094 45.777344 L 95.144531 45.878906 C 94.851562 46.160156 94.519531 46.402344 94.167969 46.609375 C 93.570312 46.914062 92.910156 47.082031 92.238281 47.082031 C 90.433594 47.082031 88.847656 45.890625 88.304688 44.160156 L 98.914062 44.160156 L 98.914062 42.894531 C 98.914062 41.101562 98.214844 39.421875 96.957031 38.15625 C 95.714844 36.847656 94.039062 36.15625 92.25 36.15625 Z M 92.25 38.691406 C 94.0625 38.691406 95.652344 39.871094 96.210938 41.585938 L 88.328125 41.585938 C 88.863281 39.871094 90.449219 38.691406 92.25 38.691406 Z M 92.25 38.691406 "/>
<path style=" stroke:none;fill-rule:nonzero;fill:rgb(25.490196%,25.490196%,25.490196%);fill-opacity:1;" d="M 56.085938 29.804688 L 56.085938 27.179688 C 54.371094 26.628906 53.203125 25.011719 53.203125 23.183594 C 53.203125 21.363281 54.386719 19.761719 56.085938 19.210938 L 56.085938 16.609375 C 54.777344 16.867188 53.585938 17.496094 52.632812 18.457031 C 51.378906 19.722656 50.679688 21.414062 50.679688 23.195312 C 50.679688 25 51.378906 26.691406 52.632812 27.960938 C 53.585938 28.921875 54.777344 29.5625 56.085938 29.804688 Z M 56.085938 29.804688 "/>
<path style=" stroke:none;fill-rule:nonzero;fill:rgb(25.490196%,25.490196%,25.490196%);fill-opacity:1;" d="M 61.492188 23.195312 C 61.492188 25.027344 60.3125 26.628906 58.609375 27.179688 L 58.609375 29.804688 C 59.917969 29.546875 61.109375 28.921875 62.0625 27.960938 C 63.320312 26.691406 64.015625 25 64.015625 23.195312 C 64.015625 21.402344 63.320312 19.722656 62.0625 18.457031 C 61.109375 17.496094 59.929688 16.867188 58.609375 16.609375 L 58.609375 19.238281 C 60.3125 19.789062 61.492188 21.375 61.492188 23.195312 Z M 61.492188 23.195312 "/>
<path style=" stroke:none;fill-rule:nonzero;fill:rgb(25.490196%,25.490196%,25.490196%);fill-opacity:1;" d="M 57.355469 47.054688 C 55.539062 47.054688 53.941406 45.863281 53.394531 44.136719 L 50.792969 44.136719 C 51.046875 45.46875 51.667969 46.671875 52.621094 47.632812 C 53.875 48.902344 55.550781 49.605469 57.339844 49.605469 C 59.117188 49.605469 60.78125 48.902344 62.035156 47.632812 C 62.988281 46.671875 63.621094 45.46875 63.863281 44.136719 L 61.261719 44.136719 C 60.742188 45.863281 59.15625 47.054688 57.355469 47.054688 Z M 57.355469 47.054688 "/>
<path style=" stroke:none;fill-rule:nonzero;fill:rgb(25.490196%,25.490196%,25.490196%);fill-opacity:1;" d="M 57.355469 38.691406 C 59.15625 38.691406 60.742188 39.871094 61.277344 41.585938 L 63.875 41.585938 C 63.625 40.269531 63 39.078125 62.050781 38.117188 C 60.792969 36.847656 59.117188 36.144531 57.355469 36.144531 C 55.566406 36.144531 53.890625 36.847656 52.632812 38.117188 C 51.683594 39.078125 51.0625 40.269531 50.808594 41.585938 L 53.410156 41.585938 C 53.941406 39.871094 55.539062 38.691406 57.355469 38.691406 Z M 57.355469 38.691406 "/>
</g>
</svg>
