<?xml version="1.0" encoding="UTF-8"?>
<svg xmlns="http://www.w3.org/2000/svg" xmlns:xlink="http://www.w3.org/1999/xlink" width="px" height="px" viewBox="0 0 120 66" version="1.1">
<defs>
<clipPath id="clip1">
  <path d="M 5.25 22.910156 L 31 22.910156 L 31 43 L 5.25 43 Z M 5.25 22.910156 "/>
</clipPath>
<clipPath id="clip2">
  <path d="M 102 28 L 115.5 28 L 115.5 38 L 102 38 Z M 102 28 "/>
</clipPath>
</defs>
<g id="surface1">
<g clip-path="url(#clip1)" clip-rule="nonzero">
<path style=" stroke:none;fill-rule:evenodd;fill:rgb(25.490196%,25.490196%,25.490196%);fill-opacity:1;" d="M 24.460938 35.25 L 25.175781 35.25 C 25.644531 35.25 26.027344 34.886719 26.027344 34.4375 C 26.027344 33.988281 25.644531 33.621094 25.175781 33.621094 L 24.460938 33.621094 C 23.992188 33.621094 23.609375 33.988281 23.609375 34.4375 C 23.609375 34.886719 23.992188 35.25 24.460938 35.25 Z M 26.664062 27.109375 L 28.121094 27.109375 C 29.351562 27.109375 30.351562 28.058594 30.351562 29.230469 L 30.351562 40.585938 C 30.351562 41.757812 29.351562 42.707031 28.121094 42.707031 L 15.628906 42.707031 C 14.398438 42.707031 13.402344 41.757812 13.402344 40.585938 L 13.402344 38.507812 L 15.863281 38.507812 C 16.359375 38.507812 16.757812 38.101562 16.710938 37.621094 C 16.671875 37.191406 16.269531 36.878906 15.816406 36.878906 L 12.269531 36.878906 C 11.773438 36.878906 11.375 36.472656 11.417969 35.992188 C 11.457031 35.5625 11.863281 35.25 12.3125 35.25 L 19.257812 35.25 C 19.757812 35.25 20.152344 34.847656 20.109375 34.363281 C 20.070312 33.9375 19.664062 33.621094 19.214844 33.621094 L 9.1875 33.621094 C 8.691406 33.621094 8.292969 33.21875 8.335938 32.734375 C 8.375 32.308594 8.78125 31.996094 9.230469 31.996094 L 13.996094 31.996094 C 14.492188 31.996094 14.890625 31.589844 14.847656 31.109375 C 14.808594 30.679688 14.402344 30.367188 13.953125 30.367188 L 6.105469 30.367188 C 5.605469 30.367188 5.210938 29.960938 5.253906 29.480469 C 5.292969 29.050781 5.699219 28.738281 6.148438 28.738281 L 19.257812 28.738281 C 19.757812 28.738281 20.152344 28.332031 20.109375 27.851562 C 20.070312 27.421875 19.664062 27.109375 19.214844 27.109375 L 13.402344 27.109375 L 13.402344 25.035156 C 13.402344 23.863281 14.398438 22.910156 15.628906 22.910156 L 23.558594 22.910156 C 24.789062 22.910156 25.789062 23.863281 25.789062 25.035156 L 25.789062 26.273438 C 25.789062 26.734375 26.179688 27.109375 26.664062 27.109375 Z M 7.726562 36.878906 L 8.441406 36.878906 C 8.910156 36.878906 9.292969 36.515625 9.292969 36.0625 C 9.292969 35.613281 8.910156 35.25 8.441406 35.25 L 7.726562 35.25 C 7.257812 35.25 6.875 35.613281 6.875 36.0625 C 6.875 36.515625 7.257812 36.878906 7.726562 36.878906 Z M 7.726562 36.878906 "/>
</g>
<path style=" stroke:none;fill-rule:evenodd;fill:rgb(25.490196%,25.490196%,25.490196%);fill-opacity:1;" d="M 40.355469 37.4375 L 42.148438 37.4375 L 42.148438 28.199219 L 40.355469 28.199219 Z M 40.355469 37.4375 "/>
<path style=" stroke:none;fill-rule:evenodd;fill:rgb(25.490196%,25.490196%,25.490196%);fill-opacity:1;" d="M 47.886719 30.652344 C 47.015625 30.652344 46.238281 30.984375 45.554688 31.648438 L 45.332031 30.652344 L 43.945312 30.652344 L 43.945312 37.433594 L 45.738281 37.433594 L 45.738281 32.699219 C 46.292969 32.257812 46.863281 32.035156 47.445312 32.035156 C 48.226562 32.035156 48.617188 32.410156 48.617188 33.160156 L 48.617188 37.433594 L 50.414062 37.433594 L 50.414062 33.160156 C 50.414062 31.488281 49.570312 30.652344 47.886719 30.652344 Z M 47.886719 30.652344 "/>
<path style=" stroke:none;fill-rule:evenodd;fill:rgb(25.490196%,25.490196%,25.490196%);fill-opacity:1;" d="M 54.535156 35.394531 L 52.808594 30.652344 L 50.914062 30.652344 L 53.628906 37.433594 L 55.335938 37.433594 L 58.230469 30.652344 L 56.332031 30.652344 Z M 54.535156 35.394531 "/>
<path style=" stroke:none;fill-rule:evenodd;fill:rgb(25.490196%,25.490196%,25.490196%);fill-opacity:1;" d="M 62.097656 36.347656 C 60.945312 36.347656 60.367188 35.640625 60.367188 34.222656 C 60.367188 32.839844 60.945312 32.148438 62.097656 32.148438 C 63.246094 32.148438 63.824219 32.839844 63.824219 34.222656 C 63.824219 35.640625 63.246094 36.347656 62.097656 36.347656 Z M 62.097656 30.839844 C 59.746094 30.839844 58.574219 31.976562 58.574219 34.25 C 58.582031 36.519531 59.757812 37.652344 62.097656 37.652344 C 64.445312 37.652344 65.617188 36.519531 65.617188 34.25 C 65.617188 31.976562 64.445312 30.839844 62.097656 30.839844 Z M 62.097656 30.839844 "/>
<path style=" stroke:none;fill-rule:evenodd;fill:rgb(25.490196%,25.490196%,25.490196%);fill-opacity:1;" d="M 66.699219 37.433594 L 68.496094 37.433594 L 68.496094 30.652344 L 66.699219 30.652344 Z M 66.699219 37.433594 "/>
<path style=" stroke:none;fill-rule:evenodd;fill:rgb(25.490196%,25.490196%,25.490196%);fill-opacity:1;" d="M 66.699219 29.554688 L 68.496094 29.554688 L 68.496094 28.199219 L 66.699219 28.199219 Z M 66.699219 29.554688 "/>
<path style=" stroke:none;fill-rule:evenodd;fill:rgb(25.490196%,25.490196%,25.490196%);fill-opacity:1;" d="M 69.886719 34.121094 C 69.886719 36.46875 71.152344 37.640625 73.679688 37.640625 C 74.3125 37.640625 74.921875 37.574219 75.511719 37.445312 L 75.511719 36.089844 C 74.921875 36.21875 74.359375 36.285156 73.816406 36.285156 C 72.394531 36.285156 71.683594 35.5625 71.683594 34.121094 C 71.683594 32.851562 72.394531 32.214844 73.816406 32.214844 C 74.359375 32.214844 74.921875 32.277344 75.511719 32.410156 L 75.511719 31.050781 C 74.921875 30.921875 74.3125 30.859375 73.679688 30.859375 C 71.152344 30.859375 69.886719 31.945312 69.886719 34.121094 Z M 81.042969 33.660156 L 78.007812 33.660156 C 78.089844 32.6875 78.605469 32.203125 79.550781 32.203125 C 80.546875 32.203125 81.042969 32.671875 81.042969 33.609375 Z M 79.550781 30.859375 C 77.324219 30.859375 76.210938 31.960938 76.210938 34.171875 C 76.210938 36.484375 77.503906 37.640625 80.082031 37.640625 C 80.980469 37.640625 81.742188 37.574219 82.371094 37.445312 L 82.371094 36.089844 C 81.652344 36.21875 80.933594 36.285156 80.21875 36.285156 C 78.742188 36.285156 78.007812 35.804688 78.007812 34.851562 L 82.730469 34.851562 C 82.769531 34.570312 82.792969 34.289062 82.792969 34.011719 C 82.792969 31.910156 81.710938 30.859375 79.550781 30.859375 Z M 88.59375 32.394531 L 88.59375 35.871094 C 88.191406 36.101562 87.710938 36.21875 87.148438 36.21875 C 86.035156 36.21875 85.476562 35.546875 85.476562 34.199219 C 85.476562 32.894531 86.121094 32.242188 87.40625 32.242188 C 87.769531 32.242188 88.164062 32.292969 88.59375 32.394531 Z M 83.703125 34.210938 C 83.703125 36.496094 84.78125 37.640625 86.941406 37.640625 C 87.554688 37.640625 88.105469 37.53125 88.59375 37.316406 L 88.59375 40.09375 L 90.386719 40.09375 L 90.386719 31.136719 C 89.308594 30.949219 88.308594 30.859375 87.394531 30.859375 C 84.933594 30.859375 83.703125 31.976562 83.703125 34.210938 Z M 96.535156 35.59375 C 95.929688 36.035156 95.335938 36.257812 94.753906 36.257812 C 94.066406 36.257812 93.722656 35.882812 93.722656 35.132812 L 93.722656 30.859375 L 91.925781 30.859375 L 91.925781 35.179688 C 91.925781 36.820312 92.65625 37.640625 94.109375 37.640625 C 95.027344 37.640625 95.894531 37.351562 96.710938 36.773438 L 96.929688 37.640625 L 98.332031 37.640625 L 98.332031 30.859375 L 96.535156 30.859375 Z M 96.535156 35.59375 "/>
<path style=" stroke:none;fill-rule:evenodd;fill:rgb(25.490196%,25.490196%,25.490196%);fill-opacity:1;" d="M 99.722656 29.554688 L 101.515625 29.554688 L 101.515625 28.199219 L 99.722656 28.199219 Z M 99.722656 29.554688 "/>
<path style=" stroke:none;fill-rule:evenodd;fill:rgb(25.490196%,25.490196%,25.490196%);fill-opacity:1;" d="M 99.722656 37.433594 L 101.515625 37.433594 L 101.515625 30.652344 L 99.722656 30.652344 Z M 99.722656 37.433594 "/>
<g clip-path="url(#clip2)" clip-rule="nonzero">
<path style=" stroke:none;fill-rule:evenodd;fill:rgb(25.490196%,25.490196%,25.490196%);fill-opacity:1;" d="M 102.746094 33.914062 C 102.746094 36.261719 104.007812 37.4375 106.539062 37.4375 C 107.171875 37.4375 107.78125 37.371094 108.367188 37.242188 L 108.367188 35.886719 C 107.78125 36.015625 107.214844 36.078125 106.675781 36.078125 C 105.25 36.078125 104.539062 35.359375 104.539062 33.914062 C 104.539062 32.644531 105.25 32.011719 106.675781 32.011719 C 107.214844 32.011719 107.78125 32.074219 108.367188 32.203125 L 108.367188 30.847656 C 107.78125 30.71875 107.171875 30.652344 106.539062 30.652344 C 104.007812 30.652344 102.746094 31.742188 102.746094 33.914062 Z M 115.5 31.820312 L 113.410156 31.820312 C 113.410156 31.820312 111.785156 33.851562 111.355469 34.390625 L 111.359375 28.199219 L 109.5625 28.199219 L 109.5625 37.4375 L 111.351562 37.4375 L 111.351562 34.859375 L 113.410156 37.4375 L 115.5 37.4375 L 113.285156 34.628906 Z M 115.5 31.820312 "/>
</g>
</g>
</svg>
