<?xml version="1.0" encoding="UTF-8"?>
<svg xmlns="http://www.w3.org/2000/svg" xmlns:xlink="http://www.w3.org/1999/xlink" width="px" height="px" viewBox="0 0 120 66" version="1.1">
<defs>
<clipPath id="clip1">
  <path d="M 108 30 L 116.25 30 L 116.25 39 L 108 39 Z M 108 30 "/>
</clipPath>
<clipPath id="clip2">
  <path d="M 4.5 20.480469 L 30 20.480469 L 30 46 L 4.5 46 Z M 4.5 20.480469 "/>
</clipPath>
</defs>
<g id="surface1">
<path style=" stroke:none;fill-rule:nonzero;fill:rgb(25.490196%,25.490196%,25.490196%);fill-opacity:1;" d="M 43.28125 27.851562 L 41.125 27.851562 L 41.125 38.410156 L 43.28125 38.410156 Z M 43.28125 27.851562 "/>
<path style=" stroke:none;fill-rule:nonzero;fill:rgb(25.490196%,25.490196%,25.490196%);fill-opacity:1;" d="M 52.734375 28.832031 C 52.417969 28.519531 52.039062 28.273438 51.625 28.109375 C 51.160156 27.933594 50.664062 27.847656 50.164062 27.855469 L 45.265625 27.855469 L 45.265625 38.414062 L 47.421875 38.414062 L 47.421875 34.5 L 50.164062 34.5 C 50.664062 34.507812 51.160156 34.421875 51.628906 34.253906 C 52.039062 34.105469 52.414062 33.875 52.738281 33.578125 C 53.046875 33.289062 53.285156 32.9375 53.445312 32.546875 C 53.613281 32.125 53.695312 31.679688 53.691406 31.226562 C 53.695312 30.773438 53.613281 30.324219 53.445312 29.902344 C 53.28125 29.503906 53.039062 29.140625 52.734375 28.832031 Z M 51.339844 32.402344 C 51.019531 32.71875 50.496094 32.878906 49.785156 32.878906 L 47.421875 32.878906 L 47.421875 29.5 L 49.785156 29.5 C 50.496094 29.5 51.019531 29.65625 51.339844 29.96875 C 51.5 30.121094 51.628906 30.308594 51.710938 30.515625 C 51.792969 30.722656 51.835938 30.945312 51.828125 31.167969 C 51.835938 31.394531 51.796875 31.625 51.714844 31.835938 C 51.628906 32.050781 51.503906 32.246094 51.339844 32.40625 Z M 51.339844 32.402344 "/>
<path style=" stroke:none;fill-rule:nonzero;fill:rgb(25.490196%,25.490196%,25.490196%);fill-opacity:1;" d="M 57.078125 30.644531 L 55.078125 30.644531 L 55.078125 38.414062 L 57.078125 38.414062 Z M 57.078125 30.644531 "/>
<path style=" stroke:none;fill-rule:nonzero;fill:rgb(25.490196%,25.490196%,25.490196%);fill-opacity:1;" d="M 57.078125 27.722656 L 55.078125 27.722656 L 55.078125 29.464844 L 57.078125 29.464844 Z M 57.078125 27.722656 "/>
<path style=" stroke:none;fill-rule:nonzero;fill:rgb(25.490196%,25.490196%,25.490196%);fill-opacity:1;" d="M 61.765625 30.535156 C 61.761719 30.332031 61.785156 30.128906 61.828125 29.929688 C 61.867188 29.765625 61.953125 29.613281 62.074219 29.496094 C 62.207031 29.375 62.371094 29.296875 62.542969 29.265625 C 62.742188 29.226562 62.945312 29.207031 63.148438 29.207031 L 63.148438 27.722656 C 60.882812 27.75 59.78125 28.671875 59.78125 30.535156 L 59.78125 30.644531 L 58.53125 30.644531 L 58.53125 31.917969 L 59.78125 31.917969 L 59.78125 38.410156 L 61.761719 38.410156 L 61.761719 31.917969 L 63.195312 31.917969 L 63.195312 30.644531 L 61.765625 30.644531 Z M 61.765625 30.535156 "/>
<path style=" stroke:none;fill-rule:nonzero;fill:rgb(25.490196%,25.490196%,25.490196%);fill-opacity:1;" d="M 66.585938 30.644531 L 64.585938 30.644531 L 64.585938 38.414062 L 66.585938 38.414062 Z M 66.585938 30.644531 "/>
<path style=" stroke:none;fill-rule:nonzero;fill:rgb(25.490196%,25.490196%,25.490196%);fill-opacity:1;" d="M 66.585938 27.722656 L 64.585938 27.722656 L 64.585938 29.464844 L 66.585938 29.464844 Z M 66.585938 27.722656 "/>
<path style=" stroke:none;fill-rule:nonzero;fill:rgb(25.490196%,25.490196%,25.490196%);fill-opacity:1;" d="M 71.457031 32.082031 C 71.679688 32 71.921875 31.960938 72.160156 31.960938 C 72.570312 31.949219 72.972656 32.082031 73.296875 32.335938 C 73.589844 32.570312 73.78125 32.90625 73.84375 33.277344 L 75.871094 33.277344 C 75.832031 32.890625 75.722656 32.515625 75.550781 32.171875 C 75.363281 31.808594 75.101562 31.488281 74.78125 31.230469 C 74.441406 30.960938 74.054688 30.761719 73.640625 30.632812 C 73.164062 30.492188 72.671875 30.421875 72.179688 30.429688 C 71.640625 30.421875 71.105469 30.5 70.59375 30.664062 C 70.144531 30.8125 69.734375 31.054688 69.394531 31.378906 C 69.046875 31.726562 68.785156 32.148438 68.628906 32.613281 C 68.429688 33.195312 68.339844 33.8125 68.351562 34.425781 C 68.339844 35.050781 68.433594 35.671875 68.628906 36.265625 C 68.789062 36.75 69.050781 37.195312 69.398438 37.574219 C 69.726562 37.921875 70.128906 38.191406 70.578125 38.359375 C 71.519531 38.691406 72.546875 38.703125 73.496094 38.398438 C 73.90625 38.257812 74.292969 38.050781 74.632812 37.78125 C 74.964844 37.519531 75.242188 37.203125 75.453125 36.839844 C 75.648438 36.5 75.78125 36.125 75.839844 35.738281 L 73.824219 35.738281 C 73.800781 35.929688 73.738281 36.113281 73.640625 36.28125 C 73.546875 36.445312 73.417969 36.589844 73.261719 36.707031 C 72.921875 36.953125 72.507812 37.078125 72.085938 37.070312 C 71.621094 37.070312 71.207031 36.839844 70.855469 36.394531 C 70.503906 35.945312 70.335938 35.273438 70.335938 34.378906 C 70.328125 33.996094 70.375 33.617188 70.476562 33.25 C 70.554688 32.972656 70.691406 32.71875 70.875 32.496094 C 71.027344 32.308594 71.230469 32.167969 71.457031 32.082031 Z M 71.457031 32.082031 "/>
<path style=" stroke:none;fill-rule:nonzero;fill:rgb(25.490196%,25.490196%,25.490196%);fill-opacity:1;" d="M 83.714844 31.222656 C 83.410156 30.945312 83.046875 30.746094 82.652344 30.636719 C 82.117188 30.488281 81.5625 30.417969 81.003906 30.429688 C 80.441406 30.421875 79.878906 30.488281 79.332031 30.628906 C 78.929688 30.734375 78.558594 30.925781 78.234375 31.183594 C 77.96875 31.410156 77.761719 31.703125 77.636719 32.03125 C 77.519531 32.347656 77.449219 32.683594 77.433594 33.019531 L 79.296875 33.019531 C 79.351562 32.707031 79.503906 32.417969 79.730469 32.191406 C 79.972656 31.953125 80.367188 31.835938 80.90625 31.835938 C 81.285156 31.820312 81.660156 31.898438 81.996094 32.066406 C 82.121094 32.132812 82.226562 32.230469 82.304688 32.351562 C 82.378906 32.46875 82.425781 32.605469 82.433594 32.742188 C 82.445312 32.882812 82.417969 33.023438 82.359375 33.152344 C 82.300781 33.28125 82.210938 33.390625 82.097656 33.472656 C 81.886719 33.605469 81.503906 33.710938 80.921875 33.792969 C 80.367188 33.867188 79.851562 33.953125 79.382812 34.042969 C 78.964844 34.117188 78.566406 34.257812 78.195312 34.460938 C 77.875 34.640625 77.613281 34.902344 77.429688 35.222656 C 77.25 35.542969 77.15625 35.988281 77.15625 36.542969 C 77.144531 36.824219 77.195312 37.105469 77.308594 37.367188 C 77.417969 37.625 77.585938 37.859375 77.792969 38.046875 C 78.222656 38.429688 78.914062 38.625 79.847656 38.625 C 80.347656 38.632812 80.84375 38.550781 81.3125 38.382812 C 81.691406 38.246094 82.035156 38.023438 82.316406 37.734375 L 82.484375 37.554688 L 82.503906 37.800781 C 82.519531 38.007812 82.554688 38.214844 82.609375 38.414062 L 84.472656 38.414062 L 84.472656 33.472656 C 84.480469 33.03125 84.417969 32.589844 84.289062 32.164062 C 84.183594 31.804688 83.984375 31.480469 83.714844 31.222656 Z M 82.472656 35.488281 C 82.472656 35.738281 82.410156 35.984375 82.296875 36.207031 C 82.183594 36.429688 82.03125 36.628906 81.84375 36.792969 C 81.648438 36.964844 81.425781 37.097656 81.183594 37.1875 C 80.914062 37.289062 80.632812 37.335938 80.347656 37.335938 C 79.367188 37.335938 79.160156 36.789062 79.160156 36.332031 C 79.152344 36.164062 79.183594 35.996094 79.25 35.84375 C 79.320312 35.6875 79.425781 35.554688 79.554688 35.449219 C 79.8125 35.253906 80.257812 35.097656 80.921875 34.972656 C 81.230469 34.917969 81.539062 34.851562 81.84375 34.765625 C 82.011719 34.722656 82.167969 34.640625 82.296875 34.53125 L 82.488281 34.347656 Z M 82.472656 35.488281 "/>
<path style=" stroke:none;fill-rule:nonzero;fill:rgb(25.490196%,25.490196%,25.490196%);fill-opacity:1;" d="M 88.375 28.484375 L 86.390625 28.484375 L 86.390625 35.519531 C 86.390625 35.925781 86.449219 36.332031 86.574219 36.71875 C 86.691406 37.085938 86.886719 37.421875 87.152344 37.699219 C 87.445312 37.996094 87.792969 38.226562 88.179688 38.371094 C 88.667969 38.550781 89.1875 38.636719 89.707031 38.625 C 90.214844 38.636719 90.71875 38.550781 91.191406 38.371094 C 91.578125 38.222656 91.925781 37.992188 92.210938 37.691406 C 92.476562 37.410156 92.675781 37.074219 92.800781 36.710938 C 92.925781 36.332031 92.992188 35.933594 92.992188 35.535156 L 92.992188 33.371094 L 91.160156 33.371094 L 91.160156 35.339844 C 91.160156 35.863281 91.046875 36.265625 90.820312 36.5625 C 90.597656 36.855469 90.234375 37.007812 89.765625 37.007812 C 89.296875 37.007812 88.917969 36.855469 88.699219 36.546875 C 88.480469 36.242188 88.382812 35.835938 88.382812 35.308594 L 88.382812 31.917969 L 92.996094 31.917969 L 92.996094 30.644531 L 88.382812 30.644531 Z M 88.375 28.484375 "/>
<path style=" stroke:none;fill-rule:nonzero;fill:rgb(25.490196%,25.490196%,25.490196%);fill-opacity:1;" d="M 96.921875 30.644531 L 94.921875 30.644531 L 94.921875 38.414062 L 96.921875 38.414062 Z M 96.921875 30.644531 "/>
<path style=" stroke:none;fill-rule:nonzero;fill:rgb(25.490196%,25.490196%,25.490196%);fill-opacity:1;" d="M 96.921875 27.722656 L 94.921875 27.722656 L 94.921875 29.464844 L 96.921875 29.464844 Z M 96.921875 27.722656 "/>
<path style=" stroke:none;fill-rule:nonzero;fill:rgb(25.490196%,25.490196%,25.490196%);fill-opacity:1;" d="M 105.890625 31.53125 C 105.519531 31.167969 105.078125 30.890625 104.589844 30.710938 C 104.035156 30.507812 103.449219 30.40625 102.855469 30.414062 C 102.257812 30.40625 101.660156 30.507812 101.097656 30.710938 C 100.605469 30.890625 100.152344 31.171875 99.777344 31.539062 C 99.40625 31.90625 99.121094 32.347656 98.941406 32.835938 C 98.742188 33.375 98.640625 33.945312 98.648438 34.519531 C 98.640625 35.089844 98.738281 35.652344 98.933594 36.1875 C 99.109375 36.675781 99.386719 37.117188 99.75 37.484375 C 100.128906 37.851562 100.578125 38.136719 101.070312 38.320312 C 101.644531 38.53125 102.25 38.632812 102.855469 38.621094 C 103.445312 38.628906 104.03125 38.53125 104.582031 38.328125 C 105.070312 38.152344 105.515625 37.871094 105.886719 37.507812 C 106.253906 37.140625 106.539062 36.699219 106.71875 36.214844 C 106.921875 35.671875 107.019531 35.097656 107.011719 34.523438 C 107.019531 33.941406 106.921875 33.363281 106.71875 32.820312 C 106.539062 32.335938 106.257812 31.894531 105.890625 31.53125 Z M 102.863281 37.070312 C 101.445312 37.070312 100.722656 36.214844 100.722656 34.527344 C 100.722656 32.839844 101.445312 31.996094 102.863281 31.996094 C 104.285156 31.996094 105.007812 32.847656 105.007812 34.527344 C 105.007812 36.203125 104.289062 37.070312 102.863281 37.070312 Z M 102.863281 37.070312 "/>
<g clip-path="url(#clip1)" clip-rule="nonzero">
<path style=" stroke:none;fill-rule:nonzero;fill:rgb(25.490196%,25.490196%,25.490196%);fill-opacity:1;" d="M 115.335938 31.070312 C 115.09375 30.847656 114.808594 30.683594 114.496094 30.582031 C 114.148438 30.46875 113.789062 30.414062 113.425781 30.417969 C 112.765625 30.417969 112.21875 30.53125 111.804688 30.753906 C 111.386719 30.988281 111.042969 31.332031 110.808594 31.753906 L 110.605469 32.113281 L 110.605469 30.644531 L 108.703125 30.644531 L 108.703125 38.414062 L 110.703125 38.414062 L 110.703125 33.945312 C 110.703125 32.652344 111.324219 32 112.539062 32 C 113.09375 32 113.492188 32.117188 113.730469 32.355469 C 113.964844 32.59375 114.085938 33.03125 114.085938 33.683594 L 114.085938 38.414062 L 116.089844 38.414062 L 116.089844 32.976562 C 116.097656 32.597656 116.027344 32.222656 115.882812 31.871094 C 115.757812 31.570312 115.570312 31.296875 115.335938 31.070312 Z M 115.335938 31.070312 "/>
</g>
<path style=" stroke:none;fill-rule:nonzero;fill:rgb(25.490196%,25.490196%,25.490196%);fill-opacity:1;" d="M 21.351562 32.863281 L 22.617188 31.648438 L 22.617188 29.105469 L 17.167969 29.105469 L 17.167969 32.863281 Z M 21.351562 32.863281 "/>
<g clip-path="url(#clip2)" clip-rule="nonzero">
<path style=" stroke:none;fill-rule:nonzero;fill:rgb(25.490196%,25.490196%,25.490196%);fill-opacity:1;" d="M 4.5 20.480469 L 4.5 45.863281 L 22.566406 45.847656 L 29.882812 38.53125 L 29.882812 20.480469 Z M 11.765625 39.617188 L 9.390625 39.617188 L 9.390625 26.726562 L 11.765625 26.726562 Z M 25 32.703125 L 22.34375 35.238281 L 17.167969 35.246094 L 17.167969 39.613281 L 14.789062 39.613281 L 14.789062 26.726562 L 25.003906 26.726562 Z M 25 32.703125 "/>
</g>
</g>
</svg>
