<?xml version="1.0" encoding="UTF-8"?>
<svg xmlns="http://www.w3.org/2000/svg" xmlns:xlink="http://www.w3.org/1999/xlink" width="px" height="px" viewBox="0 0 120 66" version="1.1">
<defs>
<clipPath id="clip1">
  <path d="M 11.785156 24 L 108.214844 24 L 108.214844 42 L 11.785156 42 Z M 11.785156 24 "/>
</clipPath>
</defs>
<g id="surface1">
<g clip-path="url(#clip1)" clip-rule="nonzero">
<path style=" stroke:none;fill-rule:nonzero;fill:rgb(25.490196%,25.490196%,25.490196%);fill-opacity:1;" d="M 27.386719 30.109375 C 25.566406 30.109375 24.308594 31.0625 23.535156 31.789062 C 23.402344 31.625 23.265625 31.484375 23.136719 31.363281 C 22.394531 30.667969 21.523438 30.109375 20.34375 30.109375 C 18.46875 30.109375 17 31.523438 16.296875 32.367188 L 16.296875 30.351562 L 11.785156 30.351562 L 11.785156 32.980469 L 13.273438 32.980469 L 13.273438 41.296875 L 16.296875 41.296875 L 16.296875 32.742188 L 17.765625 34.304688 C 18.476562 33.410156 19.019531 32.960938 19.726562 32.960938 C 21.140625 32.960938 21.445312 34.246094 21.445312 35.324219 L 21.445312 41.296875 L 24.464844 41.296875 L 24.464844 35.324219 C 24.464844 33.957031 25.613281 32.960938 27.078125 32.960938 C 28.636719 32.960938 29.628906 33.964844 29.628906 35.324219 L 29.628906 41.296875 L 32.648438 41.296875 L 32.648438 34.96875 C 32.648438 32.988281 31.0625 30.109375 27.386719 30.109375 Z M 41.234375 34.007812 C 41.234375 33.21875 40.628906 32.71875 39.464844 32.71875 C 38.394531 32.71875 37.046875 33.265625 36.257812 33.746094 L 35.070312 31.402344 C 35.070312 31.402344 37.046875 30.066406 39.628906 30.066406 C 42.046875 30.066406 44.257812 31.210938 44.257812 34.101562 L 44.257812 41.296875 L 41.234375 41.296875 L 41.234375 40.269531 C 40.675781 41.128906 39.464844 41.582031 38.257812 41.582031 C 36 41.582031 34.535156 39.933594 34.535156 38.140625 C 34.535156 36.0625 36.023438 34.773438 38.394531 34.773438 L 40.488281 34.773438 C 41 34.773438 41.234375 34.535156 41.234375 34.128906 Z M 41.234375 37.378906 L 41.234375 36.589844 C 41.046875 36.78125 40.722656 36.828125 40.304688 36.828125 L 39.164062 36.828125 C 38.210938 36.828125 37.652344 37.257812 37.652344 38.023438 C 37.652344 38.765625 38.234375 39.3125 39.164062 39.3125 C 40.257812 39.3125 41.234375 38.738281 41.234375 37.378906 Z M 50.914062 37.953125 L 53.332031 30.351562 L 56.519531 30.351562 L 52.726562 41.296875 L 48.984375 41.296875 L 45.355469 30.351562 L 48.636719 30.351562 Z M 68.175781 36.734375 L 60.246094 36.734375 C 60.40625 37.953125 61.339844 38.929688 62.6875 38.929688 C 63.570312 38.929688 64.40625 38.546875 64.828125 37.808594 L 67.964844 38.140625 C 67.011719 40.484375 65.011719 41.582031 62.640625 41.582031 C 59.453125 41.582031 57.058594 39.171875 57.058594 35.824219 C 57.058594 32.480469 59.40625 30.066406 62.59375 30.066406 C 65.523438 30.066406 68.175781 32.023438 68.175781 36.613281 Z M 60.175781 34.652344 L 64.941406 34.652344 C 64.78125 33.554688 63.875 32.644531 62.59375 32.644531 C 61.316406 32.644531 60.40625 33.480469 60.175781 34.652344 Z M 77 33.390625 L 75.738281 33.390625 C 74.21875 33.390625 73.527344 34.160156 73.527344 36.144531 L 73.527344 41.582031 L 70.539062 41.582031 L 70.539062 30.210938 L 73.4375 30.210938 L 73.4375 32.023438 C 73.851562 30.808594 74.863281 30.0625 76.171875 30.0625 C 76.449219 30.0625 76.726562 30.089844 77 30.164062 Z M 82.878906 40.976562 L 79.726562 40.976562 L 79.726562 32.683594 L 78.175781 32.683594 L 78.175781 30.0625 L 82.878906 30.0625 Z M 87.742188 35.824219 C 87.742188 37.542969 88.859375 38.8125 90.484375 38.8125 C 91.628906 38.8125 92.488281 38.164062 92.894531 37.136719 L 95.804688 38.046875 C 95.085938 40.222656 92.941406 41.582031 90.460938 41.582031 C 87.214844 41.582031 84.640625 39.167969 84.640625 35.824219 C 84.640625 32.476562 87.214844 30.0625 90.460938 30.0625 C 92.941406 30.0625 95.085938 31.449219 95.804688 33.625 L 92.894531 34.507812 C 92.488281 33.503906 91.628906 32.835938 90.484375 32.835938 C 88.859375 32.835938 87.742188 34.101562 87.742188 35.824219 Z M 81.394531 24 C 82.554688 24 83.464844 24.964844 83.464844 26.132812 C 83.464844 27.328125 82.554688 28.246094 81.394531 28.246094 C 80.261719 28.246094 79.351562 27.328125 79.351562 26.132812 C 79.351562 24.964844 80.261719 24 81.394531 24 Z M 97.566406 24 L 100.609375 24 L 100.609375 34.070312 L 101.339844 34.070312 L 104.316406 30.082031 L 108.023438 30.082031 L 103.84375 35.355469 L 108.140625 41.582031 L 104.457031 41.582031 L 101.339844 36.835938 L 100.609375 36.835938 L 100.609375 41.582031 L 97.566406 41.582031 Z M 97.566406 24 "/>
</g>
</g>
</svg>
