<?xml version="1.0" encoding="UTF-8"?>
<svg xmlns="http://www.w3.org/2000/svg" xmlns:xlink="http://www.w3.org/1999/xlink" width="px" height="px" viewBox="0 0 120 66" version="1.1">
<defs>
<clipPath id="clip1">
  <path d="M 26.25 23.25 L 93.75 23.25 L 93.75 43.5 L 26.25 43.5 Z M 26.25 23.25 "/>
</clipPath>
</defs>
<g id="surface1">
<g clip-path="url(#clip1)" clip-rule="nonzero">
<path style=" stroke:none;fill-rule:nonzero;fill:rgb(25.490196%,25.490196%,25.490196%);fill-opacity:1;" d="M 58.734375 28.457031 C 60.742188 28.457031 62.296875 28.917969 63.40625 29.839844 C 64.515625 30.761719 65.082031 32.054688 65.097656 33.722656 L 65.097656 43.171875 L 60.398438 43.171875 L 60.398438 41.535156 L 60.355469 41.59375 C 59.386719 42.789062 57.945312 43.386719 56.023438 43.386719 C 54.484375 43.386719 53.273438 42.96875 52.386719 42.136719 C 51.5 41.304688 51.054688 40.210938 51.054688 38.847656 C 51.054688 37.472656 51.535156 36.398438 52.492188 35.628906 C 53.449219 34.859375 54.824219 34.464844 56.613281 34.445312 L 60.398438 34.445312 L 60.398438 34.222656 C 60.386719 33.554688 60.148438 33.039062 59.6875 32.671875 C 59.214844 32.296875 58.53125 32.109375 57.632812 32.109375 C 57.027344 32.109375 56.339844 32.207031 55.582031 32.40625 C 54.820312 32.601562 54.054688 32.886719 53.285156 33.265625 L 51.96875 30.042969 L 52.125 29.972656 C 53.25 29.472656 54.328125 29.097656 55.367188 28.847656 C 56.449219 28.589844 57.570312 28.457031 58.734375 28.457031 Z M 73.21875 25.316406 L 73.21875 29.34375 L 76.976562 29.34375 L 76.976562 32.511719 L 73.21875 32.511719 L 73.21875 38.042969 C 73.234375 39.027344 73.65625 39.519531 74.480469 39.519531 C 75 39.519531 75.617188 39.359375 76.335938 39.035156 L 77.246094 42.421875 L 77.152344 42.472656 C 76.636719 42.753906 76.050781 42.972656 75.394531 43.132812 C 74.695312 43.300781 73.988281 43.386719 73.273438 43.386719 C 71.839844 43.386719 70.683594 42.976562 69.796875 42.152344 C 68.910156 41.328125 68.46875 40.191406 68.46875 38.742188 L 68.46875 32.511719 L 66.453125 32.511719 L 66.453125 29.34375 L 68.46875 29.34375 L 68.46875 25.316406 Z M 93.414062 34.042969 C 93.546875 34.628906 93.609375 35.242188 93.609375 35.894531 C 93.609375 37.382812 93.28125 38.683594 92.617188 39.800781 C 91.957031 40.921875 91.023438 41.789062 89.824219 42.40625 C 88.625 43.023438 87.238281 43.332031 85.664062 43.332031 C 84.085938 43.332031 82.699219 43.023438 81.5 42.40625 C 81.058594 42.179688 80.65625 41.917969 80.289062 41.621094 L 84.328125 39.292969 C 84.722656 39.480469 85.167969 39.574219 85.664062 39.574219 C 86.613281 39.574219 87.371094 39.242188 87.945312 38.582031 C 88.375 38.085938 88.640625 37.472656 88.75 36.738281 Z M 34.546875 24.351562 L 34.660156 24.351562 C 37.003906 24.367188 38.828125 24.945312 40.132812 26.082031 C 41.457031 27.238281 42.117188 28.859375 42.117188 30.957031 C 42.117188 33.175781 41.457031 34.898438 40.132812 36.125 C 38.808594 37.351562 36.945312 37.964844 34.546875 37.964844 L 31.191406 37.964844 L 31.191406 43.171875 L 26.277344 43.171875 L 26.277344 24.351562 Z M 48.921875 23.25 L 48.921875 43.171875 L 44.144531 43.171875 L 44.144531 23.25 Z M 60.398438 36.996094 L 57.492188 36.996094 C 56.191406 37.011719 55.539062 37.511719 55.539062 38.5 C 55.539062 39 55.714844 39.398438 56.0625 39.695312 C 56.414062 39.988281 56.890625 40.136719 57.5 40.136719 C 58.214844 40.136719 58.84375 39.964844 59.378906 39.613281 C 59.917969 39.265625 60.257812 38.8125 60.398438 38.257812 Z M 85.664062 28.484375 C 87.238281 28.484375 88.625 28.792969 89.824219 29.410156 C 90.519531 29.769531 91.125 30.210938 91.640625 30.738281 L 87.636719 33.050781 C 87.101562 32.585938 86.445312 32.351562 85.664062 32.351562 C 84.734375 32.351562 83.980469 32.683594 83.40625 33.34375 C 82.835938 34.007812 82.546875 34.875 82.546875 35.949219 C 82.546875 35.960938 82.546875 35.976562 82.546875 35.988281 L 78.144531 38.53125 C 77.878906 37.726562 77.742188 36.847656 77.742188 35.894531 C 77.742188 34.429688 78.070312 33.132812 78.722656 32.015625 C 79.375 30.898438 80.300781 30.027344 81.5 29.410156 C 82.699219 28.792969 84.085938 28.484375 85.664062 28.484375 Z M 34.304688 28.269531 L 31.191406 28.269531 L 31.191406 34.042969 L 34.304688 34.042969 C 35.308594 34.042969 36.082031 33.792969 36.628906 33.292969 C 37.171875 32.789062 37.445312 32.066406 37.445312 31.117188 C 37.445312 30.203125 37.171875 29.5 36.628906 29.007812 C 36.082031 28.515625 35.308594 28.269531 34.304688 28.269531 Z M 34.304688 28.269531 "/>
</g>
</g>
</svg>
