<?xml version="1.0" encoding="UTF-8"?>
<svg xmlns="http://www.w3.org/2000/svg" xmlns:xlink="http://www.w3.org/1999/xlink" width="px" height="px" viewBox="0 0 120 66" version="1.1">
<defs>
<clipPath id="clip1">
  <path d="M 7 23.25 L 27 23.25 L 27 42.75 L 7 42.75 Z M 7 23.25 "/>
</clipPath>
</defs>
<g id="surface1">
<g clip-path="url(#clip1)" clip-rule="nonzero">
<path style=" stroke:none;fill-rule:nonzero;fill:rgb(25.490196%,25.490196%,25.490196%);fill-opacity:1;" d="M 16.742188 42.570312 C 11.457031 42.570312 7.175781 38.289062 7.175781 33.007812 C 7.175781 27.726562 11.457031 23.441406 16.742188 23.441406 C 22.023438 23.441406 26.304688 27.726562 26.304688 33.007812 C 26.296875 38.285156 22.019531 42.566406 16.742188 42.570312 Z M 16.742188 24.105469 C 11.824219 24.105469 7.839844 28.089844 7.839844 33.007812 C 7.839844 37.921875 11.824219 41.910156 16.742188 41.910156 C 21.65625 41.910156 25.640625 37.921875 25.640625 33.007812 C 25.636719 28.09375 21.65625 24.109375 16.742188 24.105469 Z M 16.742188 24.105469 "/>
<path style=" stroke:none;fill-rule:nonzero;fill:rgb(25.490196%,25.490196%,25.490196%);fill-opacity:1;" d="M 16.742188 42.640625 C 12.84375 42.640625 9.332031 40.292969 7.839844 36.691406 C 6.347656 33.09375 7.171875 28.949219 9.925781 26.195312 C 12.683594 23.4375 16.828125 22.613281 20.425781 24.105469 C 24.027344 25.597656 26.375 29.109375 26.371094 33.007812 C 26.367188 38.324219 22.058594 42.632812 16.742188 42.640625 Z M 16.742188 23.511719 C 12.898438 23.511719 9.433594 25.824219 7.964844 29.371094 C 6.492188 32.921875 7.304688 37.007812 10.023438 39.722656 C 12.738281 42.441406 16.824219 43.253906 20.371094 41.78125 C 23.921875 40.3125 26.234375 36.847656 26.234375 33.007812 C 26.230469 27.765625 21.980469 23.519531 16.742188 23.511719 Z M 16.742188 41.980469 C 11.785156 41.980469 7.769531 37.960938 7.769531 33.007812 C 7.769531 28.054688 11.785156 24.039062 16.742188 24.039062 C 21.695312 24.039062 25.710938 28.054688 25.710938 33.007812 C 25.703125 37.960938 21.691406 41.972656 16.742188 41.976562 Z M 16.742188 24.175781 C 11.863281 24.175781 7.90625 28.128906 7.90625 33.007812 C 7.90625 37.886719 11.863281 41.84375 16.742188 41.84375 C 21.621094 41.84375 25.574219 37.886719 25.574219 33.007812 C 25.570312 28.132812 21.617188 24.179688 16.742188 24.171875 Z M 16.742188 24.175781 "/>
</g>
<path style=" stroke:none;fill-rule:nonzero;fill:rgb(25.490196%,25.490196%,25.490196%);fill-opacity:1;" d="M 15.851562 25.738281 L 12.890625 25.738281 L 12.890625 26.402344 L 15.851562 26.402344 Z M 15.851562 25.738281 "/>
<path style=" stroke:none;fill-rule:nonzero;fill:rgb(25.490196%,25.490196%,25.490196%);fill-opacity:1;" d="M 15.917969 26.46875 L 12.820312 26.46875 L 12.820312 25.667969 L 15.917969 25.667969 Z M 12.957031 26.332031 L 15.78125 26.332031 L 15.78125 25.804688 L 12.957031 25.804688 Z M 12.957031 26.332031 "/>
<path style=" stroke:none;fill-rule:nonzero;fill:rgb(25.490196%,25.490196%,25.490196%);fill-opacity:1;" d="M 15.109375 27.210938 L 11.207031 27.210938 L 11.207031 27.875 L 15.109375 27.875 Z M 15.109375 27.210938 "/>
<path style=" stroke:none;fill-rule:nonzero;fill:rgb(25.490196%,25.490196%,25.490196%);fill-opacity:1;" d="M 15.179688 27.941406 L 11.140625 27.941406 L 11.140625 27.140625 L 15.179688 27.140625 Z M 11.277344 27.804688 L 15.039062 27.804688 L 15.039062 27.277344 L 11.277344 27.277344 Z M 11.277344 27.804688 "/>
<path style=" stroke:none;fill-rule:nonzero;fill:rgb(25.490196%,25.490196%,25.490196%);fill-opacity:1;" d="M 17.613281 28.683594 L 10.140625 28.683594 L 10.140625 29.347656 L 17.613281 29.347656 Z M 17.613281 28.683594 "/>
<path style=" stroke:none;fill-rule:nonzero;fill:rgb(25.490196%,25.490196%,25.490196%);fill-opacity:1;" d="M 17.683594 29.414062 L 10.070312 29.414062 L 10.070312 28.613281 L 17.683594 28.613281 Z M 10.210938 29.277344 L 17.539062 29.277344 L 17.539062 28.75 L 10.210938 28.75 Z M 10.210938 29.277344 "/>
<path style=" stroke:none;fill-rule:nonzero;fill:rgb(25.490196%,25.490196%,25.490196%);fill-opacity:1;" d="M 23.457031 28.683594 L 22.414062 28.683594 L 22.414062 29.347656 L 23.457031 29.347656 Z M 23.457031 28.683594 "/>
<path style=" stroke:none;fill-rule:nonzero;fill:rgb(25.490196%,25.490196%,25.490196%);fill-opacity:1;" d="M 23.523438 29.414062 L 22.347656 29.414062 L 22.347656 28.613281 L 23.523438 28.613281 Z M 22.484375 29.277344 L 23.386719 29.277344 L 23.386719 28.75 L 22.484375 28.75 Z M 22.484375 29.277344 "/>
<path style=" stroke:none;fill-rule:nonzero;fill:rgb(25.490196%,25.490196%,25.490196%);fill-opacity:1;" d="M 15.71875 30.15625 L 10.625 30.15625 L 10.625 30.820312 L 15.71875 30.820312 Z M 15.71875 30.15625 "/>
<path style=" stroke:none;fill-rule:nonzero;fill:rgb(25.490196%,25.490196%,25.490196%);fill-opacity:1;" d="M 15.785156 30.886719 L 10.554688 30.886719 L 10.554688 30.089844 L 15.785156 30.089844 Z M 10.695312 30.75 L 15.648438 30.75 L 15.648438 30.226562 L 10.691406 30.226562 Z M 10.695312 30.75 "/>
<path style=" stroke:none;fill-rule:nonzero;fill:rgb(25.490196%,25.490196%,25.490196%);fill-opacity:1;" d="M 24.5 30.15625 L 21.917969 30.15625 L 21.917969 30.820312 L 24.5 30.820312 Z M 24.5 30.15625 "/>
<path style=" stroke:none;fill-rule:nonzero;fill:rgb(25.490196%,25.490196%,25.490196%);fill-opacity:1;" d="M 24.570312 30.886719 L 21.847656 30.886719 L 21.847656 30.089844 L 24.570312 30.089844 Z M 21.984375 30.75 L 24.433594 30.75 L 24.433594 30.226562 L 21.984375 30.226562 Z M 21.984375 30.75 "/>
<path style=" stroke:none;fill-rule:nonzero;fill:rgb(25.490196%,25.490196%,25.490196%);fill-opacity:1;" d="M 13.023438 31.632812 L 11.339844 31.632812 L 11.339844 32.296875 L 13.023438 32.296875 Z M 13.023438 31.632812 "/>
<path style=" stroke:none;fill-rule:nonzero;fill:rgb(25.490196%,25.490196%,25.490196%);fill-opacity:1;" d="M 13.09375 32.363281 L 11.273438 32.363281 L 11.273438 31.5625 L 13.09375 31.5625 Z M 11.410156 32.226562 L 12.957031 32.226562 L 12.957031 31.695312 L 11.410156 31.695312 Z M 11.410156 32.226562 "/>
<path style=" stroke:none;fill-rule:nonzero;fill:rgb(25.490196%,25.490196%,25.490196%);fill-opacity:1;" d="M 24.789062 31.632812 L 22.675781 31.632812 L 22.675781 32.296875 L 24.789062 32.296875 Z M 24.789062 31.632812 "/>
<path style=" stroke:none;fill-rule:nonzero;fill:rgb(25.490196%,25.490196%,25.490196%);fill-opacity:1;" d="M 24.867188 32.363281 L 22.597656 32.363281 L 22.597656 31.5625 L 24.867188 31.5625 Z M 22.757812 32.226562 L 24.714844 32.226562 L 24.714844 31.695312 L 22.757812 31.695312 Z M 22.757812 32.226562 "/>
<path style=" stroke:none;fill-rule:nonzero;fill:rgb(25.490196%,25.490196%,25.490196%);fill-opacity:1;" d="M 15.109375 31.632812 L 14.011719 31.632812 L 14.011719 32.296875 L 15.109375 32.296875 Z M 15.109375 31.632812 "/>
<path style=" stroke:none;fill-rule:nonzero;fill:rgb(25.490196%,25.490196%,25.490196%);fill-opacity:1;" d="M 15.179688 32.363281 L 13.9375 32.363281 L 13.9375 31.5625 L 15.179688 31.5625 Z M 14.082031 32.226562 L 15.042969 32.226562 L 15.042969 31.695312 L 14.078125 31.695312 Z M 14.082031 32.226562 "/>
<path style=" stroke:none;fill-rule:nonzero;fill:rgb(25.490196%,25.490196%,25.490196%);fill-opacity:1;" d="M 14.183594 33.105469 L 12.890625 33.105469 L 12.890625 33.765625 L 14.183594 33.765625 Z M 14.183594 33.105469 "/>
<path style=" stroke:none;fill-rule:nonzero;fill:rgb(25.490196%,25.490196%,25.490196%);fill-opacity:1;" d="M 14.253906 33.835938 L 12.820312 33.835938 L 12.820312 33.035156 L 14.253906 33.035156 Z M 12.957031 33.699219 L 14.117188 33.699219 L 14.117188 33.171875 L 12.957031 33.171875 Z M 12.957031 33.699219 "/>
<path style=" stroke:none;fill-rule:nonzero;fill:rgb(25.490196%,25.490196%,25.490196%);fill-opacity:1;" d="M 24.625 33.105469 L 23.78125 33.105469 L 23.78125 33.765625 L 24.625 33.765625 Z M 24.625 33.105469 "/>
<path style=" stroke:none;fill-rule:nonzero;fill:rgb(25.490196%,25.490196%,25.490196%);fill-opacity:1;" d="M 24.695312 33.835938 L 23.714844 33.835938 L 23.714844 33.035156 L 24.695312 33.035156 Z M 23.847656 33.699219 L 24.558594 33.699219 L 24.558594 33.171875 L 23.847656 33.171875 Z M 23.847656 33.699219 "/>
<path style=" stroke:none;fill-rule:nonzero;fill:rgb(25.490196%,25.490196%,25.490196%);fill-opacity:1;" d="M 18.886719 34.578125 L 15.851562 34.578125 L 15.851562 35.238281 L 18.886719 35.238281 Z M 18.886719 34.578125 "/>
<path style=" stroke:none;fill-rule:nonzero;fill:rgb(25.490196%,25.490196%,25.490196%);fill-opacity:1;" d="M 18.953125 35.308594 L 15.78125 35.308594 L 15.78125 34.507812 L 18.953125 34.507812 Z M 15.917969 35.171875 L 18.816406 35.171875 L 18.816406 34.648438 L 15.917969 34.648438 Z M 15.917969 35.171875 "/>
<path style=" stroke:none;fill-rule:nonzero;fill:rgb(25.490196%,25.490196%,25.490196%);fill-opacity:1;" d="M 21.953125 36.050781 L 15.109375 36.050781 L 15.109375 36.714844 L 21.953125 36.714844 Z M 21.953125 36.050781 "/>
<path style=" stroke:none;fill-rule:nonzero;fill:rgb(25.490196%,25.490196%,25.490196%);fill-opacity:1;" d="M 22.019531 36.789062 L 15.039062 36.789062 L 15.039062 35.988281 L 22.019531 35.988281 Z M 15.179688 36.644531 L 21.886719 36.644531 L 21.886719 36.121094 L 15.179688 36.121094 Z M 15.179688 36.644531 "/>
<path style=" stroke:none;fill-rule:nonzero;fill:rgb(25.490196%,25.490196%,25.490196%);fill-opacity:1;" d="M 21.179688 37.523438 L 15.84375 37.523438 L 15.84375 38.1875 L 21.179688 38.1875 Z M 21.179688 37.523438 "/>
<path style=" stroke:none;fill-rule:nonzero;fill:rgb(25.490196%,25.490196%,25.490196%);fill-opacity:1;" d="M 21.246094 38.257812 L 15.78125 38.257812 L 15.78125 37.457031 L 21.246094 37.457031 Z M 15.914062 38.117188 L 21.109375 38.117188 L 21.109375 37.59375 L 15.914062 37.59375 Z M 15.914062 38.117188 "/>
<path style=" stroke:none;fill-rule:nonzero;fill:rgb(25.490196%,25.490196%,25.490196%);fill-opacity:1;" d="M 19.652344 39 L 16.691406 39 L 16.691406 39.660156 L 19.652344 39.660156 Z M 19.652344 39 "/>
<path style=" stroke:none;fill-rule:nonzero;fill:rgb(25.490196%,25.490196%,25.490196%);fill-opacity:1;" d="M 19.722656 39.730469 L 16.625 39.730469 L 16.625 38.929688 L 19.722656 38.929688 Z M 16.761719 39.59375 L 19.582031 39.59375 L 19.582031 39.066406 L 16.761719 39.066406 Z M 16.761719 39.59375 "/>
<path style=" stroke:none;fill-rule:nonzero;fill:rgb(25.490196%,25.490196%,25.490196%);fill-opacity:1;" d="M 17.957031 40.46875 L 16.351562 40.46875 L 16.351562 41.132812 L 17.957031 41.132812 Z M 17.957031 40.46875 "/>
<path style=" stroke:none;fill-rule:nonzero;fill:rgb(25.490196%,25.490196%,25.490196%);fill-opacity:1;" d="M 18.023438 41.203125 L 16.285156 41.203125 L 16.285156 40.402344 L 18.023438 40.402344 Z M 16.421875 41.066406 L 17.886719 41.066406 L 17.886719 40.539062 L 16.421875 40.539062 Z M 16.421875 41.066406 "/>
<path style=" stroke:none;fill-rule:nonzero;fill:rgb(25.490196%,25.490196%,25.490196%);fill-opacity:1;" d="M 17.960938 25.738281 L 16.691406 25.738281 L 16.691406 26.402344 L 17.960938 26.402344 Z M 17.960938 25.738281 "/>
<path style=" stroke:none;fill-rule:nonzero;fill:rgb(25.490196%,25.490196%,25.490196%);fill-opacity:1;" d="M 18.027344 26.46875 L 16.625 26.46875 L 16.625 25.667969 L 18.027344 25.667969 Z M 16.761719 26.332031 L 17.890625 26.332031 L 17.890625 25.804688 L 16.761719 25.804688 Z M 16.761719 26.332031 "/>
<path style=" stroke:none;fill-rule:nonzero;fill:rgb(25.490196%,25.490196%,25.490196%);fill-opacity:1;" d="M 68.652344 41.023438 L 68.652344 26.566406 C 68.863281 26.554688 69.046875 26.535156 69.234375 26.535156 C 70.644531 26.535156 72.054688 26.507812 73.464844 26.546875 C 75.011719 26.589844 76.480469 26.960938 77.785156 27.835938 C 79.339844 28.882812 80.195312 30.363281 80.519531 32.183594 C 80.769531 33.527344 80.699219 34.910156 80.3125 36.21875 C 79.574219 38.679688 77.867188 40.128906 75.410156 40.730469 C 74.578125 40.9375 73.71875 41.039062 72.859375 41.027344 C 71.480469 41.011719 70.097656 41.023438 68.652344 41.023438 Z M 70.515625 39.417969 C 71.261719 39.417969 71.953125 39.449219 72.640625 39.40625 C 73.398438 39.363281 74.167969 39.320312 74.902344 39.144531 C 76.683594 38.71875 77.867188 37.625 78.40625 35.84375 C 78.679688 34.933594 78.699219 34.015625 78.660156 33.085938 C 78.554688 30.417969 76.789062 28.503906 74.140625 28.257812 C 73.097656 28.160156 72.046875 28.167969 71 28.132812 C 70.835938 28.140625 70.675781 28.15625 70.515625 28.183594 Z M 70.515625 39.417969 "/>
<path style=" stroke:none;fill-rule:nonzero;fill:rgb(25.490196%,25.490196%,25.490196%);fill-opacity:1;" d="M 105.449219 31.335938 L 105.449219 29.585938 L 107.277344 29.585938 L 107.277344 41.023438 C 106.878906 41.023438 106.503906 41.023438 106.125 41.023438 C 105.917969 41.023438 105.707031 41 105.457031 40.988281 L 105.457031 39 C 105.289062 39.191406 105.195312 39.292969 105.109375 39.398438 C 104.21875 40.53125 103.066406 41.136719 101.613281 41.195312 C 100.210938 41.246094 98.925781 40.964844 97.796875 40.078125 C 97.042969 39.484375 96.480469 38.675781 96.183594 37.761719 C 95.582031 35.988281 95.578125 34.195312 96.304688 32.453125 C 97.050781 30.652344 98.453125 29.660156 100.378906 29.398438 C 100.992188 29.304688 101.617188 29.304688 102.230469 29.398438 C 103.226562 29.550781 104.140625 30.042969 104.816406 30.789062 C 104.988281 30.980469 105.152344 31.179688 105.3125 31.375 Z M 105.382812 35.277344 C 105.371094 35.085938 105.359375 34.894531 105.347656 34.707031 C 105.253906 32.835938 103.898438 30.695312 101.152344 30.953125 C 99.882812 31.078125 98.933594 31.660156 98.34375 32.761719 C 97.53125 34.28125 97.539062 35.878906 98.175781 37.453125 C 99.257812 40.121094 102.710938 40.113281 104.148438 38.59375 C 105.039062 37.65625 105.382812 36.539062 105.382812 35.277344 Z M 105.382812 35.277344 "/>
<path style=" stroke:none;fill-rule:nonzero;fill:rgb(25.490196%,25.490196%,25.490196%);fill-opacity:1;" d="M 93.664062 35.722656 L 84.777344 35.722656 C 84.515625 37.308594 85.75 39.058594 87.398438 39.472656 C 89.367188 39.96875 91.007812 39.101562 91.648438 37.191406 L 93.582031 37.191406 C 93.257812 38.515625 92.597656 39.539062 91.507812 40.296875 C 89.546875 41.660156 86.121094 41.570312 84.28125 39.550781 C 83.453125 38.640625 82.996094 37.5625 82.800781 36.359375 C 82.597656 35.203125 82.707031 34.011719 83.113281 32.910156 C 83.886719 30.855469 85.394531 29.703125 87.574219 29.382812 C 88.351562 29.261719 89.148438 29.300781 89.910156 29.496094 C 91.828125 29.984375 92.960938 31.265625 93.53125 33.097656 C 93.785156 33.929688 93.761719 34.785156 93.664062 35.722656 Z M 91.792969 34.378906 C 91.765625 32.167969 90.019531 30.878906 88.152344 30.949219 C 86.574219 31.007812 84.867188 32.148438 84.792969 34.378906 Z M 91.792969 34.378906 "/>
<path style=" stroke:none;fill-rule:nonzero;fill:rgb(25.490196%,25.490196%,25.490196%);fill-opacity:1;" d="M 59.65625 41.203125 C 56.519531 41.265625 53.710938 39.054688 53.738281 35.238281 C 53.765625 31.488281 56.472656 29.308594 59.824219 29.316406 C 63.496094 29.324219 65.640625 32.132812 65.628906 35.324219 C 65.609375 38.671875 62.9375 41.289062 59.65625 41.203125 Z M 63.632812 35.25 C 63.617188 35.035156 63.609375 34.820312 63.589844 34.605469 C 63.441406 32.804688 62.25 31.28125 60.300781 31.003906 C 58.40625 30.707031 56.574219 31.824219 55.972656 33.644531 C 55.664062 34.550781 55.617188 35.53125 55.835938 36.464844 C 56.546875 39.621094 60.011719 40.40625 62.105469 38.722656 C 63.210938 37.828125 63.644531 36.636719 63.632812 35.25 Z M 63.632812 35.25 "/>
<path style=" stroke:none;fill-rule:nonzero;fill:rgb(25.490196%,25.490196%,25.490196%);fill-opacity:1;" d="M 36.792969 40.988281 L 34.941406 40.988281 L 34.941406 26.582031 C 35.117188 26.5625 35.296875 26.53125 35.476562 26.53125 C 36.914062 26.53125 38.347656 26.53125 39.78125 26.53125 C 40.523438 26.527344 41.253906 26.671875 41.941406 26.953125 C 43.511719 27.597656 44.335938 28.789062 44.492188 30.453125 C 44.570312 31.144531 44.484375 31.84375 44.246094 32.496094 C 43.589844 34.179688 42.269531 34.949219 40.566406 35.128906 C 39.59375 35.230469 38.609375 35.203125 37.632812 35.230469 C 37.375 35.238281 37.117188 35.230469 36.792969 35.230469 Z M 36.800781 33.722656 C 38.0625 33.667969 39.253906 33.664062 40.4375 33.550781 C 41.414062 33.457031 42.128906 32.886719 42.414062 31.9375 C 42.628906 31.21875 42.617188 30.457031 42.382812 29.746094 C 42.207031 29.113281 41.726562 28.609375 41.101562 28.402344 C 40.652344 28.25 40.1875 28.152344 39.710938 28.121094 C 38.902344 28.078125 38.089844 28.105469 37.277344 28.113281 C 37.117188 28.125 36.957031 28.144531 36.796875 28.175781 Z M 36.800781 33.722656 "/>
<path style=" stroke:none;fill-rule:evenodd;fill:rgb(25.490196%,25.490196%,25.490196%);fill-opacity:1;" d="M 112.660156 26.425781 L 112.660156 40.988281 L 110.921875 40.988281 C 110.785156 40.511719 110.726562 27.90625 110.867188 26.425781 Z M 112.660156 26.425781 "/>
<path style=" stroke:none;fill-rule:evenodd;fill:rgb(25.490196%,25.490196%,25.490196%);fill-opacity:1;" d="M 52.503906 29.585938 L 52.503906 31.527344 C 51.964844 31.292969 51.433594 31.183594 50.878906 31.3125 C 49.746094 31.578125 49.160156 32.195312 48.953125 33.671875 C 48.882812 34.265625 48.851562 34.863281 48.859375 35.460938 C 48.847656 37.0625 48.859375 38.664062 48.859375 40.265625 L 48.859375 40.992188 L 47.078125 40.992188 C 46.957031 40.496094 46.914062 30.644531 47.039062 29.589844 L 48.816406 29.589844 L 48.816406 31.210938 C 49.289062 30.523438 49.664062 29.878906 50.359375 29.59375 C 51.058594 29.3125 51.769531 29.125 52.503906 29.585938 Z M 52.503906 29.585938 "/>
</g>
</svg>
