<?xml version="1.0" encoding="UTF-8"?>
<svg xmlns="http://www.w3.org/2000/svg" xmlns:xlink="http://www.w3.org/1999/xlink" width="px" height="px" viewBox="0 0 120 66" version="1.1">
<defs>
<clipPath id="clip1">
  <path d="M 3 20.132812 L 21 20.132812 L 21 38 L 3 38 Z M 3 20.132812 "/>
</clipPath>
<clipPath id="clip2">
  <path d="M 105 23 L 117.75 23 L 117.75 35 L 105 35 Z M 105 23 "/>
</clipPath>
<clipPath id="clip3">
  <path d="M 92 38 L 98 38 L 98 46.613281 L 92 46.613281 Z M 92 38 "/>
</clipPath>
<clipPath id="clip4">
  <path d="M 112 39 L 117.75 39 L 117.75 46.613281 L 112 46.613281 Z M 112 39 "/>
</clipPath>
</defs>
<g id="surface1">
<g clip-path="url(#clip1)" clip-rule="nonzero">
<path style=" stroke:none;fill-rule:nonzero;fill:rgb(0%,0%,0%);fill-opacity:1;" d="M 18.332031 24.152344 C 17.160156 24.152344 16.785156 25.445312 16.414062 26.820312 C 15.800781 28.988281 15.828125 28.882812 15.214844 27.640625 C 14.839844 26.898438 14.332031 25.84375 13.160156 25.84375 C 11.878906 25.84375 11.453125 27.296875 11.054688 28.722656 C 10.414062 30.890625 10.46875 30.730469 9.878906 29.542969 C 9.480469 28.777344 8.972656 27.746094 7.800781 27.746094 C 6.492188 27.746094 6.066406 29.277344 5.695312 30.625 C 5.667969 30.730469 5.425781 31.867188 5.265625 31.867188 C 4.972656 31.867188 4.601562 29.859375 4.601562 28.960938 C 4.601562 24.996094 7.851562 21.800781 11.828125 21.800781 C 12.519531 21.800781 13.242188 21.90625 13.933594 22.117188 L 13.933594 22.144531 C 13.933594 23.253906 14.839844 24.152344 15.960938 24.152344 C 17.082031 24.152344 17.988281 23.253906 17.988281 22.144531 C 17.988281 21.03125 17.082031 20.132812 15.960938 20.132812 C 15.453125 20.132812 14.945312 20.320312 14.574219 20.664062 C 13.667969 20.371094 12.761719 20.214844 11.828125 20.214844 C 6.945312 20.214844 3 24.152344 3 28.960938 C 3 30.46875 3.585938 33.746094 5.320312 33.746094 C 6.492188 33.746094 6.867188 32.449219 7.238281 31.074219 C 7.851562 28.910156 7.828125 29.015625 8.441406 30.257812 C 8.8125 30.996094 9.320312 32.054688 10.492188 32.054688 C 11.773438 32.054688 12.199219 30.601562 12.601562 29.171875 C 13.242188 27.003906 13.1875 27.164062 13.773438 28.351562 C 14.148438 29.121094 14.679688 30.152344 15.855469 30.152344 C 17.160156 30.152344 17.585938 28.617188 17.960938 27.269531 C 17.988281 27.164062 18.226562 26.027344 18.386719 26.027344 C 18.679688 26.027344 19.054688 28.035156 19.054688 28.933594 C 19.054688 32.898438 15.800781 36.097656 11.828125 36.097656 C 11.132812 36.097656 10.414062 35.992188 9.71875 35.78125 L 9.71875 35.753906 C 9.71875 34.644531 8.8125 33.746094 7.695312 33.746094 C 6.574219 33.746094 5.667969 34.644531 5.667969 35.753906 C 5.667969 36.863281 6.574219 37.789062 7.695312 37.789062 C 8.199219 37.789062 8.707031 37.601562 9.082031 37.257812 C 9.988281 37.550781 10.894531 37.707031 11.828125 37.707031 C 16.707031 37.707031 20.652344 33.769531 20.652344 28.960938 C 20.652344 27.429688 20.066406 24.152344 18.332031 24.152344 Z M 15.960938 21.457031 C 16.332031 21.457031 16.628906 21.746094 16.628906 22.117188 C 16.628906 22.488281 16.332031 22.777344 15.960938 22.777344 C 15.585938 22.777344 15.292969 22.488281 15.292969 22.117188 C 15.292969 21.746094 15.585938 21.457031 15.960938 21.457031 Z M 7.695312 36.414062 C 7.320312 36.414062 7.027344 36.125 7.027344 35.753906 C 7.027344 35.382812 7.320312 35.09375 7.695312 35.09375 C 8.066406 35.09375 8.359375 35.382812 8.359375 35.753906 C 8.359375 36.125 8.066406 36.414062 7.695312 36.414062 Z M 7.695312 36.414062 "/>
</g>
<path style=" stroke:none;fill-rule:nonzero;fill:rgb(0%,0%,0%);fill-opacity:1;" d="M 36.960938 25.691406 C 35.925781 25.691406 34.949219 26.035156 34.175781 26.636719 L 34.175781 23.996094 C 34.175781 23.480469 33.773438 23.078125 33.257812 23.078125 C 32.738281 23.078125 32.339844 23.480469 32.339844 23.996094 L 32.339844 34.046875 C 32.339844 34.5625 32.738281 34.964844 33.257812 34.964844 C 33.773438 34.964844 34.175781 34.5625 34.175781 34.046875 L 34.175781 30.226562 C 34.234375 28.734375 35.46875 27.558594 36.960938 27.558594 C 38.453125 27.558594 39.6875 28.734375 39.746094 30.226562 L 39.746094 34.046875 C 39.746094 34.5625 40.148438 34.964844 40.664062 34.964844 C 41.179688 34.964844 41.582031 34.5625 41.582031 34.046875 L 41.582031 30.226562 C 41.554688 27.699219 39.488281 25.691406 36.960938 25.691406 Z M 36.960938 25.691406 "/>
<path style=" stroke:none;fill-rule:nonzero;fill:rgb(0%,0%,0%);fill-opacity:1;" d="M 61.160156 25.691406 C 58.636719 25.691406 56.597656 27.699219 56.539062 30.199219 L 56.539062 34.046875 C 56.539062 34.5625 56.941406 34.964844 57.457031 34.964844 C 57.976562 34.964844 58.378906 34.5625 58.378906 34.046875 L 58.378906 30.226562 C 58.433594 28.734375 59.667969 27.554688 61.160156 27.554688 C 62.65625 27.554688 63.890625 28.734375 63.945312 30.226562 L 63.945312 34.046875 C 63.945312 34.5625 64.347656 34.964844 64.867188 34.964844 C 65.382812 34.964844 65.785156 34.5625 65.785156 34.046875 L 65.785156 30.226562 C 65.753906 27.699219 63.6875 25.691406 61.160156 25.691406 Z M 61.160156 25.691406 "/>
<path style=" stroke:none;fill-rule:nonzero;fill:rgb(0%,0%,0%);fill-opacity:1;" d="M 29.925781 27.558594 C 30.441406 27.558594 30.84375 27.125 30.84375 26.636719 C 30.84375 26.121094 30.414062 25.71875 29.925781 25.71875 L 28.375 25.71875 L 28.375 24.054688 C 28.375 23.535156 27.945312 23.132812 27.457031 23.132812 C 26.941406 23.132812 26.539062 23.566406 26.539062 24.023438 L 26.539062 31.75 C 26.539062 32.640625 26.824219 34.679688 29.582031 34.996094 C 29.609375 34.996094 29.667969 34.996094 29.695312 34.996094 C 29.925781 34.996094 30.15625 34.910156 30.328125 34.765625 C 30.527344 34.59375 30.644531 34.332031 30.644531 34.074219 C 30.644531 33.617188 30.300781 33.214844 29.839844 33.15625 C 28.894531 33.042969 28.433594 32.582031 28.433594 31.777344 L 28.433594 27.558594 Z M 29.925781 27.558594 "/>
<path style=" stroke:none;fill-rule:nonzero;fill:rgb(0%,0%,0%);fill-opacity:1;" d="M 83.839844 25.691406 C 83.582031 25.691406 83.351562 25.777344 83.179688 25.976562 L 82.148438 27.097656 C 81.773438 27.46875 81.804688 28.042969 82.148438 28.417969 C 82.320312 28.589844 82.550781 28.675781 82.808594 28.675781 C 83.039062 28.675781 83.296875 28.589844 83.46875 28.390625 L 84.5 27.269531 C 84.675781 27.097656 84.757812 26.867188 84.757812 26.609375 C 84.757812 26.351562 84.675781 26.121094 84.472656 25.949219 C 84.328125 25.804688 84.101562 25.691406 83.839844 25.691406 Z M 83.839844 25.691406 "/>
<path style=" stroke:none;fill-rule:nonzero;fill:rgb(0%,0%,0%);fill-opacity:1;" d="M 50.480469 26.980469 C 49.5625 26.09375 48.359375 25.632812 47.066406 25.691406 C 44.710938 25.804688 42.757812 27.730469 42.644531 30.113281 C 42.585938 31.40625 43.046875 32.609375 43.9375 33.53125 C 44.828125 34.449219 46.003906 34.964844 47.296875 34.964844 C 48.300781 34.964844 49.277344 34.648438 50.082031 34.019531 C 50.308594 33.84375 50.453125 33.558594 50.453125 33.269531 C 50.453125 32.984375 50.339844 32.726562 50.109375 32.523438 C 49.765625 32.265625 49.304688 32.265625 48.988281 32.523438 C 48.414062 32.957031 47.699219 33.15625 46.980469 33.070312 C 45.917969 32.957031 45.054688 32.207031 44.683594 31.261719 L 51 31.261719 C 51.515625 31.261719 51.917969 30.832031 51.917969 30.34375 C 51.917969 29.050781 51.402344 27.871094 50.480469 26.980469 Z M 44.652344 29.421875 C 44.769531 29.078125 44.96875 28.761719 45.199219 28.503906 C 45.714844 27.929688 46.492188 27.585938 47.265625 27.585938 C 48.472656 27.585938 49.507812 28.359375 49.878906 29.453125 L 44.652344 29.453125 Z M 44.652344 29.421875 "/>
<path style=" stroke:none;fill-rule:nonzero;fill:rgb(0%,0%,0%);fill-opacity:1;" d="M 89.46875 27.558594 C 89.984375 27.558594 90.386719 27.125 90.386719 26.636719 C 90.386719 26.121094 89.957031 25.71875 89.46875 25.71875 L 87.917969 25.71875 L 87.917969 24.054688 C 87.917969 23.535156 87.488281 23.132812 87 23.132812 C 86.484375 23.132812 86.082031 23.566406 86.082031 24.023438 L 86.082031 31.75 C 86.082031 32.640625 86.367188 34.679688 89.125 34.996094 C 89.152344 34.996094 89.210938 34.996094 89.238281 34.996094 C 89.46875 34.996094 89.699219 34.910156 89.871094 34.765625 C 90.070312 34.59375 90.1875 34.332031 90.1875 34.074219 C 90.1875 33.617188 89.84375 33.214844 89.382812 33.15625 C 88.433594 33.042969 87.976562 32.582031 87.976562 31.777344 L 87.976562 27.558594 Z M 89.46875 27.558594 "/>
<path style=" stroke:none;fill-rule:nonzero;fill:rgb(0%,0%,0%);fill-opacity:1;" d="M 74.683594 26.980469 C 73.765625 26.09375 72.558594 25.632812 71.265625 25.691406 C 68.914062 25.804688 66.960938 27.730469 66.84375 30.113281 C 66.789062 31.40625 67.246094 32.609375 68.136719 33.53125 C 69.027344 34.449219 70.203125 34.964844 71.496094 34.964844 C 72.5 34.964844 73.476562 34.648438 74.28125 34.019531 C 74.511719 33.84375 74.65625 33.558594 74.65625 33.269531 C 74.65625 32.984375 74.539062 32.726562 74.308594 32.523438 C 73.964844 32.265625 73.507812 32.265625 73.191406 32.523438 C 72.617188 32.957031 71.898438 33.15625 71.179688 33.070312 C 70.117188 32.957031 69.257812 32.207031 68.882812 31.261719 L 75.199219 31.261719 C 75.71875 31.261719 76.117188 30.832031 76.117188 30.34375 C 76.117188 29.050781 75.601562 27.871094 74.683594 26.980469 Z M 68.855469 29.421875 C 68.96875 29.078125 69.171875 28.761719 69.402344 28.503906 C 69.917969 27.929688 70.691406 27.585938 71.46875 27.585938 C 72.671875 27.585938 73.707031 28.359375 74.082031 29.453125 L 68.855469 29.453125 Z M 68.855469 29.421875 "/>
<g clip-path="url(#clip2)" clip-rule="nonzero">
<path style=" stroke:none;fill-rule:nonzero;fill:rgb(0%,0%,0%);fill-opacity:1;" d="M 116.457031 33.070312 C 115.507812 32.957031 115.046875 32.496094 115.046875 31.691406 L 115.046875 24.054688 C 115.046875 23.535156 114.617188 23.132812 114.128906 23.132812 C 113.613281 23.132812 113.210938 23.566406 113.210938 24.054688 L 113.210938 26.636719 C 112.4375 26.0625 111.488281 25.691406 110.425781 25.691406 C 107.871094 25.691406 105.804688 27.757812 105.804688 30.3125 C 105.804688 32.871094 107.871094 34.9375 110.425781 34.9375 C 111.71875 34.9375 112.894531 34.390625 113.726562 33.53125 C 114.160156 34.160156 114.90625 34.734375 116.226562 34.878906 C 116.253906 34.878906 116.3125 34.878906 116.339844 34.878906 C 116.570312 34.878906 116.800781 34.792969 116.972656 34.648438 C 117.171875 34.476562 117.289062 34.21875 117.289062 33.960938 C 117.257812 33.53125 116.914062 33.15625 116.457031 33.070312 Z M 110.398438 33.128906 C 108.875 33.128906 107.613281 31.894531 107.613281 30.34375 C 107.613281 28.820312 108.847656 27.558594 110.398438 27.558594 C 111.917969 27.558594 113.183594 28.792969 113.183594 30.34375 C 113.183594 31.863281 111.949219 33.128906 110.398438 33.128906 Z M 110.398438 33.128906 "/>
</g>
<path style=" stroke:none;fill-rule:nonzero;fill:rgb(0%,0%,0%);fill-opacity:1;" d="M 78.214844 26.0625 C 78.070312 25.863281 77.839844 25.746094 77.582031 25.71875 C 77.324219 25.691406 77.09375 25.746094 76.894531 25.917969 C 76.695312 26.0625 76.578125 26.292969 76.550781 26.550781 C 76.519531 26.808594 76.578125 27.039062 76.75 27.242188 L 79.304688 30.226562 L 76.464844 33.414062 C 76.089844 33.789062 76.121094 34.363281 76.464844 34.734375 C 76.636719 34.90625 76.867188 34.996094 77.125 34.996094 C 77.382812 34.996094 77.613281 34.90625 77.785156 34.707031 L 80.484375 31.664062 L 83.007812 34.648438 C 83.152344 34.851562 83.382812 34.964844 83.640625 34.996094 C 83.671875 34.996094 83.726562 34.996094 83.757812 34.996094 C 83.957031 34.996094 84.15625 34.9375 84.328125 34.792969 C 84.730469 34.476562 84.789062 33.875 84.472656 33.472656 Z M 78.214844 26.0625 "/>
<path style=" stroke:none;fill-rule:nonzero;fill:rgb(0%,0%,0%);fill-opacity:1;" d="M 103.824219 25.746094 C 103.304688 25.746094 102.90625 26.179688 102.90625 26.664062 L 102.90625 26.695312 C 102.128906 26.089844 101.125 25.71875 100.0625 25.71875 C 97.507812 25.71875 95.441406 27.785156 95.441406 30.339844 C 95.441406 32.898438 97.507812 34.964844 100.0625 34.964844 C 101.125 34.964844 102.128906 34.59375 102.90625 33.988281 L 102.90625 34.015625 C 102.90625 34.535156 103.335938 34.9375 103.824219 34.9375 C 104.339844 34.9375 104.742188 34.503906 104.742188 34.015625 L 104.742188 26.664062 C 104.742188 26.148438 104.3125 25.746094 103.824219 25.746094 Z M 100.035156 33.128906 C 98.511719 33.128906 97.25 31.890625 97.25 30.339844 C 97.25 28.820312 98.484375 27.554688 100.035156 27.554688 C 101.554688 27.554688 102.816406 28.789062 102.816406 30.339844 C 102.816406 31.863281 101.554688 33.128906 100.035156 33.128906 Z M 100.035156 33.128906 "/>
<path style=" stroke:none;fill-rule:nonzero;fill:rgb(0%,0%,0%);fill-opacity:1;" d="M 89.878906 39.984375 C 90.492188 39.984375 90.839844 40.300781 90.839844 40.777344 L 90.839844 40.96875 L 89.453125 40.96875 C 88.53125 40.96875 87.738281 41.476562 87.738281 42.460938 C 87.738281 43.414062 88.425781 44.058594 89.464844 44.058594 C 90.101562 44.058594 90.566406 43.902344 90.851562 43.445312 C 90.851562 43.753906 91.105469 44.007812 91.414062 44.007812 C 91.722656 44.007812 91.976562 43.753906 91.976562 43.445312 L 91.976562 40.734375 C 91.976562 39.613281 91.191406 38.964844 89.878906 38.964844 C 88.96875 38.964844 88.4375 39.316406 88.140625 39.644531 C 88.046875 39.75 88.003906 39.875 88.003906 39.992188 C 88.003906 40.269531 88.226562 40.492188 88.5 40.492188 C 88.628906 40.492188 88.714844 40.460938 88.820312 40.386719 C 89.082031 40.195312 89.410156 39.984375 89.878906 39.984375 Z M 89.761719 43.105469 C 89.167969 43.105469 88.882812 42.863281 88.882812 42.460938 C 88.882812 42.078125 89.136719 41.855469 89.601562 41.855469 L 90.839844 41.855469 L 90.839844 42.152344 C 90.839844 42.746094 90.324219 43.105469 89.761719 43.105469 Z M 89.761719 43.105469 "/>
<g clip-path="url(#clip3)" clip-rule="nonzero">
<path style=" stroke:none;fill-rule:nonzero;fill:rgb(0%,0%,0%);fill-opacity:1;" d="M 94.917969 44.058594 C 95.425781 44.058594 95.859375 43.847656 96.070312 43.636719 L 96.070312 44.039062 C 96.070312 44.683594 95.691406 45.078125 94.9375 45.078125 C 94.441406 45.078125 94.089844 44.855469 93.824219 44.664062 C 93.699219 44.578125 93.613281 44.535156 93.488281 44.535156 C 93.210938 44.535156 92.976562 44.769531 92.976562 45.046875 C 92.976562 45.183594 93.03125 45.289062 93.085938 45.351562 C 93.445312 45.785156 94.078125 46.050781 94.9375 46.050781 C 96.503906 46.050781 97.226562 45.226562 97.226562 43.765625 L 97.226562 41.085938 C 97.226562 39.675781 96.316406 38.964844 95.035156 38.964844 C 93.601562 38.964844 92.765625 39.78125 92.765625 41.507812 C 92.765625 43.234375 93.582031 44.058594 94.917969 44.058594 Z M 96.082031 42.546875 C 96.082031 42.546875 95.667969 43.085938 95.035156 43.085938 C 94.3125 43.085938 93.898438 42.554688 93.898438 41.507812 C 93.898438 40.46875 94.300781 39.941406 95.035156 39.941406 C 95.648438 39.941406 96.082031 40.351562 96.082031 41.085938 Z M 96.082031 42.546875 "/>
</g>
<path style=" stroke:none;fill-rule:nonzero;fill:rgb(0%,0%,0%);fill-opacity:1;" d="M 98 41.496094 C 98 43.265625 98.910156 44.058594 100.382812 44.058594 C 101.347656 44.058594 101.910156 43.648438 102.089844 43.476562 C 102.183594 43.394531 102.269531 43.253906 102.269531 43.085938 C 102.269531 42.8125 102.046875 42.589844 101.769531 42.589844 C 101.632812 42.589844 101.550781 42.628906 101.433594 42.703125 C 101.179688 42.875 100.851562 43.03125 100.382812 43.03125 C 99.683594 43.03125 99.144531 42.683594 99.144531 41.921875 L 101.761719 41.921875 C 102.40625 41.921875 102.40625 41.464844 102.40625 41.074219 C 102.40625 40.34375 102.078125 38.964844 100.289062 38.964844 C 98.847656 38.964844 98 39.875 98 41.496094 Z M 100.289062 39.941406 C 100.976562 39.941406 101.273438 40.449219 101.273438 40.96875 L 99.175781 40.96875 C 99.230469 40.289062 99.675781 39.941406 100.289062 39.941406 Z M 100.289062 39.941406 "/>
<path style=" stroke:none;fill-rule:nonzero;fill:rgb(0%,0%,0%);fill-opacity:1;" d="M 105.699219 38.964844 C 104.988281 38.964844 104.542969 39.292969 104.339844 39.601562 C 104.339844 39.285156 104.089844 39.027344 103.769531 39.027344 C 103.453125 39.027344 103.199219 39.285156 103.199219 39.601562 L 103.199219 43.457031 C 103.199219 43.773438 103.441406 44.007812 103.769531 44.007812 C 104.097656 44.007812 104.339844 43.773438 104.339844 43.457031 L 104.339844 41.09375 C 104.339844 40.46875 104.605469 40.003906 105.402344 40.003906 C 106.089844 40.003906 106.332031 40.417969 106.332031 41.019531 L 106.332031 43.457031 C 106.332031 43.773438 106.566406 44.007812 106.90625 44.007812 C 107.222656 44.007812 107.476562 43.773438 107.476562 43.457031 L 107.476562 40.808594 C 107.476562 39.886719 107.136719 38.964844 105.699219 38.964844 Z M 105.699219 38.964844 "/>
<path style=" stroke:none;fill-rule:nonzero;fill:rgb(0%,0%,0%);fill-opacity:1;" d="M 108.261719 41.507812 C 108.261719 43.234375 109.121094 44.058594 110.558594 44.058594 C 111.429688 44.058594 112.011719 43.679688 112.253906 43.457031 C 112.382812 43.339844 112.433594 43.214844 112.433594 43.066406 C 112.433594 42.777344 112.210938 42.554688 111.925781 42.554688 C 111.820312 42.554688 111.726562 42.578125 111.609375 42.664062 C 111.367188 42.84375 111.046875 43.085938 110.558594 43.085938 C 109.820312 43.085938 109.417969 42.523438 109.417969 41.507812 C 109.417969 40.511719 109.820312 39.941406 110.558594 39.941406 C 111.089844 39.941406 111.367188 40.203125 111.503906 40.351562 C 111.597656 40.460938 111.726562 40.535156 111.894531 40.535156 C 112.179688 40.535156 112.402344 40.3125 112.402344 40.023438 C 112.402344 39.898438 112.371094 39.8125 112.285156 39.695312 C 112.097656 39.453125 111.535156 38.964844 110.558594 38.964844 C 109.121094 38.964844 108.261719 39.78125 108.261719 41.507812 Z M 108.261719 41.507812 "/>
<g clip-path="url(#clip4)" clip-rule="nonzero">
<path style=" stroke:none;fill-rule:nonzero;fill:rgb(0%,0%,0%);fill-opacity:1;" d="M 113.1875 44.992188 C 112.882812 44.992188 112.636719 45.214844 112.636719 45.523438 C 112.636719 45.828125 112.882812 46.050781 113.1875 46.050781 C 114.246094 46.050781 114.914062 45.308594 115.378906 44.273438 L 117.351562 39.824219 C 117.371094 39.769531 117.394531 39.695312 117.394531 39.601562 C 117.394531 39.28125 117.140625 39.027344 116.820312 39.027344 C 116.503906 39.027344 116.34375 39.25 116.292969 39.390625 L 115.128906 42.332031 L 113.960938 39.390625 C 113.910156 39.25 113.75 39.027344 113.433594 39.027344 C 113.113281 39.027344 112.859375 39.28125 112.859375 39.601562 C 112.859375 39.695312 112.882812 39.769531 112.902344 39.824219 L 114.535156 43.582031 C 114.183594 44.453125 113.867188 44.992188 113.1875 44.992188 Z M 113.1875 44.992188 "/>
</g>
</g>
</svg>
