<?xml version="1.0" encoding="UTF-8"?>
<svg xmlns="http://www.w3.org/2000/svg" xmlns:xlink="http://www.w3.org/1999/xlink" width="px" height="px" viewBox="0 0 120 66" version="1.1">
<defs>
<clipPath id="clip1">
  <path d="M 2.917969 21 L 117.082031 21 L 117.082031 44.894531 L 2.917969 44.894531 Z M 2.917969 21 "/>
</clipPath>
</defs>
<g id="surface1">
<g clip-path="url(#clip1)" clip-rule="nonzero">
<path style=" stroke:none;fill-rule:evenodd;fill:rgb(25.490196%,25.490196%,25.490196%);fill-opacity:1;" d="M 84.21875 26.03125 C 87.414062 26.03125 89.371094 27.820312 90.066406 29.984375 C 90.121094 30.160156 90.023438 30.351562 89.847656 30.410156 C 89.457031 30.539062 88.796875 30.761719 88.394531 30.894531 C 88.304688 30.925781 88.210938 30.917969 88.128906 30.878906 C 88.046875 30.835938 87.984375 30.761719 87.957031 30.675781 C 87.484375 29.238281 86.277344 28.128906 84.21875 28.128906 C 82.039062 28.128906 79.863281 29.710938 79.863281 32.90625 C 79.863281 35.992188 81.984375 37.628906 84.238281 37.628906 C 86.296875 37.628906 87.535156 36.40625 88.058594 35.039062 C 88.121094 34.867188 88.3125 34.777344 88.488281 34.835938 C 88.871094 34.960938 89.511719 35.167969 89.898438 35.296875 C 90.074219 35.355469 90.171875 35.546875 90.117188 35.726562 C 89.417969 37.832031 87.441406 39.765625 84.238281 39.765625 C 80.679688 39.765625 77.574219 37.199219 77.574219 32.90625 C 77.574219 28.613281 80.792969 26.03125 84.21875 26.03125 Z M 51.125 30.085938 C 53.941406 30.085938 55.011719 31.675781 55.011719 33.492188 L 55.011719 38.023438 C 55.011719 38.472656 55.039062 38.839844 55.066406 39.09375 C 55.082031 39.191406 55.050781 39.292969 54.984375 39.367188 C 54.917969 39.441406 54.824219 39.484375 54.722656 39.484375 C 54.328125 39.484375 53.738281 39.484375 53.386719 39.484375 C 53.21875 39.484375 53.078125 39.367188 53.046875 39.203125 C 53.023438 39.011719 53 38.71875 53 38.324219 C 52.570312 39.015625 51.667969 39.765625 50.1875 39.765625 C 48.273438 39.765625 47.089844 38.457031 47.089844 37.011719 C 47.089844 35.382812 48.292969 34.484375 49.847656 34.261719 L 52.195312 33.90625 C 52.71875 33.832031 52.871094 33.566406 52.871094 33.25 C 52.871094 32.480469 52.34375 31.863281 51.144531 31.863281 C 50.140625 31.863281 49.527344 32.425781 49.328125 33.183594 C 49.28125 33.363281 49.101562 33.472656 48.917969 33.433594 C 48.542969 33.347656 47.953125 33.214844 47.59375 33.132812 C 47.410156 33.089844 47.296875 32.910156 47.332031 32.726562 C 47.65625 31.296875 49.035156 30.085938 51.125 30.085938 Z M 95.617188 30.085938 C 98.339844 30.085938 100.335938 32.125 100.335938 34.917969 C 100.335938 37.726562 98.339844 39.765625 95.617188 39.765625 C 92.914062 39.765625 90.917969 37.726562 90.917969 34.917969 C 90.917969 32.125 92.914062 30.085938 95.617188 30.085938 Z M 65.265625 26.03125 C 65.457031 26.03125 65.609375 26.183594 65.609375 26.375 L 65.609375 37.882812 C 65.609375 38.394531 65.640625 38.855469 65.667969 39.164062 C 65.675781 39.261719 65.644531 39.355469 65.578125 39.429688 C 65.511719 39.5 65.421875 39.542969 65.324219 39.542969 C 64.921875 39.542969 64.300781 39.542969 63.933594 39.542969 C 63.761719 39.542969 63.617188 39.414062 63.59375 39.242188 C 63.566406 38.972656 63.539062 38.617188 63.539062 38.367188 C 63.109375 39.132812 62.160156 39.765625 60.875 39.765625 C 58.261719 39.765625 56.507812 37.714844 56.507812 34.96875 C 56.507812 32.355469 58.28125 30.210938 60.835938 30.210938 C 62.421875 30.210938 63.222656 30.9375 63.503906 31.515625 L 63.503906 26.375 C 63.503906 26.183594 63.65625 26.03125 63.847656 26.03125 Z M 112.625 30.085938 C 115.433594 30.085938 117.082031 31.9375 117.082031 34.824219 C 117.082031 34.96875 117.078125 35.105469 117.070312 35.21875 C 117.046875 35.390625 116.902344 35.515625 116.730469 35.515625 L 110.359375 35.515625 C 110.414062 36.902344 111.5 37.894531 112.851562 37.894531 C 114.019531 37.894531 114.679688 37.34375 115.023438 36.585938 C 115.09375 36.425781 115.273438 36.347656 115.441406 36.398438 C 115.769531 36.503906 116.289062 36.667969 116.628906 36.777344 C 116.722656 36.804688 116.796875 36.871094 116.839844 36.957031 C 116.878906 37.042969 116.882812 37.144531 116.847656 37.230469 C 116.265625 38.660156 114.878906 39.765625 112.851562 39.765625 C 110.378906 39.765625 108.1875 37.96875 108.1875 34.878906 C 108.1875 31.996094 110.320312 30.085938 112.625 30.085938 Z M 71.9375 30.085938 C 74.746094 30.085938 76.394531 31.9375 76.394531 34.824219 C 76.394531 34.96875 76.390625 35.105469 76.382812 35.21875 C 76.359375 35.390625 76.214844 35.515625 76.042969 35.515625 L 69.671875 35.515625 C 69.726562 36.902344 70.8125 37.894531 72.164062 37.894531 C 73.332031 37.894531 73.992188 37.34375 74.335938 36.585938 C 74.40625 36.425781 74.585938 36.347656 74.753906 36.398438 C 75.082031 36.503906 75.601562 36.667969 75.941406 36.777344 C 76.035156 36.804688 76.109375 36.871094 76.148438 36.957031 C 76.191406 37.042969 76.195312 37.144531 76.160156 37.230469 C 75.578125 38.660156 74.191406 39.765625 72.164062 39.765625 C 69.691406 39.765625 67.5 37.96875 67.5 34.878906 C 67.5 31.996094 69.632812 30.085938 71.9375 30.085938 Z M 45.589844 30.347656 C 45.6875 30.347656 45.777344 30.351562 45.859375 30.359375 C 46.039062 30.375 46.175781 30.523438 46.175781 30.699219 C 46.175781 31.050781 46.175781 31.636719 46.171875 32.066406 L 46.171875 32.210938 C 46.171875 32.304688 46.132812 32.398438 46.0625 32.460938 C 45.992188 32.527344 45.898438 32.558594 45.800781 32.550781 C 45.683594 32.542969 45.570312 32.539062 45.457031 32.539062 C 43.765625 32.539062 42.992188 33.503906 42.992188 35.195312 L 42.992188 39.160156 C 42.992188 39.253906 42.957031 39.339844 42.890625 39.402344 C 42.828125 39.46875 42.738281 39.503906 42.644531 39.503906 L 41.15625 39.503906 C 41.066406 39.503906 40.976562 39.46875 40.910156 39.402344 C 40.847656 39.339844 40.808594 39.253906 40.808594 39.160156 L 40.808594 30.800781 C 40.808594 30.710938 40.847656 30.625 40.910156 30.558594 C 40.976562 30.496094 41.066406 30.457031 41.15625 30.457031 L 42.589844 30.457031 C 42.78125 30.457031 42.9375 30.613281 42.9375 30.800781 L 42.9375 31.90625 C 43.371094 30.921875 44.386719 30.347656 45.589844 30.347656 Z M 106.949219 30.347656 C 107.042969 30.347656 107.136719 30.351562 107.214844 30.359375 C 107.394531 30.375 107.53125 30.523438 107.53125 30.699219 C 107.53125 31.089844 107.53125 31.78125 107.53125 32.210938 C 107.53125 32.304688 107.492188 32.398438 107.421875 32.460938 C 107.351562 32.527344 107.257812 32.558594 107.160156 32.550781 C 107.042969 32.542969 106.925781 32.539062 106.816406 32.539062 C 105.125 32.539062 104.351562 33.503906 104.351562 35.195312 L 104.351562 39.160156 C 104.351562 39.253906 104.316406 39.339844 104.25 39.402344 C 104.183594 39.46875 104.097656 39.503906 104.003906 39.503906 L 102.515625 39.503906 C 102.425781 39.503906 102.335938 39.46875 102.269531 39.402344 C 102.207031 39.339844 102.167969 39.253906 102.167969 39.160156 L 102.167969 30.800781 C 102.167969 30.710938 102.207031 30.625 102.269531 30.558594 C 102.335938 30.496094 102.425781 30.457031 102.515625 30.457031 L 103.949219 30.457031 C 104.140625 30.457031 104.296875 30.613281 104.296875 30.800781 L 104.296875 31.90625 C 104.726562 30.921875 105.742188 30.347656 106.949219 30.347656 Z M 40.332031 26.292969 C 40.523438 26.292969 40.679688 26.445312 40.679688 26.636719 L 40.679688 28.054688 C 40.679688 28.144531 40.644531 28.230469 40.578125 28.296875 C 40.511719 28.359375 40.425781 28.398438 40.332031 28.398438 L 36.363281 28.398438 L 36.363281 39.160156 C 36.363281 39.351562 36.207031 39.503906 36.015625 39.503906 L 34.464844 39.503906 C 34.273438 39.503906 34.121094 39.351562 34.121094 39.160156 L 34.121094 28.398438 L 30.164062 28.398438 C 30.074219 28.398438 29.988281 28.359375 29.921875 28.296875 C 29.855469 28.230469 29.820312 28.144531 29.820312 28.054688 L 29.820312 26.636719 C 29.820312 26.445312 29.976562 26.292969 30.164062 26.292969 Z M 52.871094 35.289062 L 50.488281 35.648438 C 49.8125 35.757812 49.265625 36.132812 49.265625 36.882812 C 49.265625 37.5 49.738281 38.0625 50.601562 38.0625 C 51.820312 38.0625 52.871094 37.480469 52.871094 35.703125 Z M 61.132812 32.132812 C 59.71875 32.132812 58.671875 33.234375 58.671875 34.96875 C 58.671875 36.707031 59.644531 37.863281 61.117188 37.863281 C 62.535156 37.863281 63.523438 36.6875 63.523438 34.949219 C 63.523438 33.214844 62.550781 32.132812 61.132812 32.132812 Z M 95.617188 32.050781 C 94.292969 32.050781 93.082031 33.023438 93.082031 34.917969 C 93.082031 36.808594 94.292969 37.820312 95.617188 37.820312 C 96.960938 37.820312 98.152344 36.828125 98.152344 34.917969 C 98.152344 33.023438 96.960938 32.050781 95.617188 32.050781 Z M 112.644531 31.902344 C 111.277344 31.902344 110.492188 32.949219 110.414062 33.925781 L 114.890625 33.925781 C 114.855469 32.855469 114.140625 31.902344 112.644531 31.902344 Z M 71.957031 31.902344 C 70.589844 31.902344 69.800781 32.949219 69.726562 33.925781 L 74.203125 33.925781 C 74.167969 32.855469 73.457031 31.902344 71.957031 31.902344 Z M 2.953125 33.683594 L 18.679688 35.078125 C 18.992188 35.140625 19.257812 35.335938 19.410156 35.613281 C 19.5625 35.894531 19.585938 36.222656 19.472656 36.519531 L 14.148438 44.808594 C 13.757812 44.714844 13.402344 44.515625 13.113281 44.226562 L 3.507812 34.625 C 3.246094 34.359375 3.054688 34.035156 2.953125 33.683594 Z M 26.6875 33.378906 C 26.59375 33.699219 26.421875 33.996094 26.1875 34.242188 L 16.203125 44.226562 C 15.933594 44.5 15.597656 44.691406 15.234375 44.789062 L 20.835938 35.78125 C 20.945312 35.496094 21.171875 35.269531 21.457031 35.160156 Z M 14.398438 21.039062 L 19.617188 32.695312 C 19.6875 33.046875 19.578125 33.414062 19.324219 33.667969 C 19.066406 33.921875 18.699219 34.035156 18.347656 33.960938 L 2.917969 32.625 C 3.003906 32.214844 3.207031 31.835938 3.507812 31.535156 L 13.453125 21.59375 C 13.699219 21.347656 14.003906 21.164062 14.332031 21.058594 Z M 15.4375 21 C 15.851562 21.085938 16.238281 21.289062 16.539062 21.59375 L 26.144531 31.199219 C 26.441406 31.496094 26.644531 31.871094 26.734375 32.277344 L 22.167969 33.800781 C 21.871094 33.914062 21.539062 33.890625 21.261719 33.738281 C 20.984375 33.582031 20.785156 33.316406 20.722656 33.003906 Z M 15.4375 21 "/>
</g>
</g>
</svg>
