<svg xmlns="http://www.w3.org/2000/svg" width="200.255" height="91.803" viewBox="0 0 200.255 91.803">
  <g id="ithra-logo-vector" transform="translate(-21.798 -178.043)">
    <path id="Path_1853" data-name="Path 1853" d="M395.911,242.845c-.434,2.036-2.737,3.972-6.241,5.641a42.961,42.961,0,0,1-9.245,3,76.175,76.175,0,0,1-21.494,1.569,65.1,65.1,0,0,1-14.318-2.336h.033a61.25,61.25,0,0,1-2.737,11.014c-4.139,11.181-10.08,9.145-15.186,3.5a55.968,55.968,0,0,1-9.913-17.355,86.487,86.487,0,0,1-12.115,1.1c-7.009.1-12.316-.868-15.954-2.37-3.8-1.6-5.741-3.8-5.741-6.008,0-2.537,2.5-5.073,7.643-6.709a47.225,47.225,0,0,1,13.517-1.836,91.262,91.262,0,0,1,10.447.534,8.8,8.8,0,0,1,1.7-4.539c1.869-2.3,4.839-2.37,7.076-1.969h-.033a90.461,90.461,0,0,1-3.071-16.054,48.429,48.429,0,0,1,.167-10.08,34.291,34.291,0,0,1,1.268-5.774A24.717,24.717,0,0,1,333.064,179.9a10.711,10.711,0,0,1,6.141-1.836c7.81.6,9.479,15.486,9.045,31.974-.2,8.177-.935,16.788-1.635,24.231-.067.8-.234,2.136-.367,3.6,4.773-1.068,9.379-1.936,13.651-2.6a125.516,125.516,0,0,1,17.289-1.6c6.942-.1,12.249.734,15.486,2.537,2.67,1.535,3.872,3.738,3.237,6.642m-53.7,3.571c.133-1.035.267-2.136.4-3.338l.1-1.5q-3.1.8-6.408,1.7h0a23.351,23.351,0,0,0,5.908,3.137m-12.85,11.715c3.471,4.272,7.576,6.408,10.447-.968a38.022,38.022,0,0,0,1.936-7.409h.033a27.235,27.235,0,0,1-8.911-5.474c-3.538,1.035-6.909,1.869-10.079,2.537a54.252,54.252,0,0,0,6.575,11.314m-7.81-14.218c2.837-.5,5.841-1.168,9.045-2.036-.067-.067-.1-.133-.167-.2a29.513,29.513,0,0,1-3.071-4.739h0c-2.937-.534-5.674-.935-8.244-1.268.067.4.167.868.267,1.335a53.581,53.581,0,0,0,2.169,6.909m8.177-8.744c7.576,1.469,1.535-2.537-1.669-4.139a41.192,41.192,0,0,0,1.669,4.139m-30.472.668c-3.972.9-5.874,2.4-5.874,3.938,0,1.4,1.535,2.8,4.439,3.8a36.826,36.826,0,0,0,12.115,1.535c1.836-.033,3.838-.133,5.974-.367a46.812,46.812,0,0,1-1.4-8.01c-.033-.5-.067-1-.067-1.469-1.635-.133-3.171-.2-4.606-.234a42.439,42.439,0,0,0-10.58.8m20.56-5.54a4.615,4.615,0,0,0-.868,2.9c2.3.334,4.673.734,7.176,1.235h0a51.164,51.164,0,0,1-1.869-4.906c-1.6-.434-3.4-.534-4.439.768m23.73-20.226c-.467-11.047-2.1-20.326-6.275-21.461a4.31,4.31,0,0,0-3.171.5,16.324,16.324,0,0,0-7.877,8.978,25.632,25.632,0,0,0-1.168,4.072,39.124,39.124,0,0,0-.6,7.91,80.1,80.1,0,0,0,2.6,17.289h-.033c10.981,4.773,12.282,11.181,4.072,10.246a20.515,20.515,0,0,0,2.436,3.171l.2.234c3.137-.868,6.174-1.635,9.178-2.336.1-1.669.167-3.1.234-4.038.4-7.476.734-16.488.4-24.565m39.05,28.1c-2.236-1-5.741-1.5-10.513-1.4a94.528,94.528,0,0,0-12.249,1.2c-4.139.634-8.845,1.569-13.951,2.8-.133,1.168-.234,2.236-.3,2.837-.134,1.268-.3,2.5-.467,3.671h0a67.216,67.216,0,0,0,14.085,1.635,65.491,65.491,0,0,0,15.92-1.435,31.9,31.9,0,0,0,6.475-2.1c2.37-1.1,3.8-2.37,3.8-3.638.033-1.5-.935-2.7-2.8-3.571" transform="translate(-174.023 0)" fill="#576268"/>
    <path id="Path_1854" data-name="Path 1854" d="M108.921,291.255V274.6a8.45,8.45,0,0,1,1.268-.1c1.969,0,3.5.768,3.5,3.471v8.377h11.548c3.771,0,4.606-3.671,4.606-6.642V274.4c.434-.067.868-.067,1.3-.1,1.969,0,3.5.768,3.5,3.471v2.069c0,5.841-2.77,10.78-9.579,10.78H113.627v.4c0,5.641-3.972,8.845-8.945,8.845-3.1,0-7.576-.634-6.842-2.77l.768-2.436a18.725,18.725,0,0,0,5.507.634c3.638.033,4.806-1.869,4.806-4.038" transform="translate(-50.609 -64.13)" fill="#576268"/>
    <path id="Path_1855" data-name="Path 1855" d="M98.206,242.8v24.531a8.138,8.138,0,0,1-.935.033c-3.371,0-3.872-1.936-3.872-4.973v-23a8.55,8.55,0,0,1,1.3-.1c1.969,0,3.538.768,3.5,3.5" transform="translate(-47.704 -40.812)" fill="#576268"/>
    <path id="Path_1856" data-name="Path 1856" d="M203.74,253.737a2.72,2.72,0,1,1-2.7-2.737h0a2.692,2.692,0,0,1,2.7,2.7h0v.033" transform="translate(-117.593 -48.607)" fill="#576268"/>
    <path id="Path_1857" data-name="Path 1857" d="M194.34,236.637a2.72,2.72,0,1,1-2.7-2.737,2.692,2.692,0,0,1,2.7,2.7v.033" transform="translate(-111.33 -37.214)" fill="#576268"/>
    <path id="Path_1858" data-name="Path 1858" d="M185.04,253.737a2.72,2.72,0,1,1-2.7-2.737h0a2.692,2.692,0,0,1,2.7,2.7h0v.033" transform="translate(-105.134 -48.607)" fill="#576268"/>
    <path id="Path_1859" data-name="Path 1859" d="M28.257,292.12c-2.87,0-6.976-.567-6.375-2.57l.7-2.27a15.087,15.087,0,0,0,4.105.567,23.54,23.54,0,0,1-.367-3.438c0-4.372,1.4-7.91,7.042-7.91,3.1,0,7.543.6,6.842,2.77l-.7,2.236a18.041,18.041,0,0,0-5.307-.7c-2.87.033-3.7,1.368-3.7,3.771a20.873,20.873,0,0,0,.334,3.237h4.038a17.36,17.36,0,0,0,5.107-.567l.7,2.27c.634,2-3.471,2.57-6.341,2.57Z" transform="translate(-0.016 -65.596)" fill="#576268"/>
    <path id="Path_1860" data-name="Path 1860" d="M227.4,262.4v-23a8.55,8.55,0,0,1,1.3-.1c1.969,0,3.5.768,3.5,3.5v24.531a8.138,8.138,0,0,1-.935.033c-3.338,0-3.872-1.936-3.872-4.973" transform="translate(-136.98 -40.812)" fill="#576268"/>
    <path id="Path_1861" data-name="Path 1861" d="M223.461,336.876c-1.335,0-3.271-.4-2.937-1.368l.4-1.2a6.854,6.854,0,0,0,1.6.334c-.067-.4-.1-.834-.133-1.235,0-2,.667-3.6,3.237-3.6,1.469,0,3.471.267,3.137,1.469l-.334,1.168a7.761,7.761,0,0,0-2.436-.4c-1.068.033-1.368.534-1.368,1.4a7.3,7.3,0,0,0,.1,1.2H226.3a7.477,7.477,0,0,0,2.27-.334l.434,1.2c.334,1-1.569,1.368-2.9,1.368Z" transform="translate(-132.374 -101.107)" fill="#576268"/>
    <path id="Path_1862" data-name="Path 1862" d="M108.617,383.656c0-3.638-1.5-4.739-4.439-4.739a24.119,24.119,0,0,0-3.771.4V394.6a8.428,8.428,0,0,1-.935.033c-3.438,0-3.972-1.969-3.972-5.073V366.1a8.985,8.985,0,0,1,1.335-.1c2,0,3.571.8,3.571,3.571v4.973a31.422,31.422,0,0,1,3.972-.434c5.04,0,9.145,1.635,9.145,8.144v12.382a8.444,8.444,0,0,1-.935.033c-3.438,0-3.972-1.969-3.972-5.073Z" transform="translate(-49.103 -125.225)" fill="#576268"/>
    <path id="Path_1863" data-name="Path 1863" d="M54.974,397.435c-4.005,0-5.874-2.2-5.874-6.275V370.4a8.989,8.989,0,0,1,1.335-.1c2,0,3.571.8,3.571,3.571v3.771h7.51v4.573h-7.51v7.176c0,1.836.033,3.338,1.535,3.338a19.728,19.728,0,0,0,5.641-.634l.8,2.47c.734,2.27-3.838,2.87-7.009,2.87" transform="translate(-18.19 -128.089)" fill="#576268"/>
    <path id="Path_1864" data-name="Path 1864" d="M158.8,406.553V392.334a46.961,46.961,0,0,1,7.777-.834h3.7v4.706h-2.837a22.234,22.234,0,0,0-3.771.367v15.053a8.443,8.443,0,0,1-.935.033c-3.438-.033-3.972-2-3.938-5.107" transform="translate(-91.273 -142.214)" fill="#576268"/>
    <path id="Path_1865" data-name="Path 1865" d="M29.006,395.671v16.321a8.444,8.444,0,0,1-.935.033c-3.438,0-3.972-1.969-3.972-5.073V392.2a8.659,8.659,0,0,1,1.335-.1c1.969,0,3.571.768,3.571,3.571" transform="translate(-1.534 -142.613)" fill="#576268"/>
    <path id="Path_1866" data-name="Path 1866" d="M27.339,369.9a2.77,2.77,0,1,1,0-.067v.067" transform="translate(0 -125.956)" fill="#576268"/>
    <path id="Path_1867" data-name="Path 1867" d="M203.344,390.3c-3.171,0-7.743.634-6.976,2.837l.8,2.47a19.418,19.418,0,0,1,5.641-.634c3.7,0,4.873.768,4.873,2.97v.267a29.667,29.667,0,0,0-3.838-.267c-5.407,0-9.245,2.27-9.245,6.709,0,4.873,4.439,6.608,9.412,6.608a24.431,24.431,0,0,0,8.611-1.569V398.143c-.033-5.774-4.139-7.843-9.278-7.843m4.339,15.92a12.184,12.184,0,0,1-3.638.567c-2.4,0-4.339-.634-4.339-2.47,0-1.9,2.1-2.537,4.639-2.537a12.552,12.552,0,0,1,3.338.434Z" transform="translate(-115.128 -141.414)" fill="#576268"/>
  </g>
</svg>
