<svg width="130" height="31" viewBox="0 0 130 31" fill="none" xmlns="http://www.w3.org/2000/svg">
<path d="M30.8057 15.621V30.955H24.0347V15.621C24.0347 13.35 23.1325 11.1719 21.5267 9.56604C19.9208 7.96017 17.7428 7.05802 15.4717 7.05802C13.2007 7.05802 11.0226 7.96017 9.41675 9.56604C7.81087 11.1719 6.90872 13.35 6.90872 15.621V30.955H0.136719V15.621C0.141812 13.1057 0.761431 10.6297 1.94168 8.40845C3.12193 6.1872 4.82706 4.28797 6.90872 2.87601C8.48183 1.82723 10.2385 1.08426 12.0867 0.686009C14.3124 0.154143 16.632 0.154143 18.8577 0.686009C20.7055 1.08465 22.4618 1.82759 24.0347 2.87601C26.1161 4.28815 27.821 6.18744 29.0011 8.40866C30.1811 10.6299 30.8006 13.1058 30.8057 15.621Z" fill="white"/>
<path d="M40.4265 13.0312C40.943 11.2968 42.0083 9.77675 43.4624 8.69937C44.9164 7.62199 46.6808 7.04541 48.4905 7.05621C50.3039 7.03077 52.0754 7.60172 53.5327 8.68124C54.99 9.76076 56.0524 11.2891 56.5565 13.0312H40.4265ZM63.8265 15.6202C63.8609 11.8688 62.5317 8.23266 60.0861 5.38788C57.6405 2.54309 54.2449 0.683362 50.5308 0.154569C46.8167 -0.374224 43.037 0.463911 39.8946 2.51309C36.7522 4.56227 34.461 7.68301 33.4471 11.2949C32.4332 14.9068 32.7656 18.7641 34.3826 22.1492C35.9995 25.5344 38.7909 28.2171 42.2376 29.6984C45.6843 31.1797 49.5517 31.3587 53.1205 30.2023C56.6893 29.0458 59.7166 26.6325 61.6394 23.4112L55.8535 19.9792C55.0943 21.2559 54.017 22.314 52.7269 23.0501C51.4368 23.7862 49.9778 24.1752 48.4925 24.1792C46.6737 24.1692 44.9067 23.5727 43.454 22.4785C42.0012 21.3842 40.9401 19.8505 40.4284 18.1052H63.6285C63.7485 17.2807 63.8153 16.4493 63.8285 15.6162" fill="white"/>
<path d="M96.8458 15.6212C96.8456 18.654 95.9461 21.6188 94.261 24.1404C92.5759 26.6621 90.1809 28.6275 87.3788 29.788C84.5767 30.9486 81.4934 31.2522 78.5188 30.6605C75.5442 30.0687 72.8119 28.6082 70.6673 26.4636C68.5227 24.319 67.0622 21.5867 66.4705 18.6121C65.8788 15.6375 66.1824 12.5542 67.3429 9.75217C68.5034 6.9501 70.4688 4.5551 72.9905 2.87C75.5122 1.18489 78.4769 0.285354 81.5098 0.285156C83.5238 0.285025 85.5181 0.681611 87.3788 1.45227C89.2395 2.22293 90.9302 3.35257 92.3543 4.77667C93.7784 6.20078 94.908 7.89146 95.6787 9.75217C96.4493 11.6129 96.8459 13.6072 96.8458 15.6212Z" fill="#ED1F4A"/>
<path d="M114.53 24.1837C112.259 24.1837 110.081 23.2814 108.475 21.6754C106.869 20.0693 105.966 17.891 105.966 15.6197C105.966 13.3484 106.869 11.1701 108.475 9.56407C110.081 7.95801 112.259 7.05571 114.53 7.05571C116.802 7.05571 118.98 7.95801 120.586 9.56407C122.192 11.1701 123.094 13.3484 123.094 15.6197C123.094 17.891 122.192 20.0693 120.586 21.6754C118.98 23.2814 116.802 24.1837 114.53 24.1837ZM114.53 0.283703C111.486 0.301859 108.511 1.20107 105.966 2.87272C103.885 4.28489 102.18 6.18431 101 8.40574C99.8195 10.6272 99.2001 13.1033 99.1953 15.6187V30.9527H105.966V27.6527C108.29 29.8139 111.357 30.9959 114.53 30.9527C116.554 30.9691 118.562 30.5845 120.437 29.8212C122.311 29.0579 124.017 27.9309 125.454 26.5054C126.891 25.0798 128.032 23.3839 128.81 21.5153C129.588 19.6467 129.989 17.6424 129.989 15.6182C129.989 13.594 129.588 11.5898 128.81 9.72117C128.032 7.85258 126.891 6.15659 125.454 4.73103C124.017 3.30547 122.311 2.17854 120.437 1.41523C118.562 0.651931 116.554 0.267357 114.53 0.283703Z" fill="white"/>
</svg>
