<svg width="64" height="65" viewBox="0 0 64 65" fill="none" xmlns="http://www.w3.org/2000/svg">
<path d="M0.5 32.6426C0.5 50.0395 14.603 64.1426 32 64.1426C49.397 64.1426 63.5 50.0395 63.5 32.6426C63.5 15.2456 49.397 1.14258 32 1.14258C14.603 1.14258 0.5 15.2456 0.5 32.6426Z" fill="black" stroke="#ED1F4A"/>
<path d="M32 64.1426C14.603 64.1426 0.5 50.0395 0.5 32.6426C0.5 15.2456 14.603 1.14258 32 1.14258C49.397 1.14258 63.5 15.2456 63.5 32.6426C63.5 50.0395 49.397 64.1426 32 64.1426Z" stroke="#ED1F4A"/>
<path d="M35.7603 40.4338C35.9071 40.2949 35.9927 40.1034 35.9983 39.9015C36.0039 39.6995 35.9291 39.5036 35.7903 39.3568L29.4293 32.6428L35.7903 25.9288C35.9293 25.782 36.0043 25.586 35.9987 25.3839C35.9932 25.1818 35.9076 24.9902 35.7608 24.8513C35.614 24.7123 35.418 24.6373 35.216 24.6429C35.0139 24.6484 34.8223 24.734 34.6833 24.8808L27.8263 32.1188C27.6921 32.2602 27.6172 32.4478 27.6172 32.6428C27.6172 32.8378 27.6921 33.0254 27.8263 33.1668L34.6833 40.4048C34.8223 40.5514 35.0139 40.6368 35.2158 40.6423C35.4178 40.6477 35.6136 40.5727 35.7603 40.4338Z" fill="#ED1F4A"/>
</svg>
