<svg width="165" height="132" viewBox="0 0 165 132" fill="none" xmlns="http://www.w3.org/2000/svg">
<path d="M46.3912 53.0254H42.2148C42.2148 58.7027 42.1984 62.3864 42.1902 68.0638C40.3933 62.5177 38.5963 58.8504 36.7994 53.0254H32.7871V79.6564C34.141 79.4677 35.5933 79.279 36.9471 79.0985C36.9471 73.5278 36.9471 70.1066 36.9553 64.5442C38.8179 70.0246 39.9666 73.2571 41.8292 78.4668C43.2897 78.3027 44.8897 78.0976 46.3502 77.9499C46.3666 69.639 46.383 61.3363 46.3912 53.0254Z" fill="#ED2517"/>
<path d="M61.9978 53.0254H50.4203C50.4039 61.2132 50.3875 69.4093 50.3711 77.5971C54.2439 77.2443 58.1167 76.9572 61.9978 76.7357C61.9978 75.5378 61.9978 73.815 61.9978 72.6171C59.4788 72.773 57.0583 72.9371 54.5475 73.1012C54.5475 70.9024 54.5557 69.0811 54.5639 66.8742C56.4019 66.8413 58.3383 66.8742 60.2173 66.8413C60.2173 65.6353 60.2173 63.9124 60.2173 62.7064C58.3547 62.7392 56.3937 62.7392 54.5639 62.7802C54.5639 60.5815 54.5721 59.3673 54.5803 57.1685C55.7291 57.1521 56.8614 57.1521 57.9855 57.1521C58.1824 57.1521 58.3793 57.1521 58.5762 57.1521H59.167C60.1024 57.1521 61.046 57.1521 62.006 57.1439C62.006 55.9461 61.9814 54.2232 61.9814 53.0254" fill="#ED2517"/>
<path d="M77.6032 53.0414C73.3529 53.0414 68.9632 53.0414 64.7129 53.0414C64.7129 54.231 64.7129 55.9457 64.7129 57.1353C64.9016 57.1353 65.0821 57.1353 65.2708 57.1353C65.8288 57.1353 66.3867 57.1353 66.9529 57.1435C67.5108 57.1435 68.0688 57.1517 68.6349 57.1517C68.7744 57.1517 68.9221 57.1517 69.0616 57.1517C69.0534 63.7562 69.0452 69.7863 69.037 76.3907C70.399 76.3415 71.8596 76.3005 73.2216 76.2594C73.2216 69.696 73.238 63.6987 73.238 57.1271C74.6821 57.1271 76.1673 57.1189 77.6114 57.1107C77.6114 55.9375 77.6114 54.1982 77.6114 53.0332" fill="#ED2517"/>
<path d="M91.9372 53.0238H80.3105C80.3105 60.7358 80.3105 68.4396 80.3105 76.1516C80.7618 76.1516 81.2131 76.1516 81.6726 76.1516C82.5998 76.1516 83.5352 76.1516 84.4541 76.1598C84.4541 72.8863 84.4541 69.9 84.4541 66.6265C84.6839 66.6265 84.9136 66.6265 85.1434 66.6265C85.6849 66.6265 86.2347 66.6265 86.7844 66.6265C87.3341 66.6265 87.8921 66.6265 88.4418 66.6265C88.9916 66.6265 89.5659 66.6265 90.1157 66.6347C90.1157 65.4615 90.1157 63.714 90.1157 62.5408C89.5988 62.5408 89.0654 62.5408 88.5321 62.5408C87.9577 62.5408 87.3834 62.5408 86.809 62.5408C86.2347 62.5408 85.6603 62.5408 85.1023 62.5408C84.889 62.5408 84.6757 62.5408 84.4623 62.5408C84.4623 60.4405 84.4623 59.2509 84.4623 57.1506C84.9136 57.1506 85.3731 57.1506 85.8244 57.1506C86.2757 57.1506 86.7434 57.1506 87.1947 57.1506C87.6541 57.1506 88.1136 57.1506 88.5731 57.1506C89.6972 57.1506 90.8213 57.1506 91.9536 57.1506C91.9536 55.9774 91.9536 54.197 91.9536 53.0156" fill="#ED2517"/>
<path d="M94.6525 53.0414C94.6607 60.8272 94.6279 68.6131 94.6361 76.3907C98.353 76.5302 102.259 76.6779 105.967 76.9322C105.967 75.7344 105.967 74.0115 105.967 72.8137C103.621 72.6742 101.176 72.5101 98.8207 72.4116C98.8125 65.7416 98.8453 59.6951 98.8371 53.0332C97.4751 53.0332 96.0228 53.0332 94.6607 53.0332" fill="#ED2517"/>
<path d="M109.398 53.041C109.415 61.0894 109.431 69.1378 109.448 77.1943C110.81 77.301 112.221 77.4158 113.575 77.5307C113.575 69.3757 113.591 61.2042 113.575 53.041C112.213 53.041 110.76 53.041 109.398 53.041Z" fill="#ED2517"/>
<path d="M117.161 53.0418C118.835 57.1111 120.361 61.1968 122.059 65.5123C120.295 69.6636 118.498 73.7903 116.742 77.7694C118.203 77.9171 119.712 78.1222 121.173 78.2863C122.215 75.7183 123.167 73.7493 124.217 71.1158C125.259 73.9216 126.211 76.0875 127.253 78.9836C128.705 79.1723 130.592 79.4431 132.053 79.6482C130.289 74.9389 128.361 70.0328 126.588 65.5779C128.352 61.3937 130.158 57.4065 131.987 53.0336C130.486 53.0336 128.927 53.0336 127.425 53.0336C126.293 55.7328 125.513 57.4721 124.43 60.04C123.421 57.3654 122.74 55.6343 121.731 53.0254C120.229 53.0254 118.67 53.0254 117.169 53.0254" fill="#ED2517"/>
</svg>
