<svg width="165" height="132" viewBox="0 0 165 132" fill="none" xmlns="http://www.w3.org/2000/svg">
<path d="M132.841 66.1202C134.376 65.7674 135.968 66.3663 136.887 67.6379L129.888 69.2214C130.126 67.7364 131.258 66.4811 132.841 66.1202ZM136.928 71.9452C136.378 72.7492 135.541 73.3071 134.589 73.5204C132.997 73.8814 131.406 73.2168 130.528 71.978L137.551 70.3864L138.692 70.1238L140.882 69.6316C140.866 69.1639 140.809 68.6963 140.702 68.2369C139.816 64.4629 135.968 62.1083 132.111 62.9779C128.255 63.8476 125.851 67.6215 126.745 71.3955C127.631 75.1694 131.479 77.5323 135.336 76.6544C137.609 76.1375 139.373 74.6198 140.259 72.6836L136.936 71.937L136.928 71.9452ZM120.411 76.4657V66.4483H118.253V63.0354H120.411V58.3425H124.078V63.0354H126.835V66.4483H124.078V76.4657H120.411ZM113.395 76.4657H116.94V63.0436H113.395V76.4657ZM112.936 58.3261C112.936 57.0873 113.912 56.152 115.184 56.152C116.456 56.152 117.399 57.0873 117.399 58.3261C117.399 59.565 116.448 60.5331 115.184 60.5331C113.92 60.5331 112.936 59.5732 112.936 58.3261ZM112.165 63.0764C110.351 63.1666 109.284 63.4456 108.193 64.2332V63.0354H104.649V76.4575H108.193V69.8777C108.193 67.8102 108.702 66.6288 112.165 66.514V63.0764ZM92.4147 69.9598C92.505 71.9206 94.2117 73.5614 96.2958 73.5614C98.3799 73.5614 100.152 71.8303 100.152 69.7875C100.152 67.7446 98.4209 66.0381 96.2958 66.0381C94.1706 66.0381 92.505 67.7118 92.4147 69.6398V69.9598ZM88.9604 76.4657V56.636L92.505 55.832V64.0363C93.5963 63.1584 94.9009 62.7892 96.3122 62.7892C100.349 62.7892 103.574 65.8986 103.574 69.7957C103.574 73.6927 100.349 76.8267 96.3122 76.8267C94.9009 76.8267 93.6045 76.4575 92.505 75.5879V76.4657H88.9604ZM81.4116 76.4657V66.3827H79.2537V63.0436H81.4116V58.3425L85.0793 57.5139V63.0436H87.8363V66.3827H85.0793V76.4657H81.4116ZM74.9132 76.4657V69.2952C74.9132 66.6945 73.5019 66.1284 72.0906 66.1284C70.6793 66.1284 69.268 66.6616 69.268 69.2378V76.4657H65.7234V63.0436H69.268V64.0445C70.0475 63.4784 70.9993 62.7974 72.8701 62.7974C75.865 62.7974 78.4578 64.5203 78.4578 68.7291V76.4657H74.9132ZM56.7388 66.1202C58.3224 65.7592 59.906 66.4073 60.7839 67.6379L53.7849 69.2214C54.0229 67.7364 55.1552 66.4811 56.7388 66.1202ZM60.8249 71.9452C60.2752 72.7492 59.4383 73.3071 58.4865 73.5204C56.9439 73.8732 55.3439 73.2661 54.4249 71.978L61.4485 70.3864L62.5891 70.1238L64.7716 69.6316C64.7552 69.1639 64.6978 68.6963 64.5911 68.2369C63.705 64.4629 59.8567 62.1083 56.0003 62.9779C52.1439 63.8476 49.7398 67.6215 50.6342 71.3955C51.5203 75.1694 55.3685 77.5323 59.2249 76.6544C61.4978 76.1375 63.2619 74.6198 64.148 72.6836L60.8249 71.937V71.9452ZM42.2813 76.4657L36.7757 63.0436H40.6403L44.1275 72.1503L47.6475 63.0436H51.5121L46.0065 76.4657H42.2895H42.2813ZM29.8259 66.112C31.3603 65.7592 32.9521 66.3581 33.8711 67.6297L26.8721 69.2132C27.11 67.7282 28.2423 66.4729 29.8259 66.112ZM33.9121 71.937C33.3623 72.741 32.5254 73.2989 31.5736 73.5122C29.9818 73.8732 28.39 73.2086 27.5121 71.9698L34.5357 70.3782L35.6762 70.1156L37.8588 69.6234C37.8424 69.1557 37.7849 68.6881 37.6783 68.2287C36.7921 64.4547 32.9439 62.0919 29.0875 62.9697C25.2311 63.8394 22.8352 67.6133 23.7213 71.3873C24.6075 75.1612 28.4557 77.5159 32.3121 76.6462C34.5849 76.1293 36.349 74.6116 37.2352 72.6754L33.9121 71.9288V71.937Z" fill="#F05537"/>
</svg>
