<svg width="121" height="132" viewBox="0 0 121 132" fill="none" xmlns="http://www.w3.org/2000/svg">
<path fill-rule="evenodd" clip-rule="evenodd" d="M81.4452 46.2371C81.8553 47.3609 82.7822 48.5256 82.126 49.8216C81.8061 51.1422 80.5511 52.2167 79.2305 52.43C77.8524 52.553 76.5318 52.3233 75.5147 51.4867C74.7847 47.6644 76.335 44.1291 79.3535 42.0293L81.4452 46.2453V46.2371Z" fill="#CE1141"/>
<path fill-rule="evenodd" clip-rule="evenodd" d="M86.7697 57.8755C86.0807 60.1886 79.2561 58.6711 77.1152 54.8734C79.9287 55.1851 83.0949 52.6916 83.1523 49.8535L86.7779 57.8673L86.7697 57.8755Z" fill="#CE1141"/>
<path fill-rule="evenodd" clip-rule="evenodd" d="M89.5667 57.5796C89.8784 57.4401 90.51 57.1284 90.6658 56.4558L83.3163 40.5267C82.8242 40.4611 82.4714 40.4201 81.8398 40.863L89.5585 57.5796H89.5667Z" fill="#CE1141"/>
<path fill-rule="evenodd" clip-rule="evenodd" d="M92.8652 54.1184C95.9904 49.3856 93.3574 41.6261 86.623 40.5352L92.8652 54.1184Z" fill="#CE1141"/>
<path fill-rule="evenodd" clip-rule="evenodd" d="M92.1738 64.3067C93.1581 63.4783 94.8889 63.4619 96.0126 63.995C96.4884 64.2329 96.9395 64.5446 97.2348 64.9629L95.0693 68.3259C94.7904 68.1126 94.5936 68.0142 94.2408 67.8338C93.1663 67.3744 92.0344 67.6451 91.3863 68.2275V78.0458C91.3699 79.7437 91.6652 81.2939 92.5511 82.0978H87.6296C86.6042 81.3103 86.3499 80.0472 86.2515 78.948L86.2105 65.8898C86.2515 64.8317 85.9808 64.3641 85.5625 63.7736L90.6563 63.79C91.0664 64.0853 91.0911 64.5938 91.3043 64.9875L92.1738 64.2985V64.3067Z" fill="#CE1141"/>
<path fill-rule="evenodd" clip-rule="evenodd" d="M98.3925 67.5282C98.3515 66.2896 98.6304 64.805 97.8184 63.7305H102.543C102.855 63.9683 103.035 64.3621 103.134 64.7312C103.388 65.0675 103.372 65.535 103.486 65.9287L103.527 79.84C103.724 80.6685 104.036 81.5051 104.651 82.1531H99.5901C97.9332 80.5618 98.4746 77.9288 98.3515 75.2138L98.3925 67.52V67.5282Z" fill="#CE1141"/>
<path fill-rule="evenodd" clip-rule="evenodd" d="M105.872 67.6694C106.381 66.2504 107.98 65.545 109.137 64.7739C110.909 64.1259 112.853 62.5101 114.846 63.8306C116.503 64.9134 117.955 66.1355 118.996 67.8088C119.251 68.4568 119.374 69.1868 119.546 69.8758C119.546 70.8027 119.743 71.4917 119.726 72.4186C119.784 73.4193 119.784 74.3297 119.726 75.314C119.669 76.9873 118.882 78.4802 117.561 79.6449C115.592 81.4002 113.115 83.3852 110.433 82.0236C108.03 80.8999 105.2 78.677 105.372 75.6257C105.273 73.4603 105.175 71.5901 105.47 69.4821C105.585 68.8751 105.528 68.2025 105.864 67.6694H105.872ZM110.794 77.5123C111.032 78.3817 111.483 79.4398 112.525 79.5629C113.132 79.5793 113.591 79.0707 113.944 78.636C115.043 76.4706 114.887 74.1083 114.887 71.6475C114.534 69.8184 114.969 67.3167 113 66.1929C112.311 65.9387 111.778 66.4062 111.343 66.8409C110.572 68.0057 110.49 69.3345 110.441 70.8109C110.187 73.1732 110.457 75.1336 110.794 77.5123Z" fill="#CE1141"/>
<path fill-rule="evenodd" clip-rule="evenodd" d="M123.23 82.1381C121.704 81.3425 121.467 79.0868 121.499 73.6158L121.532 65.2247H118.637L119.285 63.6663H121.532V59.6881L126.905 57.7031V63.535H129.366L128.718 65.2575H126.905L126.897 79.784C127.012 80.957 127.405 81.646 127.971 82.1463H123.23V82.1381Z" fill="#CE1141"/>
<path fill-rule="evenodd" clip-rule="evenodd" d="M74.1128 65.8902C74.08 64.8321 73.8832 64.3645 73.4648 63.774L78.5587 63.7904C78.9688 64.0857 78.9934 64.5942 79.2067 64.9879L80.0761 64.2989C81.0605 63.4705 82.7912 63.4541 83.915 63.9872C84.3907 64.2251 84.8418 64.5368 85.1371 64.9551L82.9717 68.3181C82.6928 68.1048 82.4959 68.0064 82.1432 67.826C81.0687 67.3666 79.9367 67.6373 79.2887 68.2197V78.038C79.2723 79.7359 79.5676 81.2861 80.4535 82.09H75.5319C74.5066 81.3025 74.2195 80.1296 74.1539 78.9402L74.1128 65.882V65.8902Z" fill="#CE1141"/>
<path fill-rule="evenodd" clip-rule="evenodd" d="M35.5518 71.0567L33.6899 74.8626C32.4267 77.11 30.6549 79.8661 27.9316 80.5551C26.8817 80.9242 25.9466 80.5879 24.9295 80.5222L21.6484 85.8948C21.8945 86.1573 22.239 86.3788 22.5753 86.51C28.3582 88.7165 30.6795 86.346 36.3721 73.4846L41.7448 84.9352H48.9057L45.5262 77.2085L47.4374 73.2139L52.7281 84.7629L59.5773 84.8039L47.5933 58.4578L42.0729 61.2056L46.4039 71.0403L44.5091 74.9036L36.5772 57.7852L30.7615 60.7462L35.5683 71.0567H35.5518Z" fill="#CE1141"/>
<path fill-rule="evenodd" clip-rule="evenodd" d="M57.5584 75.6983C57.6978 73.7872 58.7395 71.999 60.5113 71.0312C62.2667 69.9484 64.3091 69.5137 66.1219 68.5704C66.4336 68.3162 66.8273 67.9963 66.8519 67.5861C66.8683 67.0776 66.614 66.6839 66.1629 66.5034C63.4068 65.9129 61.1265 67.6436 59.1169 69.3579C59.3711 68.0947 59.568 66.7249 60.1586 65.5437C60.4539 65.2321 60.6343 64.7973 61.0281 64.5595C62.9803 63.5916 65.4165 63.3209 67.5984 63.4767C69.3865 63.5916 71.0434 64.8711 71.6504 66.5034C71.9621 67.2745 71.9457 68.1357 72.0031 68.9231L72.0196 79.5863C72.036 80.5131 72.4707 81.3744 73.0203 82.129H67.9265C67.3195 81.5795 67.016 80.8905 66.8437 80.021C65.4165 81.2842 62.4389 83.1543 60.6672 81.9076C58.8298 81.0791 57.1482 78.3067 57.5584 75.6901V75.6983ZM66.5894 71.9908C66.5484 71.2526 66.0152 71.1706 65.6461 71.1706C64.4239 71.3511 63.374 72.3681 62.7916 73.4099C62.2667 74.3449 62.1436 75.1324 62.1026 75.9526C62.1026 76.8303 62.0452 77.4865 62.3979 78.1591C62.5948 78.5938 63.0295 78.7906 63.4396 78.9055C64.2271 79.0613 64.9571 78.8481 65.5641 78.4297C66.9996 77.6259 66.7453 76.01 66.7617 74.5746L66.5812 71.9826L66.5894 71.9908Z" fill="#CE1141"/>
</svg>
