<svg width="165" height="132" viewBox="0 0 165 132" fill="none" xmlns="http://www.w3.org/2000/svg">
<path d="M53.2748 60.8625H40.0194V64.7915H49.4032C48.9438 70.3117 44.3421 72.6412 40.0194 72.6412C34.4662 72.6412 29.6513 68.2857 29.6513 62.1831C29.6513 56.0805 34.2529 51.6594 40.0194 51.6594C44.4652 51.6594 47.1064 54.5139 47.1064 54.5139L49.8707 51.6594C49.8707 51.6594 46.3436 47.7305 39.9045 47.7305C31.7101 47.7305 25.3613 54.6615 25.3613 62.1175C25.3613 69.5735 31.341 76.5948 40.1178 76.5948C47.8447 76.5948 53.4963 71.2878 53.4963 63.4627C53.4963 61.8058 53.283 60.8543 53.283 60.8543L53.2748 60.8625Z" fill="#4285F4"/>
<path d="M64.1018 58.0059C58.6716 58.0059 54.7754 62.2711 54.7754 67.209C54.7754 72.1468 58.5486 76.5679 64.1592 76.5679C69.253 76.5679 73.3953 72.6718 73.3953 67.332C73.4281 61.1638 68.5804 58.0059 64.1018 58.0059ZM64.1592 61.6559C66.825 61.6559 69.376 63.805 69.376 67.2992C69.376 70.7934 66.8578 72.9425 64.1592 72.9425C61.1816 72.9425 58.8521 70.5802 58.8521 67.2992C58.8521 64.0182 61.1488 61.6559 64.1592 61.6559Z" fill="#EA4335"/>
<path d="M84.4006 58.0059C78.9705 58.0059 75.0742 62.2711 75.0742 67.209C75.0742 72.1468 78.8474 76.5679 84.458 76.5679C89.5518 76.5679 93.6941 72.6718 93.6941 67.332C93.6941 61.1638 88.8464 58.0059 84.4006 58.0059ZM84.458 61.6559C87.1238 61.6559 89.6749 63.805 89.6749 67.2992C89.6749 70.7934 87.1567 72.9425 84.458 72.9425C81.4805 72.9425 79.1509 70.5802 79.1509 67.2992C79.1181 64.051 81.4476 61.6559 84.458 61.6559Z" fill="#FBBC05"/>
<path d="M104.285 58.0059C99.281 58.0059 95.3848 62.3613 95.3848 67.2664C95.3848 72.8522 99.929 76.5597 104.219 76.5597C106.86 76.5597 108.271 75.518 109.313 74.2876V76.125C109.313 79.3157 107.377 81.2515 104.432 81.2515C101.488 81.2515 100.167 79.1353 99.6747 77.9377L96.1148 79.4388C97.3698 82.1045 99.9208 84.9016 104.457 84.9016C109.428 84.9016 113.201 81.7765 113.201 75.2391V58.5554H109.305V60.1221C108.107 58.8671 106.45 58.0059 104.276 58.0059H104.285ZM104.654 61.6559C107.106 61.6559 109.624 63.7393 109.624 67.2992C109.624 70.859 107.106 72.9096 104.621 72.9096C101.955 72.9096 99.4943 70.7606 99.4943 67.3238C99.4615 63.764 102.037 61.6477 104.646 61.6477L104.654 61.6559Z" fill="#4285F4"/>
<path d="M130.484 58.0059C125.792 58.0059 121.83 61.7462 121.83 67.2664C121.83 73.1229 126.251 76.5925 130.943 76.5925C134.872 76.5925 137.292 74.4435 138.703 72.5159L135.479 70.3669C134.651 71.6547 133.24 72.9096 130.935 72.9096C128.327 72.9096 127.129 71.466 126.391 70.088L138.842 64.9369L138.194 63.4359C136.997 60.4584 134.175 58.0059 130.467 58.0059H130.484ZM130.664 61.5657C132.354 61.5657 133.576 62.4516 134.101 63.5589L125.784 67.0285C125.415 64.3299 127.966 61.5657 130.664 61.5657Z" fill="#EA4335"/>
<path d="M119.983 48.6875H115.906V76.0508H119.983V48.6875Z" fill="#34A853"/>
</svg>
