<svg xmlns="http://www.w3.org/2000/svg" width="129.728" height="30.671" viewBox="0 0 129.728 30.671">
  <g id="Group_2" data-name="Group 2" transform="translate(-4486.437 1071.961)">
    <path id="Path_1" data-name="Path 1" d="M339.106,286.374v15.334h-6.771V286.374a8.563,8.563,0,1,0-17.126,0v15.334h-6.772V286.374a15.438,15.438,0,0,1,6.772-12.745,15.049,15.049,0,0,1,5.178-2.19,14.566,14.566,0,0,1,6.771,0,15.061,15.061,0,0,1,5.177,2.19,15.439,15.439,0,0,1,6.771,12.745" transform="translate(4178 -1343)"/>
    <path id="Path_2" data-name="Path 2" d="M372.979,283.785a8.362,8.362,0,0,1,8.064-5.975,8.276,8.276,0,0,1,8.066,5.975Zm23.4,2.589a15.478,15.478,0,1,0-2.187,7.791l-5.786-3.432a8.591,8.591,0,0,1-7.361,4.2,8.452,8.452,0,0,1-8.064-6.074h23.2a19.4,19.4,0,0,0,.2-2.489" transform="translate(4153.748 -1343)"/>
    <path id="Path_3" data-name="Path 3" d="M453.651,286.375a15.335,15.335,0,1,1-15.336-15.336,15.335,15.335,0,0,1,15.336,15.336" transform="translate(4129.494 -1343)" fill="#ed1f4a"/>
    <path id="Path_4" data-name="Path 4" d="M495.589,294.937a8.564,8.564,0,1,1,0-17.128,8.564,8.564,0,0,1,0,17.128m0-23.9a15.77,15.77,0,0,0-8.564,2.589,15.438,15.438,0,0,0-6.771,12.746v15.334h6.771v-3.3a12.328,12.328,0,0,0,8.564,3.3,15.335,15.335,0,1,0,0-30.669" transform="translate(4105.241 -1343)"/>
  </g>
</svg>
