<svg width="165" height="132" viewBox="0 0 165 132" fill="none" xmlns="http://www.w3.org/2000/svg">
<path fill-rule="evenodd" clip-rule="evenodd" d="M93.7261 61.2267V58.7572H84.922V71.4492H93.7261V68.8731H88.4912V66.059H92.8482V63.5978H88.4912V61.2267H93.7261ZM109.25 68.9469H103.753V58.7572H100.143V71.4492H109.25V68.9469ZM138.305 63.5978C135.868 63.0481 135.023 62.9906 135.023 62.0143C135.023 61.1119 136.229 60.8329 136.926 60.8329C138.05 60.8329 139.371 61.0955 140.725 61.7846L141.71 59.4464C140.323 58.6916 138.551 58.3799 136.844 58.3799C133.488 58.3799 131.24 59.7418 131.142 62.3917C131.043 64.812 133.012 65.7144 134.826 66.0918C136.573 66.4528 138.337 66.7564 138.378 67.7983C138.411 68.75 137.55 69.1602 135.933 69.1602C134.432 69.1602 133.037 68.6762 131.609 68.0773L130.772 70.6124C132.413 71.3097 134.079 71.6953 135.794 71.6953C138.182 71.6953 139.921 71.3262 141.201 70.1201C142.087 69.2915 142.383 68.2988 142.383 67.3471C142.383 65.3371 141.135 64.2049 138.329 63.5731L138.305 63.5978ZM79.8102 61.2677V58.7654H68.7415V61.2677H72.483V71.4574H76.0686V61.2677H79.8102ZM121.558 58.7654V66.8302C121.558 67.462 121.558 67.6342 121.517 67.8804C121.402 68.6516 120.655 69.0946 119.466 69.111C118.588 69.0946 117.939 68.8403 117.644 68.3726C117.496 68.1347 117.414 67.7081 117.414 67.0353V58.7572H113.673V67.503C113.673 68.7172 113.837 69.2587 114.378 69.956C115.281 71.0882 117.045 71.6789 119.466 71.6789H119.597C122.846 71.6789 124.52 70.4155 125.004 69.2259C125.242 68.6516 125.267 68.3808 125.267 67.224V58.7572H121.55L121.558 58.7654ZM70.4317 55.2868L49.4512 59.4628V60.9232L49.5168 60.9068C63.3753 57.5348 70.4317 55.5084 70.4891 55.5002C70.563 55.4838 70.5958 55.4181 70.5876 55.3689C70.5794 55.3115 70.522 55.2704 70.4399 55.2868H70.4317Z" fill="#313C93"/>
<path fill-rule="evenodd" clip-rule="evenodd" d="M52.8243 56.4518C53.1443 56.2385 53.2428 56.3697 53.1443 56.6077C52.9884 56.9851 52.2828 59.2576 46.9987 63.5895C45.6202 64.7217 44.6438 65.3534 42.6581 66.5266C45.9074 61.9732 50.6499 57.8629 52.8243 56.4518ZM53.374 54.8848C52.3566 54.9422 50.4694 56.4518 49.4274 57.3542C45.3002 60.9231 42.2315 64.2048 39.9997 67.6424C35.3474 70.1365 29.415 72.6962 23.5238 74.698L23.3843 74.7473L22.252 77.7992L22.9002 77.5449C26.6499 76.1174 32.9022 73.4346 38.5638 70.4564C38.2438 71.3097 38.0879 72.0891 38.0879 72.8028C38.0879 73.3361 38.1781 73.8284 38.3586 74.2796C38.7115 75.1821 39.4171 75.8548 40.3935 76.2486C41.8458 76.8229 43.8233 76.8393 46.0797 76.1584C51.8479 74.4109 58.691 69.0453 60.1843 67.9787L60.2417 67.9377C60.2992 67.8967 60.3074 67.8311 60.2828 67.79C60.25 67.7408 60.1843 67.7244 60.1269 67.7572L60.053 67.8065C58.453 68.7664 50.6828 73.3771 45.6366 74.7308C43.0684 75.42 41.1074 75.0426 40.3607 74.0089C40.1063 73.6561 39.9833 73.2131 39.9833 72.688C39.9833 71.6707 40.4592 70.3744 41.3863 68.9304C42.1822 68.4792 42.9699 68.0116 43.7412 67.5275C48.6643 64.7627 54.3423 59.3807 54.5884 56.0908C54.5884 56.0662 54.5884 56.0416 54.5884 56.0169C54.5884 55.738 54.4653 55.4427 54.252 55.2293C54.0305 54.9996 53.7105 54.8766 53.3905 54.9012L53.374 54.8848Z" fill="#93C04E"/>
<path fill-rule="evenodd" clip-rule="evenodd" d="M49.3803 59.4793L27.3084 64.2219L26.4551 66.5193L49.4459 60.9316H49.4787V59.4629L49.372 59.4875L49.3803 59.4793Z" fill="#313C93"/>
</svg>
