<?xml version="1.0" encoding="UTF-8"?>
<svg xmlns="http://www.w3.org/2000/svg" xmlns:xlink="http://www.w3.org/1999/xlink" width="1440px" height="949px" viewBox="0 0 1440 949" version="1.1">
<defs>
<clipPath id="clip1">
  <path d="M 1251 235 L 1440 235 L 1440 623 L 1251 623 Z M 1251 235 "/>
</clipPath>
</defs>
<g id="surface1">
<rect x="0" y="0" width="1440" height="949" style="fill:rgb(0%,0%,0%);fill-opacity:1;stroke:none;"/>
<path style="fill-rule:nonzero;fill:rgb(0%,0%,0%);fill-opacity:1;stroke-width:3;stroke-linecap:butt;stroke-linejoin:miter;stroke:rgb(92.941176%,12.156863%,29.019608%);stroke-opacity:1;stroke-miterlimit:4;" d="M 438.736219 219.370219 C 438.736219 340.522563 340.521375 438.737406 219.369031 438.737406 C 98.216688 438.737406 0.00184375 340.522563 0.00184375 219.370219 C 0.00184375 98.213969 98.216688 -0.000875 219.369031 -0.000875 C 340.521375 -0.000875 438.736219 98.213969 438.736219 219.370219 Z M 438.736219 219.370219 " transform="matrix(1,0,0,1,1113.088,758.079)"/>
<path style="fill-rule:nonzero;fill:rgb(0%,0%,0%);fill-opacity:1;stroke-width:3;stroke-linecap:butt;stroke-linejoin:miter;stroke:rgb(92.941176%,12.156863%,29.019608%);stroke-opacity:1;stroke-miterlimit:4;" d="M 97.312299 48.654441 C 97.312299 75.530023 75.530095 97.312226 48.654513 97.312226 C 21.784456 97.312226 -0.000509985 75.527261 -0.000509985 48.657203 C 0.00225215 21.784383 21.784456 0.00217994 48.657275 -0.000582196 C 75.527333 -0.000582196 97.312299 21.784383 97.312299 48.654441 Z M 97.312299 48.654441 " transform="matrix(0.707107,-0.707107,0.707107,0.707107,745.18046,852.441457)"/>
<path style=" stroke:none;fill-rule:nonzero;fill:rgb(0%,0%,0%);fill-opacity:1;" d="M 1638.3125 420.785156 C 1638.3125 523.050781 1555.40625 605.953125 1453.140625 605.953125 C 1350.875 605.953125 1267.972656 523.050781 1267.972656 420.785156 C 1267.972656 318.515625 1350.875 235.613281 1453.140625 235.613281 C 1555.40625 235.613281 1638.3125 318.515625 1638.3125 420.785156 Z M 1638.3125 420.785156 "/>
<g clip-path="url(#clip1)" clip-rule="nonzero">
<path style="fill:none;stroke-width:3;stroke-linecap:butt;stroke-linejoin:miter;stroke:rgb(92.941176%,12.156863%,29.019608%);stroke-opacity:1;stroke-miterlimit:4;" d="M 370.3415 185.171156 C 370.3415 287.436781 287.43525 370.339125 185.169625 370.339125 C 82.904 370.339125 0.00165625 287.436781 0.00165625 185.171156 C 0.00165625 82.901625 82.904 -0.00071875 185.169625 -0.00071875 C 287.43525 -0.00071875 370.3415 82.901625 370.3415 185.171156 Z M 370.3415 185.171156 " transform="matrix(1,0,0,1,1267.971,235.614)"/>
</g>
<path style="fill:none;stroke-width:3;stroke-linecap:butt;stroke-linejoin:miter;stroke:rgb(92.941176%,12.156863%,29.019608%);stroke-opacity:1;stroke-miterlimit:4;" d="M 1020.400562 319.109375 C 1051.963062 287.546875 1051.963062 236.375 1020.400562 204.8125 C 988.838062 173.25 937.662281 173.25 906.099781 204.8125 C 874.537281 236.375 874.537281 287.546875 906.099781 319.109375 C 937.662281 350.671875 988.834156 350.671875 1020.400562 319.109375 Z M 1020.400562 319.109375 " transform="matrix(1,0,0,1,327.076,235)"/>
<path style="fill-rule:nonzero;fill:rgb(0%,0%,0%);fill-opacity:1;stroke-width:3;stroke-linecap:butt;stroke-linejoin:miter;stroke:rgb(92.941176%,12.156863%,29.019608%);stroke-opacity:1;stroke-miterlimit:4;" d="M 371.541187 332.953125 C 371.541187 326.324219 366.166187 320.953125 359.541187 320.953125 C 352.912281 320.953125 347.541187 326.324219 347.541187 332.953125 C 347.541187 339.582031 352.912281 344.953125 359.541187 344.953125 C 366.166187 344.953125 371.541187 339.582031 371.541187 332.953125 Z M 371.541187 332.953125 " transform="matrix(1,0,0,1,327.076,235)"/>
</g>
</svg>
