<svg xmlns="http://www.w3.org/2000/svg" xmlns:xlink="http://www.w3.org/1999/xlink" width="318.196" height="67.433" viewBox="0 0 318.196 67.433">
  <defs>
    <clipPath id="clip-path">
      <rect id="Rectangle_600" data-name="Rectangle 600" width="317.164" height="61.907" fill="none" stroke="#707070" stroke-width="1"/>
    </clipPath>
  </defs>
  <g id="Group_477" data-name="Group 477" transform="matrix(1, -0.017, 0.017, 1, 0, 5.535)">
    <g id="Group_1680" data-name="Group 1680" transform="translate(0 0)" clip-path="url(#clip-path)">
      <path id="Path_5655" data-name="Path 5655" d="M42.392,3.768A75.722,75.722,0,0,1,43.456,14.4a5.339,5.339,0,0,1-3.751,5.314c-2.5.94-6.94,1.439-13.318,1.439C14.193,21.149,9.5,18.713,9.5,12.395a30.678,30.678,0,0,1,.873-6.438H1.189A35.25,35.25,0,0,0,.125,14.523c0,6.187,2.065,10.752,6.191,13.566s10.815,4.253,20.071,4.253c18.006,0,26.386-5.19,26.386-16.695a97.278,97.278,0,0,0-.94-11.879Z" transform="translate(0.317 9.553)" fill="none" stroke="#707070" stroke-miterlimit="10" stroke-width="1"/>
      <path id="Path_5656" data-name="Path 5656" d="M10.953,12.823a4.658,4.658,0,1,0,0,9.316,4.658,4.658,0,1,0,0-9.316Z" transform="translate(15.875 32.512)" fill="none" stroke="#707070" stroke-miterlimit="10" stroke-width="1"/>
      <circle id="Ellipse_1" data-name="Ellipse 1" cx="3.939" cy="3.939" r="3.939" transform="translate(87.279 46.21)" fill="none" stroke="#707070" stroke-miterlimit="10" stroke-width="1"/>
      <circle id="Ellipse_2" data-name="Ellipse 2" cx="3.939" cy="3.939" r="3.939" transform="translate(96.658 46.21)" fill="none" stroke="#707070" stroke-miterlimit="10" stroke-width="1"/>
      <path id="Path_5657" data-name="Path 5657" d="M35.93,9.441a4.539,4.539,0,0,0,4.624-4.628,4.69,4.69,0,0,0-9.38,0A4.573,4.573,0,0,0,35.93,9.441Z" transform="translate(79.045 0.316)" fill="none" stroke="#707070" stroke-miterlimit="10" stroke-width="1"/>
      <path id="Path_5658" data-name="Path 5658" d="M70.589,4.217a92.037,92.037,0,0,1,.877,10.631c0,4.564-1.252,6.438-5.314,6.438-3.939,0-5.25-1.252-5.25-5.752V8.594H51.585v6.94c0,4.062-1.315,5.752-5.378,5.752h-1.87c-1.252-11.441-6.816-17.7-14.068-17.7-8.068,0-14.319,7.566-14.319,15.945,0,7.69,5,12.505,14.319,12.505h7.311c-1.188,4-4.5,5.314-11.063,5.314a43.527,43.527,0,0,1-9.443-1.124v9.942A44.779,44.779,0,0,0,26.766,47.3c5.378,0,9.443-1.439,12.194-4.25a19.371,19.371,0,0,0,5.225-11.01c5.225-.014,8.464-2.825,9.15-7.81.937,5,4.688,7.813,10.752,7.813h2.938c8.941,0,13.757-5.565,13.757-15.507a116.26,116.26,0,0,0-.813-12.318ZM28.955,21.286c-4.253,0-6.127-1.061-6.127-3.313,0-2.312,2.125-4.313,5.19-4.313,4.564,0,8.065,2.687,9.38,7.626Z" transform="translate(40.444 9.104)" fill="none" stroke="#707070" stroke-miterlimit="10" stroke-width="1"/>
      <path id="Path_5659" data-name="Path 5659" d="M68.836,9.647a3.827,3.827,0,0,0,3.935-3.875,3.937,3.937,0,1,0-7.874,0A3.83,3.83,0,0,0,68.836,9.647Z" transform="translate(164.547 4.487)" fill="none" stroke="#707070" stroke-miterlimit="10" stroke-width="1"/>
      <path id="Path_5660" data-name="Path 5660" d="M66.186,9.647a3.791,3.791,0,0,0,3.935-3.875,3.824,3.824,0,0,0-3.935-4,3.865,3.865,0,0,0-3.942,4A3.833,3.833,0,0,0,66.186,9.647Z" transform="translate(157.821 4.487)" fill="none" stroke="#707070" stroke-miterlimit="10" stroke-width="1"/>
      <path id="Path_5661" data-name="Path 5661" d="M76.994,12.664a4.658,4.658,0,1,0,0,9.316,4.54,4.54,0,0,0,4.628-4.628A4.517,4.517,0,0,0,76.994,12.664Z" transform="translate(183.333 32.109)" fill="none" stroke="#707070" stroke-miterlimit="10" stroke-width="1"/>
      <path id="Path_5662" data-name="Path 5662" d="M205.91,6.91c-6,0-9.942,3.062-13,9.5l-1.69,3.189c-1.75,3.815-3.125,5-6.375,5-5.063,0-6.749-.94-6.749-3.44v-.187a16.566,16.566,0,0,1,3.122-.311h2.065v-9.38h-1.5a27.858,27.858,0,0,1-4.879-.375,46.278,46.278,0,0,1-5.438-1.626l-9.882-2.938c-4.066-1.315-6.251-1.69-8.068-1.69-6.937,0-11.193,5.066-11.254,13.382h8.065a3.082,3.082,0,0,1,3.189-2.627,18.721,18.721,0,0,1,4.752.877l5.07,1.5c1.559.438,3.125.813,4.624,1.124-.813.315-1.754.689-2.687,1.128l-4.25,1.874c-4.006,1.814-9.069,2.691-15.136,2.691h-5.059c-3.942,0-5.254-1.252-5.254-5.752v-6.94h-9.313v6.94c0,4.062-1.319,5.749-5.378,5.752a5.1,5.1,0,0,1-3.5-1.252,17.292,17.292,0,0,1-2.938-5l-.562-1.191c-3.44-7.5-7.379-10.253-13.88-10.253-5,0-9.252,3.062-12.067,9l-2.128,4.437C84.249,23.541,83,24.605,80,24.605H76.5A68.835,68.835,0,0,1,66,23.979c5.812-3.065,8.627-6.689,8.627-12.007,0-7-5.629-9.691-16.818-9.691a70.53,70.53,0,0,0-14.382,1.69v9.942l3.751,5c1.439,1.814,2.814,3.567,4.126,5.066-4.688,2-8,4.25-9.938,6.689a14.084,14.084,0,0,0-2.814,8.881c0,9.751,8.128,16.129,20.944,16.129A42.771,42.771,0,0,0,76.252,52.43V41.3a43.01,43.01,0,0,1-15.945,3.125c-9,0-13.629-2.312-13.629-6.753,0-3.815,3.253-5.94,9.754-8.5a24.22,24.22,0,0,0,8.563,4.875A41.8,41.8,0,0,0,76.376,35.36h1.566c4.745,0,8.061-1.566,10.31-5.378C89.69,34.3,93.318,36.11,98.317,36.11c5.692,0,9.129-2.312,10.444-7.753,2.5,5,5.749,7,10.062,7h0c5.247,0,8.5-2.818,9.185-7.817.937,5,4.688,7.813,10.751,7.817h7.128c7.753,0,11.444-1.188,18.257-6l4.688-3.316,2.252-1.563c.562,6.816,4.624,10.879,11.688,10.882h.007c4.246,0,7.248-1.128,9.556-3.815,3.065,3.062,8,4.564,13.011,4.564,8.5,0,13.626-5.127,13.626-13.629C218.977,13.161,213.416,6.91,205.91,6.91ZM58.182,20.79a26.591,26.591,0,0,1-5.063-5.378L51.054,12.6a57.57,57.57,0,0,1,5.94-.375c6.191,0,10.129.562,10.129,2.751C67.123,16.912,64.433,18.287,58.182,20.79Zm40.45,4.564c-4.19,0-6.127-1.252-6.127-3.564,0-2.252,2.376-4.317,5.876-4.317,3.815,0,6.314,1.566,8.128,5.629Q104.912,25.357,98.632,25.355Zm107.844,0a17.77,17.77,0,0,1-9.38-2.563c1.81-3.815,4.624-5.317,9.129-5.317,3.564,0,5.94,1.817,5.94,4.381C212.164,24.291,210.411,25.355,206.475,25.355Z" transform="translate(97.742 5.785)" fill="none" stroke="#707070" stroke-miterlimit="10" stroke-width="1"/>
    </g>
  </g>
</svg>
