<svg width="130" height="31" viewBox="0 0 130 31" fill="none" xmlns="http://www.w3.org/2000/svg">
<path d="M30.669 15.621V30.955H23.898V15.621C23.898 13.35 22.9958 11.1719 21.39 9.56604C19.7841 7.96017 17.606 7.05802 15.335 7.05802C13.0639 7.05802 10.8859 7.96017 9.28003 9.56604C7.67416 11.1719 6.772 13.35 6.772 15.621V30.955H0V15.621C0.00509335 13.1057 0.624712 10.6297 1.80496 8.40845C2.98521 6.1872 4.69035 4.28797 6.772 2.87601C8.34511 1.82723 10.1017 1.08426 11.95 0.686009C14.1756 0.154143 16.4953 0.154143 18.721 0.686009C20.5688 1.08465 22.325 1.82759 23.898 2.87601C25.9794 4.28815 27.6843 6.18744 28.8643 8.40866C30.0444 10.6299 30.6639 13.1058 30.669 15.621Z" fill="black"/>
<path d="M40.2897 13.0312C40.8063 11.2968 41.8716 9.77675 43.3257 8.69937C44.7797 7.62199 46.5441 7.04541 48.3537 7.05621C50.1672 7.03077 51.9387 7.60172 53.396 8.68124C54.8533 9.76076 55.9157 11.2891 56.4198 13.0312H40.2897ZM63.6897 15.6202C63.7242 11.8688 62.395 8.23266 59.9494 5.38788C57.5038 2.54309 54.1082 0.683362 50.3941 0.154569C46.68 -0.374224 42.9003 0.463911 39.7579 2.51309C36.6155 4.56227 34.3243 7.68301 33.3104 11.2949C32.2965 14.9068 32.6289 18.7641 34.2459 22.1492C35.8628 25.5344 38.6542 28.2171 42.1009 29.6984C45.5476 31.1797 49.415 31.3587 52.9838 30.2023C56.5526 29.0458 59.5799 26.6325 61.5027 23.4112L55.7167 19.9792C54.9576 21.2559 53.8803 22.314 52.5902 23.0501C51.3001 23.7862 49.8411 24.1752 48.3558 24.1792C46.537 24.1692 44.77 23.5727 43.3172 22.4785C41.8645 21.3842 40.8034 19.8505 40.2917 18.1052H63.4917C63.6118 17.2807 63.6786 16.4493 63.6918 15.6162" fill="black"/>
<path d="M96.7091 15.6212C96.7089 18.654 95.8094 21.6188 94.1242 24.1404C92.4391 26.6621 90.0441 28.6275 87.2421 29.788C84.44 30.9486 81.3567 31.2522 78.3821 30.6605C75.4075 30.0687 72.6752 28.6082 70.5306 26.4636C68.386 24.319 66.9255 21.5867 66.3338 18.6121C65.742 15.6375 66.0456 12.5542 67.2062 9.75217C68.3667 6.9501 70.3321 4.5551 72.8538 2.87C75.3755 1.18489 78.3402 0.285354 81.3731 0.285156C83.3871 0.285025 85.3814 0.681611 87.2421 1.45227C89.1028 2.22293 90.7935 3.35257 92.2176 4.77667C93.6417 6.20078 94.7713 7.89146 95.542 9.75217C96.3126 11.6129 96.7092 13.6072 96.7091 15.6212Z" fill="#ED1F4A"/>
<path d="M114.394 24.1837C112.122 24.1837 109.944 23.2814 108.338 21.6754C106.732 20.0693 105.83 17.891 105.83 15.6197C105.83 13.3484 106.732 11.1701 108.338 9.56407C109.944 7.95801 112.122 7.05571 114.394 7.05571C116.665 7.05571 118.843 7.95801 120.449 9.56407C122.055 11.1701 122.958 13.3484 122.958 15.6197C122.958 17.891 122.055 20.0693 120.449 21.6754C118.843 23.2814 116.665 24.1837 114.394 24.1837ZM114.394 0.283703C111.349 0.301859 108.374 1.20107 105.83 2.87272C103.748 4.28489 102.043 6.18431 100.863 8.40574C99.6828 10.6272 99.0634 13.1033 99.0586 15.6187V30.9527H105.83V27.6527C108.153 29.8139 111.221 30.9959 114.394 30.9527C116.418 30.9691 118.425 30.5845 120.3 29.8212C122.175 29.0579 123.88 27.9309 125.317 26.5054C126.754 25.0798 127.895 23.3839 128.673 21.5153C129.452 19.6467 129.852 17.6424 129.852 15.6182C129.852 13.594 129.452 11.5898 128.673 9.72117C127.895 7.85258 126.754 6.15659 125.317 4.73103C123.88 3.30547 122.175 2.17854 120.3 1.41523C118.425 0.651931 116.418 0.267357 114.394 0.283703Z" fill="black"/>
</svg>
