<svg width="64" height="65" viewBox="0 0 64 65" fill="none" xmlns="http://www.w3.org/2000/svg">
<path d="M63.5 32.6426C63.5 50.0395 49.397 64.1426 32 64.1426C14.603 64.1426 0.5 50.0395 0.5 32.6426C0.5 15.2456 14.603 1.14258 32 1.14258C49.397 1.14258 63.5 15.2456 63.5 32.6426Z" fill="black" stroke="#ED1F4A"/>
<path d="M32 64.1426C49.397 64.1426 63.5 50.0395 63.5 32.6426C63.5 15.2456 49.397 1.14258 32 1.14258C14.603 1.14258 0.5 15.2456 0.5 32.6426C0.5 50.0395 14.603 64.1426 32 64.1426Z" stroke="#ED1F4A"/>
<path d="M28.2397 40.4338C28.0929 40.2949 28.0073 40.1034 28.0017 39.9015C27.9961 39.6995 28.0709 39.5036 28.2097 39.3568L34.5707 32.6428L28.2097 25.9288C28.0707 25.782 27.9957 25.586 28.0013 25.3839C28.0068 25.1818 28.0924 24.9902 28.2392 24.8513C28.386 24.7123 28.582 24.6373 28.784 24.6429C28.9861 24.6484 29.1777 24.734 29.3167 24.8808L36.1737 32.1188C36.3079 32.2602 36.3828 32.4478 36.3828 32.6428C36.3828 32.8378 36.3079 33.0254 36.1737 33.1668L29.3167 40.4048C29.1777 40.5514 28.9861 40.6368 28.7842 40.6423C28.5822 40.6477 28.3864 40.5727 28.2397 40.4338Z" fill="#ED1F4A"/>
</svg>
