<svg width="95" height="54" viewBox="0 0 95 54" fill="none" xmlns="http://www.w3.org/2000/svg">
<g clip-path="url(#clip0_228_5012)">
<path d="M93.7663 10.2724C93.7663 9.37633 93.7663 8.48029 93.7663 7.58425V6.59652H89.9615V7.82181L90.0994 7.69261C90.4506 8.03852 91.0485 8.34693 91.1071 8.73869C91.1973 9.73218 91.214 10.7309 91.1573 11.7269H87.1475V6.60069H83.3469V7.89267C83.9531 7.92185 84.5092 8.13023 84.551 8.80121C84.6138 9.77227 84.551 10.7475 84.551 11.7186H80.5204V6.61738H76.7574C76.6612 7.30504 76.4981 7.95101 77.464 8.09271C77.5754 8.14631 77.6718 8.22643 77.7447 8.32602C77.8177 8.42561 77.8648 8.54158 77.8821 8.66368C77.9281 9.67641 77.8821 10.6933 77.8821 11.731H77.2967V11.7102H58.8788C59.3596 10.3557 59.8404 8.9804 60.3463 7.60925C60.4709 7.26945 60.6441 6.94941 60.8606 6.65905C61.7387 5.49628 63.3359 5.70465 63.963 7.03829C63.6878 7.15359 63.4233 7.29306 63.1728 7.45505C62.902 7.66826 62.704 7.95975 62.6059 8.28955C62.5079 8.61934 62.5146 8.97131 62.6251 9.29716C62.7251 9.62696 62.9285 9.91615 63.2053 10.1224C63.4822 10.3286 63.8181 10.4411 64.1637 10.4433C64.5105 10.4741 64.8571 10.3825 65.143 10.1844C65.4288 9.98634 65.6357 9.6944 65.7275 9.35966C66.2041 7.81347 65.6104 6.50068 64.5484 5.46294C63.8438 4.78396 63.0148 4.24631 62.1066 3.87924C60.2763 3.14778 58.2414 3.10628 56.3826 3.76254C53.184 4.81278 52.0258 7.93017 53.6899 10.8475C53.8405 11.1226 54.0077 11.3851 54.2126 11.7227H50.228V11.7019H35.5061V0.199219H31.7222C31.7222 0.415936 31.6929 0.56179 31.6803 0.707657C31.6469 1.17443 31.6344 1.5412 32.2908 1.66206C32.5584 1.71207 32.8302 2.22052 32.9263 2.5706C32.9938 2.98392 33.0065 3.40429 32.964 3.82089V10.4891C32.964 11.0351 32.8511 11.5727 32.2239 11.6727C31.7347 11.7519 31.672 11.9811 31.6762 12.402C31.6762 15.1985 31.6762 17.995 31.6762 20.7956C31.6762 20.9999 31.6762 21.2124 31.7013 21.3833H94.9997V11.8394C93.921 11.5477 93.7747 11.3726 93.7663 10.2724Z" fill="#F4B512"/>
<path d="M28.8747 11.7567C28.1848 11.6401 27.9716 11.1983 27.9548 10.5732C27.9297 9.80631 27.9548 9.03112 27.8587 8.27261C27.4907 5.37611 25.6887 3.60069 22.7744 3.31729C20.9681 3.14225 19.2664 3.49652 17.8657 4.74264C17.4872 5.04906 17.2298 5.47934 17.1395 5.95701C17.0492 6.43468 17.1317 6.92879 17.3723 7.35155C17.5442 7.61113 17.7888 7.81469 18.0757 7.93694C18.3626 8.05919 18.6792 8.09475 18.9863 8.03922C19.2228 8.01034 19.4443 7.9084 19.6197 7.74771C19.7952 7.58702 19.9158 7.37563 19.9647 7.14317C20.0378 6.87125 20.012 6.58231 19.8918 6.32753C19.7717 6.07275 19.5649 5.86858 19.3082 5.7512C19.2831 5.7512 19.2831 5.67617 19.2413 5.52613C19.8801 5.30245 20.5305 5.11325 21.1897 4.95934C21.9709 4.77747 22.7917 4.88368 23.5003 5.25833C24.209 5.63297 24.7576 6.2507 25.0447 6.99732C25.6636 8.531 25.3625 10.1356 25.442 11.7734H18.0162C16.7284 11.7734 16.5737 11.6317 16.3689 10.3523C16.3689 10.3147 16.3187 10.2856 16.2894 10.2439H14.9473C15.0309 12.5819 14.9473 14.8992 15.2399 17.1663C15.3392 18.2848 15.8513 19.3267 16.677 20.0904C17.5027 20.8542 18.5833 21.2854 19.7096 21.3006C22.8413 21.4632 25.9813 21.3423 29.2301 21.3423C29.2301 18.2833 29.2301 15.1909 29.2301 12.1027C29.2175 11.9776 28.9918 11.7776 28.8747 11.7567Z" fill="#F4B512"/>
<path d="M2.02807 8.87714C0.920066 10.6317 0.547946 12.5822 0.501953 15.0411C0.560489 15.5162 0.619026 16.4122 0.802997 17.2874C1.48452 20.559 3.78834 22.2052 7.13744 21.9177C9.24893 21.7384 10.9507 20.8757 11.7367 18.8711C13.0872 15.4412 12.9242 12.0154 10.9716 8.8688C8.66356 5.08876 4.37788 5.14711 2.02807 8.87714ZM6.55626 12.2613C5.37718 12.2613 4.73328 11.6528 4.73746 10.5192C4.73746 9.2689 5.57369 8.23115 6.51027 8.21865C7.44685 8.20615 8.33326 9.28557 8.3249 10.5442C8.32071 11.6611 7.70608 12.2571 6.55626 12.2613Z" fill="#F4B512"/>
<path d="M4.05066 3.93023C3.54352 3.90695 3.06488 3.68975 2.71425 3.32379C2.36362 2.95782 2.16797 2.47123 2.16797 1.96518C2.16797 1.45914 2.36362 0.972575 2.71425 0.606609C3.06488 0.240643 3.54352 0.0234472 4.05066 0.000160944C4.30848 -0.00314335 4.5644 0.0444611 4.80366 0.140269C5.04292 0.236077 5.26076 0.37818 5.44463 0.558355C5.6285 0.73853 5.77475 0.953224 5.87494 1.19004C5.97513 1.42685 6.02726 1.68109 6.02835 1.93809C6.03167 2.19887 5.98294 2.4577 5.885 2.69953C5.78705 2.94136 5.64183 3.16138 5.45779 3.34676C5.27376 3.53213 5.05458 3.67917 4.81301 3.77934C4.57144 3.87951 4.3123 3.93081 4.05066 3.93023Z" fill="#F4B512"/>
<path d="M8.92318 3.93376C8.65976 3.93465 8.39892 3.88205 8.15655 3.77918C7.91418 3.67631 7.69537 3.52534 7.51346 3.33543C7.33154 3.14552 7.19033 2.92067 7.09844 2.6746C7.00654 2.42852 6.96589 2.16638 6.97895 1.90413C6.97987 1.64718 7.03272 1.39303 7.13434 1.15689C7.23596 0.920743 7.38426 0.707441 7.5704 0.529681C7.75654 0.351922 7.9767 0.213367 8.21775 0.122279C8.45879 0.0311905 8.71577 -0.0105591 8.97335 -0.000481033C9.49459 0.000615052 9.99422 0.207209 10.3632 0.574196C10.7321 0.941184 10.9405 1.43874 10.9427 1.95829C10.9405 2.22025 10.8865 2.47922 10.7838 2.72036C10.681 2.9615 10.5316 3.18007 10.344 3.36356C10.1564 3.54706 9.93438 3.69187 9.69057 3.78971C9.44677 3.88755 9.18599 3.93651 8.92318 3.93376Z" fill="#F4B512"/>
<path d="M4.02653 35.0461C3.93228 35.5593 3.87915 36.0791 3.86765 36.6006C3.87572 36.8831 3.98742 37.1527 4.1816 37.3586C4.37579 37.5644 4.63897 37.6922 4.9213 37.7176C5.15286 37.762 5.38794 37.7857 5.62374 37.7884H16.7372C16.8627 37.7884 16.9881 37.7884 17.1554 37.7592C17.1554 36.7465 17.2055 35.7504 17.1554 34.7627C17.1135 34.1626 16.6118 33.9292 15.9888 33.9292V32.608H19.7937V34.1584C19.7937 34.9502 19.7937 35.7379 19.7937 36.5298C19.7937 37.4216 20.0905 37.7217 20.9811 37.7801C21.6417 37.8176 22.3065 37.7801 22.9672 37.7801H36.7148C36.8653 37.7801 37.0117 37.7801 37.1329 37.7551C37.2413 37.2238 37.1449 36.6714 36.8628 36.208C36.5807 35.7445 36.1337 35.404 35.611 35.2545C34.9739 35.077 34.3157 34.9859 33.6542 34.9836C30.2047 34.9586 26.7553 34.9836 23.3058 34.9836H22.57V32.8623C24.0961 32.8164 24.832 31.7912 25.5344 30.6284C26.1765 29.4774 26.9526 28.4058 27.8466 27.436C29.519 25.7398 32.3957 25.8607 33.7378 27.5569C34.0897 28.0178 34.3414 28.5468 34.4767 29.1101C34.6121 29.6734 34.6281 30.2586 34.5239 30.8285C34.4751 31.2272 34.2787 31.5935 33.9733 31.8556C33.6678 32.1177 33.2752 32.2567 32.8723 32.2455C32.4822 32.25 32.1032 32.1157 31.8035 31.8667C31.5039 31.6176 31.3031 31.2702 31.2375 30.8868C31.1677 30.4829 31.247 30.0676 31.4607 29.7174C31.6743 29.3673 32.008 29.1061 32.3998 28.9822L32.6842 28.8738C32.5384 28.6113 32.3412 28.3807 32.1041 28.1958C31.867 28.011 31.595 27.8756 31.3042 27.7978C31.0135 27.72 30.7101 27.7014 30.412 27.7431C30.1139 27.7847 29.8272 27.8858 29.5692 28.0403C28.8752 28.4804 28.2696 29.0457 27.7838 29.7074C27.0521 30.6701 26.4542 31.7287 25.7685 32.7956C25.9692 32.7956 26.1866 32.8247 26.4124 32.8247C28.942 32.8247 31.4674 32.7956 33.997 32.8247C34.8713 32.8404 35.741 32.9551 36.5894 33.1665C38.4249 33.6333 39.42 34.9002 39.7169 36.7382C39.7712 37.0549 39.8005 37.3716 39.8465 37.7217H55.1871C53.661 36.4422 53.222 34.5627 52.1851 33.0456C51.8449 32.4712 51.3418 32.01 50.7391 31.72C50.1364 31.43 49.4612 31.3243 48.7983 31.4161C48.4589 31.4388 48.1313 31.5491 47.8476 31.7361C47.5639 31.9232 47.3339 32.1806 47.1802 32.483L47.636 32.6581C47.9891 32.793 48.286 33.0432 48.4781 33.3679C48.6702 33.6926 48.7463 34.0726 48.6938 34.446C48.6322 34.8178 48.4492 35.159 48.1733 35.4167C47.8974 35.6744 47.5439 35.8342 47.1677 35.8713C46.802 35.9123 46.4336 35.8231 46.1275 35.6195C45.8214 35.4158 45.5975 35.1109 45.4952 34.7585C45.0018 33.3874 45.7126 31.0702 46.9252 30.1075C47.6195 29.6013 48.4476 29.3094 49.3067 29.2679C50.1659 29.2264 51.0184 29.4372 51.7586 29.8741C52.7224 30.5227 53.5085 31.4008 54.0457 32.4288C54.6854 33.5374 55.2666 34.6794 55.9188 35.7629C56.5293 36.7965 57.2568 37.7217 58.6575 37.7592V47.4448H57.8213C40.7914 47.4448 23.7658 47.3906 6.73593 47.4782C2.27463 47.4782 0.330398 44.6525 0.0460793 41.4184C-0.183884 38.8803 0.330396 36.5215 1.97777 34.5085C2.4051 33.9422 2.96096 33.485 3.5998 33.1742C4.23863 32.8634 4.94225 32.708 5.653 32.7206C6.07453 32.6891 6.49281 32.8144 6.82713 33.0722C7.16146 33.33 7.38814 33.7021 7.46344 34.1167C7.52897 34.4766 7.47146 34.8479 7.30014 35.1713C7.12882 35.4947 6.85358 35.7515 6.5185 35.9005C5.71154 36.2505 4.91294 35.988 4.35267 35.1878C4.31504 35.142 4.26904 35.1003 4.22723 35.0586L4.02653 35.0461Z" fill="#F4B512"/>
<path d="M91.1414 37.7467C91.1414 36.7256 91.1707 35.7253 91.1163 34.7376C91.1163 34.5001 90.8027 34.1 90.6062 34.0833C89.77 34.0083 89.9163 33.4456 89.9247 32.9288C89.9247 32.8455 89.9247 32.758 89.9623 32.6204H93.7713V33.5915C93.7713 34.4875 93.7713 35.3836 93.7713 36.2796C93.7713 37.4049 93.8884 37.5299 95.0006 37.8467V47.4322H85.5178C85.3631 48.2407 85.2543 49.0201 85.062 49.7786C84.6941 51.2414 84.0418 52.5501 82.7122 53.3919C80.5422 54.7547 77.6446 53.7128 76.6412 51.1789C76.392 50.5643 76.2505 49.9116 76.223 49.2493C76.1771 46.7737 76.2021 44.2982 76.2021 41.8226C76.2021 41.7184 76.2272 41.6184 76.2398 41.485H77.377C77.7952 42.206 78.0335 42.9353 78.5101 43.4688C79.8021 44.9275 81.8174 44.5565 82.5366 42.752C82.7483 42.1949 82.8615 41.6055 82.8711 41.0099C82.9129 39.1136 82.8711 37.2132 82.892 35.3127C82.892 34.6001 82.7247 34.0624 81.8927 33.9249C81.784 33.9249 81.6376 33.7082 81.6209 33.5832C81.6018 33.2556 81.6018 32.9272 81.6209 32.5996H85.4718V34.8376C85.4718 35.6295 85.4718 36.4172 85.4718 37.209C85.4718 37.5591 85.6014 37.7341 85.9484 37.7383L91.1414 37.7467Z" fill="#F4B512"/>
<path d="M61.1576 40.1881C61.3846 40.2011 61.6121 40.2011 61.8391 40.1881C62.3241 40.1214 62.5123 40.3006 62.6544 40.8007C63.1102 42.4303 64.352 43.2305 65.9115 43.6472C68.1485 44.2432 70.3394 43.1346 71.0209 41.0466C71.0971 40.8294 71.0971 40.5929 71.0209 40.3756C70.9018 40.4673 70.7951 40.5737 70.7031 40.6924C69.0307 43.7222 64.4858 42.7762 63.1771 39.9589C61.8935 37.1957 62.6461 33.5074 64.9081 31.7945C65.9375 31.0455 67.1835 30.6505 68.4579 30.6692C70.2098 30.64 71.9617 30.6692 73.7512 30.6692C73.7512 30.9359 73.7847 31.1443 73.7847 31.3527C73.7847 35.4287 73.7847 39.506 73.7847 43.5847C73.8535 45.4848 73.551 47.3801 72.8941 49.1652C71.807 51.8366 69.6746 53.1369 66.8816 52.8535C63.8879 52.5535 61.8015 50.7697 61.3374 47.9441C61.2004 46.7782 61.1474 45.6041 61.1785 44.4307C61.1367 43.0513 61.1576 41.6676 61.1576 40.1881ZM71.1923 32.8239C70.2683 32.8239 69.453 32.7572 68.6502 32.8239C68.1951 32.8472 67.7596 33.0157 67.408 33.3047C67.0564 33.5936 66.8073 33.9876 66.6976 34.4284C66.5698 34.8269 66.525 35.2473 66.566 35.6637C66.607 36.08 66.7328 36.4837 66.9359 36.8498C67.2216 37.3117 67.6437 37.6742 68.1443 37.8876C69.1603 38.3043 70.0969 37.775 71.0042 37.3499C71.0542 37.3159 71.0961 37.2714 71.1272 37.2196C71.1582 37.1678 71.1776 37.1099 71.184 37.0499C71.2216 35.662 71.2216 34.2617 71.2216 32.8239H71.1923Z" fill="#F4B512"/>
<path d="M13.5223 26.4927C13.7853 26.4866 14.0468 26.5331 14.2914 26.6296C14.536 26.726 14.7586 26.8705 14.9462 27.0543C15.1338 27.2382 15.2824 27.4577 15.3832 27.6998C15.4841 27.9419 15.5352 28.2018 15.5334 28.464C15.5181 28.9727 15.3063 29.4559 14.9423 29.8128C14.5783 30.1697 14.0902 30.3728 13.5797 30.3798C13.0691 30.3868 12.5756 30.1971 12.2019 29.8503C11.8282 29.5035 11.6033 29.0263 11.5739 28.5182C11.5632 28.2564 11.6056 27.9951 11.6987 27.75C11.7918 27.5049 11.9335 27.2811 12.1155 27.092C12.2974 26.9028 12.5158 26.7523 12.7576 26.6493C12.9993 26.5463 13.2594 26.4931 13.5223 26.4927Z" fill="#F4B512"/>
<path d="M8.65462 30.4107C8.3969 30.4157 8.14077 30.3693 7.90126 30.2743C7.66175 30.1793 7.44369 30.0376 7.25986 29.8575C7.07604 29.6774 6.93016 29.4624 6.83078 29.2254C6.73139 28.9883 6.68051 28.7338 6.68112 28.4769C6.67093 28.209 6.71532 27.9419 6.8116 27.6916C6.90788 27.4413 7.05405 27.213 7.2413 27.0206C7.42854 26.8282 7.65297 26.6756 7.90103 26.572C8.14909 26.4684 8.41564 26.416 8.68457 26.418C8.9535 26.42 9.21924 26.4763 9.46574 26.5835C9.71224 26.6907 9.93439 26.8465 10.1188 27.0417C10.3032 27.2368 10.446 27.4672 10.5385 27.7189C10.6311 27.9706 10.6715 28.2384 10.6574 28.5061C10.6542 28.7631 10.5995 29.0168 10.4966 29.2525C10.3937 29.4881 10.2446 29.7009 10.058 29.8783C9.87143 30.0558 9.65119 30.1942 9.4102 30.2856C9.1692 30.3771 8.91232 30.4196 8.65462 30.4107Z" fill="#F4B512"/>
<path d="M93.7198 50.9168C93.7273 51.3102 93.6169 51.6968 93.4029 52.0275C93.1889 52.3581 92.8809 52.6177 92.5183 52.773C92.1556 52.9284 91.7547 52.9725 91.3668 52.8997C90.9788 52.8269 90.6215 52.6406 90.3403 52.3644C90.0591 52.0883 89.8668 51.7349 89.788 51.3493C89.7092 50.9638 89.7475 50.5636 89.8979 50.1998C90.0484 49.836 90.3041 49.5252 90.6326 49.307C90.9611 49.0887 91.3473 48.973 91.7421 48.9746C92.2612 48.9756 92.7593 49.1797 93.1291 49.5429C93.4989 49.906 93.711 50.3994 93.7198 50.9168Z" fill="#F4B512"/>
<path d="M51.0774 48.9746C51.4686 48.9738 51.8514 49.0885 52.1774 49.3041C52.5034 49.5198 52.758 49.8268 52.9093 50.1865C53.0605 50.5462 53.1015 50.9424 53.0272 51.3253C52.9529 51.7082 52.7665 52.0606 52.4916 52.3381C52.2167 52.6156 51.8656 52.8058 51.4824 52.8847C51.0992 52.9636 50.7012 52.9277 50.3385 52.7815C49.9757 52.6353 49.6645 52.3853 49.4441 52.0631C49.2236 51.7409 49.1038 51.3609 49.0997 50.9709C49.0975 50.7103 49.1469 50.4517 49.2452 50.2101C49.3435 49.9686 49.4887 49.7488 49.6725 49.5633C49.8562 49.3778 50.0749 49.2303 50.316 49.1293C50.5571 49.0283 50.8159 48.9757 51.0774 48.9746Z" fill="#F4B512"/>
</g>
<defs>
<clipPath id="clip0_228_5012">
<rect width="95" height="54" fill="white"/>
</clipPath>
</defs>
</svg>
