<svg width="24" height="24" viewBox="0 0 24 24" fill="none" xmlns="http://www.w3.org/2000/svg">
<path d="M23.9778 12.9478V20.2535C23.9778 22.3193 22.2972 24 20.2313 24H3.74654C1.6807 24 0 22.3193 0 20.2535V12.9478C0 10.8819 1.6807 9.20123 3.74654 9.20123H6.46278C6.98008 9.20123 7.39941 9.62056 7.39941 10.1379C7.39941 10.6552 6.98008 11.0745 6.46278 11.0745H3.74654C2.71362 11.0745 1.87327 11.9149 1.87327 12.9478V20.2535C1.87327 21.2864 2.71362 22.1267 3.74654 22.1267H20.2313C21.2642 22.1267 22.1046 21.2864 22.1046 20.2535V12.9478C22.1046 11.9149 21.2642 11.0745 20.2313 11.0745H17.5151C16.9978 11.0745 16.5784 10.6552 16.5784 10.1379C16.5784 9.62056 16.9978 9.20123 17.5151 9.20123H20.2313C22.2972 9.20123 23.9778 10.8819 23.9778 12.9478ZM7.4521 5.62188C10.7996 2.30526 10.6634 2.34113 11.0415 2.12299L11.0633 17.5151C11.064 18.0319 11.4832 18.4504 11.9999 18.4504H12.0013C12.5186 18.4497 12.9373 18.0298 12.9366 17.5125L12.9148 2.12322C13.2922 2.34104 13.152 2.30086 16.5258 5.6438C16.8916 6.00956 17.4846 6.0096 17.8504 5.6438C18.2162 5.278 18.2162 4.68497 17.8504 4.31921L14.6271 1.09606C13.174 -0.35703 10.7985 -0.373656 9.32874 1.09606L6.12751 4.29729C5.76171 4.6631 5.76171 5.25613 6.12751 5.62188C6.49331 5.98764 7.08634 5.98769 7.4521 5.62188Z" fill="#ED1F4A"/>
</svg>
