<svg id="Group_242" data-name="Group 242" xmlns="http://www.w3.org/2000/svg" width="112.346" height="113.346" viewBox="0 0 112.346 113.346">
  <g id="Group_175" data-name="Group 175" transform="translate(0 0)">
    <path id="Path_1251" data-name="Path 1251" d="M452.306,1007.069l1.46,1.4-11.238,5.719-1.483-1.417,5.225-11.47,1.447,1.384-3.319,7.061a13.953,13.953,0,0,1-.645,1.275,12.519,12.519,0,0,1-.649,1.092c.336-.25.744-.517,1.225-.809s.845-.5,1.092-.625Z" transform="translate(-353.823 -989.095)"/>
    <path id="Path_1252" data-name="Path 1252" d="M452.433,1029.59l2.27-2.684-2.272-3.943-3.444.642-1.025-1.776,12.578-2.109,1.056,1.834-8.132,9.828Zm3.467-3.968,2.251-2.576c.148-.183.387-.45.719-.809s.581-.617.742-.767a19.251,19.251,0,0,1-2.218.533l-3.224.617Z" transform="translate(-354.974 -992.16)"/>
    <path id="Path_1253" data-name="Path 1253" d="M457.47,1044.909l2.948-1.917-1.037-4.427-3.483-.383-.468-1.992,12.651,1.609.482,2.059-10.622,7.061Zm4.464-2.792,2.9-1.826c.193-.133.5-.317.921-.567s.733-.417.932-.517a17.492,17.492,0,0,1-2.279-.134l-3.264-.333Z" transform="translate(-356.216 -994.901)"/>
    <path id="Path_1254" data-name="Path 1254" d="M457.249,1082.877a5.964,5.964,0,0,1-3.585-3.193,6.574,6.574,0,0,1,.3-4.952l1.232-3.093,11.057,4.4-1.36,3.418a6.093,6.093,0,0,1-3.058,3.543A5.724,5.724,0,0,1,457.249,1082.877Zm.7-1.934q3.97,1.588,5.449-2.134l.623-1.567L456,1074.049l-.512,1.284Q453.893,1079.334,457.948,1080.943Z" transform="translate(-355.863 -1000.8)"/>
    <path id="Path_1255" data-name="Path 1255" d="M448.255,1086.39l9.429,7.269-1.187,1.534-9.429-7.261Z" transform="translate(-354.825 -1003.254)"/>
    <g id="Group_174" data-name="Group 174">
      <path id="Path_1248" data-name="Path 1248" d="M393.81,987.047l3.519-.326a6.679,6.679,0,0,1,3.6.386,2.5,2.5,0,0,1,1.3,2.151,2.742,2.742,0,0,1-.375,1.776,2.4,2.4,0,0,1-1.46,1.01l.007.081a3.037,3.037,0,0,1,1.918.763,2.793,2.793,0,0,1,.765,1.817,3.064,3.064,0,0,1-.887,2.608,4.79,4.79,0,0,1-3.013,1.183l-4.28.4Zm2.391,4.716,1.865-.173a3.234,3.234,0,0,0,1.74-.545,1.489,1.489,0,0,0,.438-1.365,1.316,1.316,0,0,0-.719-1.152,3.769,3.769,0,0,0-1.948-.195l-1.677.155Zm.146,1.572.348,3.753,2.059-.19a3.05,3.05,0,0,0,1.789-.632,1.733,1.733,0,0,0,.488-1.533,1.571,1.571,0,0,0-.759-1.312,3.377,3.377,0,0,0-1.963-.268Z" transform="translate(-345.963 -986.659)"/>
      <path id="Path_1249" data-name="Path 1249" d="M414.033,992.747l1.326.258a3.093,3.093,0,0,0,2.031-.117,1.833,1.833,0,0,0,.886-1.354,1.611,1.611,0,0,0-.37-1.548,3.612,3.612,0,0,0-1.865-.812l-1.263-.247Zm-.308,1.581-.911,4.666-1.91-.375,2.28-11.678,3.3.644a5.521,5.521,0,0,1,3.183,1.5,3.1,3.1,0,0,1,.587,2.769,3.256,3.256,0,0,1-2.875,2.665l2.291,5.817-2.173-.425-1.886-5.214Z" transform="translate(-348.807 -986.706)"/>
      <path id="Path_1250" data-name="Path 1250" d="M431.6,1006.269l.464-3.476-4.04-2.092-2.554,2.4-1.821-.95,9.45-8.561,1.88.974-1.542,12.656Zm.78-5.2.5-3.392q.041-.345.168-1.068t.212-1.045a18.475,18.475,0,0,1-1.578,1.649l-2.381,2.256Z" transform="translate(-350.927 -987.812)"/>
      <path id="Path_1256" data-name="Path 1256" d="M441.735,1101.024l-3.521,2.609-3.554-4.8a12.652,12.652,0,0,1,1.366-1.634,15.157,15.157,0,0,1,1.627-1.384,5.362,5.362,0,0,1,4.3-1.2,6.488,6.488,0,0,1,3.865,2.759,6.018,6.018,0,0,1,1.345,4.6,6.18,6.18,0,0,1-2.689,4.01,8.779,8.779,0,0,1-3.266,1.525l-.414-1.709a6.864,6.864,0,0,0,2.727-1.184,3.914,3.914,0,0,0,1.71-2.751,4.642,4.642,0,0,0-1.057-3.293,4.915,4.915,0,0,0-2.774-2.075,3.638,3.638,0,0,0-2.983.8,9.551,9.551,0,0,0-1.483,1.384l1.826,2.468,1.983-1.467Z" transform="translate(-352.76 -1004.609)"/>
      <path id="Path_1257" data-name="Path 1257" d="M427.569,1103.26l4.1,11.17-1.826.667-4.1-11.17Z" transform="translate(-351.276 -1006.061)"/>
      <path id="Path_1258" data-name="Path 1258" d="M414.246,1107.723l1.936-.183,1,10.178,3.484-.342.163,1.667-8.9.867-.163-1.659,3.484-.342Z" transform="translate(-348.949 -1006.773)"/>
      <path id="Path_1259" data-name="Path 1259" d="M394.372,1107.565l.659,3.451,4.495.709,1.665-3.084,2.027.325-6.263,11.1-2.091-.325-2.534-12.5Zm.9,5.185.6,3.376c.047.225.106.583.178,1.067s.11.833.13,1.058a18.854,18.854,0,0,1,.976-2.067l1.546-2.893Z" transform="translate(-345.717 -1006.724)"/>
      <path id="Path_1260" data-name="Path 1260" d="M382.791,1104.066l-5.5,10.553-1.726-.9,4.727-9.07-4.469-2.334.771-1.475Z" transform="translate(-342.927 -1005.659)"/>
      <path id="Path_1261" data-name="Path 1261" d="M345.47,1074a5.954,5.954,0,0,1,4.779-.417,6.583,6.583,0,0,1,3.4,3.618l1.4,3.018-10.791,5.018-1.552-3.334a6.085,6.085,0,0,1-.477-4.651A5.734,5.734,0,0,1,345.47,1074Zm.924,1.834q-3.875,1.8-2.189,5.427l.711,1.525,7.831-3.643-.583-1.25Q350.35,1073.993,346.395,1075.835Z" transform="translate(-337.335 -1001.069)"/>
      <path id="Path_1262" data-name="Path 1262" d="M348.179,1058.05l1.009,6.661-11.767,1.784-1.009-6.661,1.626-.242.718,4.727,3.2-.483-.672-4.435,1.61-.242.673,4.435,3.694-.558-.717-4.735Z" transform="translate(-336.412 -998.539)"/>
      <path id="Path_1263" data-name="Path 1263" d="M345.747,1043.247a3,3,0,0,1,2.359,1.392,5.023,5.023,0,0,1,.57,3.251,7.549,7.549,0,0,1-.967,3.218l-1.83-.192a9.039,9.039,0,0,0,.779-1.651,7.552,7.552,0,0,0,.4-1.676,2.708,2.708,0,0,0-.261-1.742,1.421,1.421,0,0,0-1.116-.675,1.5,1.5,0,0,0-1.178.383,7.767,7.767,0,0,0-1.31,1.959,5.546,5.546,0,0,1-1.736,2.134,3.18,3.18,0,0,1-2.093.45,2.83,2.83,0,0,1-2.222-1.3,4.364,4.364,0,0,1-.556-2.909,8.385,8.385,0,0,1,1.1-3.309l1.515.784a7.4,7.4,0,0,0-.958,2.743,2.183,2.183,0,0,0,.264,1.475,1.325,1.325,0,0,0,1.026.592,1.523,1.523,0,0,0,.814-.108,2.047,2.047,0,0,0,.682-.575,10.723,10.723,0,0,0,.936-1.525,8.579,8.579,0,0,1,1.211-1.8,3,3,0,0,1,1.154-.783A3.143,3.143,0,0,1,345.747,1043.247Z" transform="translate(-336.434 -995.964)"/>
      <path id="Path_1264" data-name="Path 1264" d="M350.692,1037.685l-11.3-3.743L340,1032.1l11.3,3.734Z" transform="translate(-336.908 -994.221)"/>
      <path id="Path_1265" data-name="Path 1265" d="M351.926,1019.394l2.349-3.7,5.042,3.209a12.274,12.274,0,0,1-.69,2.009,14.605,14.605,0,0,1-1.02,1.884,5.4,5.4,0,0,1-3.583,2.659,6.426,6.426,0,0,1-4.6-1.192,5.992,5.992,0,0,1-2.905-3.8,6.219,6.219,0,0,1,1.067-4.718,8.946,8.946,0,0,1,2.5-2.592l1,1.442a6.954,6.954,0,0,0-2.118,2.092,3.9,3.9,0,0,0-.606,3.184,4.624,4.624,0,0,0,2.168,2.684,4.911,4.911,0,0,0,3.335.95,3.64,3.64,0,0,0,2.5-1.817,9.477,9.477,0,0,0,.884-1.834l-2.59-1.642-1.324,2.076Z" transform="translate(-338.074 -991.067)"/>
      <path id="Path_1266" data-name="Path 1266" d="M372.319,1006.925l-1.842,1.517-10.546-3.61-.05.042.368.384c.7.734,1.316,1.417,1.847,2.067l3.931,4.776-1.364,1.125-7.563-9.195,1.823-1.5,10.5,3.576.038-.033c-.088-.083-.393-.425-.914-1-.525-.592-.927-1.05-1.207-1.392l-3.962-4.817,1.376-1.133Z" transform="translate(-339.854 -988.502)"/>
    </g>
  </g>
</svg>
