<svg xmlns="http://www.w3.org/2000/svg" width="16" height="4.525" viewBox="0 0 16 4.525">
  <g id="Group_354" data-name="Group 354" transform="translate(16) rotate(90)">
    <g id="Group_353" data-name="Group 353">
      <path id="Path_1460" data-name="Path 1460" d="M2.82,15.838a.33.33,0,0,1-.568,0,23.4,23.4,0,0,1-2.245-5.22c-.054-.27.243-.541.487-.379A6.183,6.183,0,0,1,1.9,11.618C1.792,7.832,1.278,3.91,2.17.178c.054-.27.514-.216.487.054C2.17,4.1,2.549,7.94,2.6,11.808c.46-.406.92-.811,1.352-1.217a.333.333,0,0,1,.568.243A13.1,13.1,0,0,1,2.82,15.838Zm-.3-3.219A.34.34,0,0,1,1.9,12.43v-.054c-.325-.325-.622-.649-.974-.974a24.792,24.792,0,0,0,1.6,3.57,11.991,11.991,0,0,0,1.163-3.3c-.3.27-.622.541-.92.838A.2.2,0,0,1,2.522,12.619Z" fill="#ed1f4a"/>
    </g>
  </g>
</svg>
