<svg width="25" height="16" viewBox="0 0 25 16" fill="none" xmlns="http://www.w3.org/2000/svg">
<path d="M9.87918 7.40924C10.3775 7.15859 10.7542 6.87941 11.0124 6.57772C11.4717 6.03438 11.6983 5.31393 11.6983 4.42087C11.6983 3.55183 11.4717 2.80887 11.0184 2.18598C10.2619 1.17134 8.98162 0.652017 7.17148 0.625H0V15.2637H6.68668C7.44015 15.2637 8.13809 15.1991 8.78349 15.067C9.4289 14.9334 9.98725 14.6888 10.46 14.3316C10.8803 14.0209 11.2315 13.6351 11.5107 13.1804C11.952 12.4929 12.1726 11.7139 12.1726 10.8464C12.1726 10.0059 11.979 9.28992 11.5948 8.70155C11.206 8.11318 10.6357 7.68241 9.87918 7.40924ZM2.95835 3.16759H6.18837C6.89831 3.16759 7.48368 3.24414 7.94297 3.39573C8.4743 3.61637 8.73997 4.06515 8.73997 4.74958C8.73997 5.36346 8.53734 5.79273 8.13659 6.03438C7.73284 6.27603 7.20901 6.39761 6.56661 6.39761H2.95835V3.16759ZM8.06604 12.4659C7.70882 12.6385 7.20601 12.7241 6.5621 12.7241H2.95835V8.82013H6.61164C7.24803 8.82463 7.74334 8.90868 8.09756 9.06628C8.72796 9.35146 9.04165 9.87378 9.04165 10.6378C9.04165 11.5383 8.71745 12.1447 8.06604 12.4659Z" fill="#ED1F4A"/>
<path d="M21.6954 1.30469H15.3359V3.12683H21.6954V1.30469Z" fill="#ED1F4A"/>
<path d="M23.9201 8.48931C23.788 7.64128 23.4968 6.89531 23.0435 6.25141C22.5467 5.52195 21.9163 4.98762 21.1493 4.6499C20.3853 4.31069 19.5253 4.14109 18.5677 4.14259C16.9602 4.14259 15.6544 4.6454 14.6443 5.64353C13.6371 6.64465 13.1328 8.08405 13.1328 9.96023C13.1328 11.961 13.6897 13.4064 14.8094 14.2934C15.9246 15.182 17.2124 15.6248 18.6743 15.6248C20.4439 15.6248 21.8202 15.0979 22.8034 14.0473C23.4323 13.3839 23.788 12.731 23.866 12.0901H20.9362C20.7666 12.4068 20.57 12.6544 20.3448 12.8345C19.9366 13.1647 19.4052 13.3298 18.7538 13.3298C18.1339 13.3298 17.6086 13.1932 17.1703 12.9216C16.4469 12.4863 16.0686 11.7238 16.0206 10.6386H24.0161C24.0281 9.70356 23.9981 8.98462 23.9201 8.48931ZM16.0927 8.76998C16.1977 8.06604 16.4529 7.50769 16.8581 7.09493C17.2634 6.68368 17.8368 6.47655 18.5707 6.47505C19.2476 6.47505 19.8135 6.66867 20.2743 7.05741C20.7291 7.44916 20.9857 8.01801 21.0383 8.76998H16.0927Z" fill="#ED1F4A"/>
</svg>
