<svg width="21" height="21" viewBox="0 0 21 21" fill="none" xmlns="http://www.w3.org/2000/svg">
<path d="M7.37695 1.35332C8.14535 2.2709 10.027 4.6643 11.5318 7.75836C13.4132 7.2291 15.3889 6.29055 17.3283 4.7352L17.7966 4.35969C15.962 2.08387 13.1529 0.625 10.0089 0.625C9.0059 0.625 8.03719 0.774063 7.12305 1.05012L7.37695 1.35332Z" fill="#ED1F4A"/>
<path d="M18.0625 5.64906C16.1944 7.14727 14.1773 8.21617 12.0332 8.84941C12.332 9.54191 12.5923 10.2295 12.8134 10.9098C14.7849 10.7421 17.0118 11.0182 19.4387 11.7323L19.9316 11.8773C19.9832 11.4669 20.0099 11.0488 20.0099 10.6246C20.0099 8.67496 19.4485 6.85422 18.4797 5.31445L18.0625 5.64906Z" fill="#ED1F4A"/>
<path d="M1.22582 7.28094C2.21953 7.65781 4.42176 8.34762 7.1984 8.34769C8.19332 8.34773 9.26207 8.25898 10.3754 8.03574C8.99414 5.26793 7.31832 3.10621 6.47965 2.10465L5.95859 1.48242C3.53379 2.56129 1.61492 4.57727 0.664062 7.06789L1.22582 7.28094Z" fill="#ED1F4A"/>
<path d="M3.85852 18.0076C4.29902 16.6962 5.40266 14.2491 7.84488 12.5942C8.95762 11.8402 10.2326 11.3287 11.6436 11.0668C11.4212 10.4045 11.168 9.76098 10.8948 9.14156C9.8441 9.37211 8.76504 9.50238 7.65969 9.53008C7.51168 9.53383 7.36465 9.53563 7.21941 9.53563C4.31375 9.53566 1.97543 8.81891 0.809961 8.37688L0.310586 8.1875C0.114492 8.96777 0.00976562 9.78395 0.00976562 10.6242C0.00976562 13.7603 1.46129 16.5633 3.72734 18.3982L3.85852 18.0076Z" fill="#ED1F4A"/>
<path d="M19.1072 12.8574C16.7694 12.1695 14.8039 11.9549 13.1523 12.064C13.301 12.6302 13.4214 13.1901 13.5129 13.742C13.8656 15.8694 13.7935 17.9032 13.2986 19.7871L13.2169 20.0979C16.416 19.0117 18.8922 16.347 19.7147 13.0361L19.1072 12.8574Z" fill="#ED1F4A"/>
<path d="M12.1658 19.4893C12.8156 17.0161 12.6143 14.5173 11.9876 12.2012C7.3832 12.9979 5.6025 16.4974 4.96945 18.382L4.72461 19.1109C6.25914 20.0701 8.07074 20.6255 10.0099 20.6255C10.6614 20.6255 11.2983 20.5621 11.9154 20.4426L12.1658 19.4893Z" fill="#ED1F4A"/>
</svg>
