<svg xmlns="http://www.w3.org/2000/svg" width="48" height="48" viewBox="0 0 48 48">
  <g id="Group_456" data-name="Group 456" transform="translate(-4 -4)">
    <g id="Layer_18" data-name="Layer 18" transform="translate(4 4)">
      <path id="Path_1526" data-name="Path 1526" d="M24.4,27.053a3.388,3.388,0,0,0-3.857,1.3.888.888,0,0,1-1.371,0,3.429,3.429,0,0,0-2.793-1.473A3.381,3.381,0,0,0,13,30.412c0,2.9,4.574,6.759,6.857,8.386,2.283-1.629,6.857-5.491,6.857-8.386A3.4,3.4,0,0,0,24.4,27.053Z" transform="translate(-5.285 -7.269)" fill="#ed1f4a"/>
      <path id="Path_1527" data-name="Path 1527" d="M28,4A24,24,0,0,0,11.175,45.114a.857.857,0,0,1-.008,1.23L5.274,52H28A24,24,0,1,0,28,4ZM19.049,37.284a.857.857,0,0,1-.955,0C17.266,36.728,10,31.728,10,27.143a5.131,5.131,0,0,1,3.486-4.984,5.057,5.057,0,0,1,5.085,1.136,5.057,5.057,0,0,1,5.085-1.136,5.131,5.131,0,0,1,3.486,4.984C27.143,31.728,19.877,36.728,19.049,37.284ZM34,36.571a.857.857,0,0,1-1.714,0V24.046l-1.443.482A.858.858,0,1,1,30.3,22.9l2.571-.857A.857.857,0,0,1,34,22.857Zm11.143-7.714H42.571v2.571a.857.857,0,0,1-1.714,0V28.857H38.286a.857.857,0,0,1,0-1.714h2.571V24.571a.857.857,0,0,1,1.714,0v2.571h2.571a.857.857,0,1,1,0,1.714Z" transform="translate(-4 -4)" fill="#ed1f4a"/>
    </g>
  </g>
</svg>
