<svg xmlns="http://www.w3.org/2000/svg" width="14.358" height="14.362" viewBox="0 0 14.358 14.362">
  <g id="Group_247" data-name="Group 247" transform="translate(0 0)">
    <path id="Path_1160" data-name="Path 1160" d="M849.67,155a5.26,5.26,0,0,0-.334-1.742,3.682,3.682,0,0,0-2.1-2.1,5.275,5.275,0,0,0-1.742-.334c-.769-.036-1.014-.045-2.963-.045s-2.194.008-2.96.042a5.221,5.221,0,0,0-1.742.333,3.679,3.679,0,0,0-2.1,2.1,5.208,5.208,0,0,0-.334,1.742c-.037.768-.045,1.013-.045,2.963s.007,2.193.041,2.96a5.26,5.26,0,0,0,.334,1.742,3.682,3.682,0,0,0,2.1,2.1,5.276,5.276,0,0,0,1.743.334c.766.034,1.01.042,2.959.042s2.194-.008,2.96-.042a5.248,5.248,0,0,0,1.742-.334,3.672,3.672,0,0,0,2.1-2.1,5.276,5.276,0,0,0,.334-1.742c.034-.767.042-1.01.042-2.96S849.7,155.771,849.67,155Zm-1.293,5.863a3.961,3.961,0,0,1-.247,1.333,2.386,2.386,0,0,1-1.363,1.363,3.983,3.983,0,0,1-1.333.247c-.757.034-.985.042-2.9.042s-2.146-.008-2.9-.042a3.962,3.962,0,0,1-1.333-.247,2.223,2.223,0,0,1-.825-.536,2.258,2.258,0,0,1-.536-.825,3.971,3.971,0,0,1-.247-1.332c-.033-.758-.041-.986-.041-2.9s.008-2.146.041-2.9a3.956,3.956,0,0,1,.247-1.332,2.182,2.182,0,0,1,.54-.825,2.222,2.222,0,0,1,.825-.536,3.935,3.935,0,0,1,1.332-.247c.757-.034.985-.042,2.9-.042s2.146.008,2.9.042a3.929,3.929,0,0,1,1.333.247,2.367,2.367,0,0,1,1.361,1.361,3.974,3.974,0,0,1,.247,1.332c.034.758.042.985.042,2.9S848.41,160.111,848.376,160.868Z" transform="translate(-835.348 -150.783)"/>
    <path id="Path_1161" data-name="Path 1161" d="M841.923,153.67a3.689,3.689,0,1,0,3.69,3.69A3.69,3.69,0,0,0,841.923,153.67Zm0,6.082a2.393,2.393,0,1,1,2.394-2.393A2.393,2.393,0,0,1,841.923,159.752Z" transform="translate(-834.743 -150.178)"/>
    <path id="Path_1162" data-name="Path 1162" d="M845.465,153.7a.861.861,0,1,1-.861-.86A.861.861,0,0,1,845.465,153.7Z" transform="translate(-833.588 -150.353)"/>
  </g>
</svg>
