<svg id="Group_247" data-name="Group 247" xmlns="http://www.w3.org/2000/svg" width="20" height="20.005" viewBox="0 0 20 20.005">
  <path id="Path_1160" data-name="Path 1160" d="M855.3,156.664a7.327,7.327,0,0,0-.465-2.426,5.13,5.13,0,0,0-2.927-2.927,7.348,7.348,0,0,0-2.427-.465c-1.072-.051-1.412-.062-4.127-.062s-3.057.012-4.123.059a7.272,7.272,0,0,0-2.427.463,5.124,5.124,0,0,0-2.927,2.929,7.258,7.258,0,0,0-.465,2.427c-.052,1.07-.062,1.41-.062,4.127s.01,3.055.057,4.123a7.326,7.326,0,0,0,.465,2.426,5.127,5.127,0,0,0,2.927,2.927,7.349,7.349,0,0,0,2.428.465c1.067.047,1.407.059,4.122.059s3.057-.012,4.123-.059a7.31,7.31,0,0,0,2.427-.465,5.115,5.115,0,0,0,2.927-2.927,7.347,7.347,0,0,0,.465-2.426c.047-1.068.059-1.407.059-4.123S855.345,157.731,855.3,156.664Zm-1.8,8.167a5.519,5.519,0,0,1-.344,1.857,3.324,3.324,0,0,1-1.9,1.9,5.549,5.549,0,0,1-1.857.344c-1.055.047-1.372.059-4.041.059s-2.989-.012-4.041-.059a5.518,5.518,0,0,1-1.857-.344,3.1,3.1,0,0,1-1.149-.746,3.145,3.145,0,0,1-.746-1.149,5.533,5.533,0,0,1-.344-1.855c-.046-1.057-.057-1.373-.057-4.043s.012-2.989.057-4.041a5.513,5.513,0,0,1,.344-1.855,3.04,3.04,0,0,1,.752-1.149,3.094,3.094,0,0,1,1.149-.747,5.481,5.481,0,0,1,1.855-.344c1.055-.047,1.372-.059,4.041-.059s2.989.012,4.041.059a5.472,5.472,0,0,1,1.857.344,3.3,3.3,0,0,1,1.9,1.9,5.536,5.536,0,0,1,.344,1.855c.047,1.057.059,1.372.059,4.041S853.543,163.776,853.5,164.831Z" transform="translate(-835.348 -150.783)" fill="#ed1f4a"/>
  <path id="Path_1161" data-name="Path 1161" d="M843.373,153.67a5.139,5.139,0,1,0,5.139,5.139A5.14,5.14,0,0,0,843.373,153.67Zm0,8.472a3.334,3.334,0,1,1,3.335-3.333A3.334,3.334,0,0,1,843.373,162.142Z" transform="translate(-833.371 -148.806)" fill="#ed1f4a"/>
  <path id="Path_1162" data-name="Path 1162" d="M846.142,154.036a1.2,1.2,0,1,1-1.2-1.2A1.2,1.2,0,0,1,846.142,154.036Z" transform="translate(-829.598 -149.377)" fill="#ed1f4a"/>
</svg>
