<svg width="21" height="21" viewBox="0 0 21 21" fill="none" xmlns="http://www.w3.org/2000/svg">
<path d="M15.0098 0.625H5.00977C2.26001 0.625 0.00976562 2.87427 0.00976562 5.625V15.625C0.00976562 18.3748 2.26001 20.625 5.00977 20.625H15.0098C17.7595 20.625 20.0098 18.3748 20.0098 15.625V5.625C20.0098 2.87427 17.7595 0.625 15.0098 0.625ZM10.0098 14.7915C7.70825 14.7915 5.84302 12.9255 5.84302 10.625C5.84302 8.32349 7.70825 6.45825 10.0098 6.45825C12.3103 6.45825 14.1765 8.32349 14.1765 10.625C14.1765 12.9255 12.3103 14.7915 10.0098 14.7915ZM15.4265 6.45825C14.7355 6.45825 14.1765 5.89849 14.1765 5.20825C14.1765 4.51802 14.7355 3.95825 15.4265 3.95825C16.1175 3.95825 16.6765 4.51802 16.6765 5.20825C16.6765 5.89849 16.1175 6.45825 15.4265 6.45825Z" fill="#ED1F4A"/>
</svg>
