<svg xmlns="http://www.w3.org/2000/svg" width="45.684" height="48" viewBox="0 0 45.684 48">
  <g id="Group_454" data-name="Group 454" transform="translate(-5.445 -4.096)">
    <g id="Layer_45" data-name="Layer 45" transform="translate(5.445 4.096)">
      <path id="Path_1515" data-name="Path 1515" d="M51.128,47.035,37.881,41.1l-9.243,4.14a.86.86,0,0,1-.7,0L18.694,41.1,5.445,47.035,28.286,57.271Z" transform="translate(-5.445 -9.271)" fill="#ed1f4a"/>
      <path id="Path_1516" data-name="Path 1516" d="M28.286,29.315a.86.86,0,0,1-.352-.075L18.694,25.1,5.445,31.035,19,37.112l9.29,4.159L51.128,31.035,37.881,25.1l-9.243,4.14a.86.86,0,0,1-.352.075Z" transform="translate(-5.445 -7.033)" fill="#ed1f4a"/>
      <path id="Path_1517" data-name="Path 1517" d="M5.445,14.335,19,20.412h0l9.284,4.161L51.129,14.335,28.286,4.1Z" transform="translate(-5.445 -4.096)" fill="#ed1f4a"/>
    </g>
  </g>
</svg>
