<svg width="64" height="64" viewBox="0 0 64 64" fill="none" xmlns="http://www.w3.org/2000/svg">
<path d="M32 64C49.6731 64 64 49.6731 64 32C64 14.3269 49.6731 0 32 0C14.3269 0 0 14.3269 0 32C0 49.6731 14.3269 64 32 64Z" fill="white"/>
<path d="M32 63.5C49.397 63.5 63.5 49.397 63.5 32C63.5 14.603 49.397 0.5 32 0.5C14.603 0.5 0.5 14.603 0.5 32C0.5 49.397 14.603 63.5 32 63.5Z" stroke="#F3F3F3"/>
<path d="M35.7617 39.7912C35.9085 39.6523 35.9941 39.4609 35.9997 39.2589C36.0053 39.0569 35.9305 38.861 35.7917 38.7142L29.4297 32.0002L35.7907 25.2862C35.9297 25.1394 36.0047 24.9434 35.9991 24.7413C35.9936 24.5393 35.908 24.3477 35.7612 24.2087C35.6144 24.0697 35.4184 23.9948 35.2164 24.0003C35.0143 24.0058 34.8227 24.0914 34.6837 24.2382L27.8267 31.4762C27.6924 31.6176 27.6176 31.8052 27.6176 32.0002C27.6176 32.1952 27.6924 32.3828 27.8267 32.5242L34.6837 39.7622C34.7526 39.8349 34.8351 39.8934 34.9265 39.9342C35.018 39.9751 35.1166 39.9975 35.2167 40.0002C35.3168 40.0029 35.4165 39.9858 35.51 39.9499C35.6035 39.9141 35.6891 39.8601 35.7617 39.7912Z" fill="#ED1F4A"/>
</svg>
