<svg width="21" height="21" viewBox="0 0 21 21" fill="none" xmlns="http://www.w3.org/2000/svg">
<path d="M20.009 20.6242V13.2992C20.009 9.69922 19.234 6.94922 15.034 6.94922C13.009 6.94922 11.659 8.04922 11.109 9.09922H11.059V7.27422H7.08398V20.6242H11.234V13.9992C11.234 12.2492 11.559 10.5742 13.709 10.5742C15.834 10.5742 15.859 12.5492 15.859 14.0992V20.5992H20.009V20.6242Z" fill="#ED1F4A"/>
<path d="M0.333984 7.27539H4.48398V20.6254H0.333984V7.27539Z" fill="#ED1F4A"/>
<path d="M2.40977 0.625C1.08477 0.625 0.00976562 1.7 0.00976562 3.025C0.00976562 4.35 1.08477 5.45 2.40977 5.45C3.73477 5.45 4.80977 4.35 4.80977 3.025C4.80977 1.7 3.73477 0.625 2.40977 0.625Z" fill="#ED1F4A"/>
</svg>
