<svg width="64" height="64" viewBox="0 0 64 64" fill="none" xmlns="http://www.w3.org/2000/svg">
<path d="M32 64C49.6731 64 64 49.6731 64 32C64 14.3269 49.6731 0 32 0C14.3269 0 0 14.3269 0 32C0 49.6731 14.3269 64 32 64Z" fill="white"/>
<path d="M32 63.5C49.397 63.5 63.5 49.397 63.5 32C63.5 14.603 49.397 0.5 32 0.5C14.603 0.5 0.5 14.603 0.5 32C0.5 49.397 14.603 63.5 32 63.5Z" stroke="#F3F3F3"/>
<path d="M28.2387 39.7912C28.0919 39.6523 28.0063 39.4609 28.0007 39.2589C27.9951 39.0569 28.0699 38.861 28.2087 38.7142L34.5697 32.0002L28.2087 25.2862C28.0697 25.1394 27.9948 24.9434 28.0003 24.7413C28.0058 24.5393 28.0914 24.3477 28.2382 24.2087C28.385 24.0697 28.581 23.9948 28.7831 24.0003C28.9851 24.0058 29.1767 24.0914 29.3157 24.2382L36.1727 31.4762C36.307 31.6176 36.3818 31.8052 36.3818 32.0002C36.3818 32.1952 36.307 32.3828 36.1727 32.5242L29.3157 39.7622C29.1767 39.9088 28.9852 39.9942 28.7832 39.9997C28.5812 40.0051 28.3854 39.9301 28.2387 39.7912Z" fill="#ED1F4A"/>
</svg>
