<svg id="Group_476" data-name="Group 476" xmlns="http://www.w3.org/2000/svg" width="56" height="56" viewBox="0 0 56 56">
  <g id="Group_473" data-name="Group 473">
    <g id="Group_472" data-name="Group 472">
      <path id="Path_1529" data-name="Path 1529" d="M28,0A28,28,0,1,0,56,28,28.031,28.031,0,0,0,28,0Zm0,51.662A23.662,23.662,0,1,1,51.662,28,23.69,23.69,0,0,1,28,51.662Z" fill="#ed1f4a"/>
    </g>
  </g>
  <g id="Group_475" data-name="Group 475" transform="translate(15.115 19.518)">
    <g id="Group_474" data-name="Group 474">
      <path id="Path_1530" data-name="Path 1530" d="M163.466,189.922l-10.844-10.844a2.168,2.168,0,0,0-3.058,0l-10.844,10.844a2.169,2.169,0,0,0,3.058,3.058l9.3-9.3,9.326,9.3a2.162,2.162,0,1,0,3.058-3.058Z" transform="translate(-138.197 -178.446)" fill="#ed1f4a"/>
    </g>
  </g>
</svg>
