<svg xmlns="http://www.w3.org/2000/svg" width="20" height="15.791" viewBox="0 0 20 15.791">
  <path id="Path_1444" data-name="Path 1444" d="M811.787,155.461c.014.174.014.346.014.517a11.415,11.415,0,0,1-11.663,11.338,11.817,11.817,0,0,1-6.3-1.791,8.741,8.741,0,0,0,.991.051,8.361,8.361,0,0,0,5.089-1.7,4.1,4.1,0,0,1-3.834-2.763,5.325,5.325,0,0,0,.774.062,4.474,4.474,0,0,0,1.08-.135,4.013,4.013,0,0,1-3.286-3.911v-.049a4.229,4.229,0,0,0,1.852.506,3.955,3.955,0,0,1-1.829-3.318,3.861,3.861,0,0,1,.559-2.009,11.781,11.781,0,0,0,8.452,4.169,4.418,4.418,0,0,1-.1-.914,4.042,4.042,0,0,1,4.1-3.985,4.148,4.148,0,0,1,3,1.258,8.238,8.238,0,0,0,2.6-.962,4.005,4.005,0,0,1-1.8,2.2,8.453,8.453,0,0,0,2.36-.617A8.653,8.653,0,0,1,811.787,155.461Z" transform="translate(-793.842 -151.526)" fill="#ed1f4a"/>
</svg>
