<svg xmlns="http://www.w3.org/2000/svg" width="15.726" height="12.416" viewBox="0 0 15.726 12.416">
  <path id="Path_1444" data-name="Path 1444" d="M807.952,154.62c.011.137.011.272.011.406a8.975,8.975,0,0,1-9.171,8.915,9.292,9.292,0,0,1-4.95-1.408,6.872,6.872,0,0,0,.779.04,6.574,6.574,0,0,0,4-1.339,3.221,3.221,0,0,1-3.015-2.173,4.186,4.186,0,0,0,.608.048,3.518,3.518,0,0,0,.849-.106,3.156,3.156,0,0,1-2.584-3.075v-.039a3.326,3.326,0,0,0,1.457.4,3.11,3.11,0,0,1-1.438-2.609,3.036,3.036,0,0,1,.439-1.58,9.264,9.264,0,0,0,6.646,3.278,3.472,3.472,0,0,1-.08-.719,3.178,3.178,0,0,1,3.224-3.133,3.262,3.262,0,0,1,2.355.99,6.477,6.477,0,0,0,2.046-.756,3.149,3.149,0,0,1-1.418,1.726,6.646,6.646,0,0,0,1.856-.485A6.8,6.8,0,0,1,807.952,154.62Z" transform="translate(-793.842 -151.526)"/>
</svg>
