<svg width="21" height="17" viewBox="0 0 21 17" fill="none" xmlns="http://www.w3.org/2000/svg">
<path d="M17.9548 4.4275C18.7681 3.85 19.4523 3.12917 20.0098 2.29917V2.29833C19.2656 2.62417 18.4739 2.84083 17.6473 2.94583C18.4973 2.43833 19.1464 1.64083 19.4514 0.68C18.6589 1.1525 17.7839 1.48583 16.8514 1.6725C16.0989 0.870833 15.0264 0.375 13.8564 0.375C11.5864 0.375 9.75893 2.2175 9.75893 4.47583C9.75893 4.80083 9.78643 5.11333 9.85393 5.41083C6.4456 5.24417 3.42893 3.61083 1.40227 1.12167C1.04893 1.73583 0.840599 2.43833 0.840599 3.19417C0.840599 4.61417 1.57143 5.8725 2.66227 6.60167C2.0031 6.58917 1.35727 6.3975 0.809766 6.09667V6.14167C0.809766 8.13417 2.2306 9.78917 4.09477 10.1708C3.7606 10.2625 3.39727 10.3058 3.01977 10.3058C2.75727 10.3058 2.49227 10.2908 2.24393 10.2358C2.77477 11.8592 4.2831 13.0533 6.07477 13.0925C4.67977 14.1833 2.9081 14.8408 0.990599 14.8408C0.654766 14.8408 0.332266 14.8258 0.00976562 14.785C1.82643 15.9558 3.9781 16.625 6.29977 16.625C13.5356 16.625 18.2514 10.5883 17.9548 4.4275Z" fill="#ED1F4A"/>
</svg>
