<svg xmlns="http://www.w3.org/2000/svg" width="41.036" height="48" viewBox="0 0 41.036 48">
  <g id="Group_455" data-name="Group 455" transform="translate(-0.274 0.002)">
    <path id="Path_1518" data-name="Path 1518" d="M170.995,376.551l-1.4,7.7h4.8l-1.4-7.7Zm0,0" transform="translate(-151.201 -336.258)" fill="#ed1f4a"/>
    <path id="Path_1519" data-name="Path 1519" d="M73.76,15.467a3.381,3.381,0,0,1,1.422-1.354h.008a3.276,3.276,0,0,1,.453-.189l.043-.015a3.508,3.508,0,0,1,.443-.109c.025-.005.048-.012.073-.015a3.47,3.47,0,0,1,.514-.045h.2a11.138,11.138,0,0,0,6.646-2.273l4.655-3.533A.856.856,0,0,1,89.21,7.9a30,30,0,0,1,2.595,2c.332.286.635.565.922.841.079.075.155.15.23.224q.342.335.636.659c.048.053.1.108.148.161.229.257.436.513.622.758.045.062.086.121.128.181.14.2.266.387.379.575.024.04.057.085.081.121a5.993,5.993,0,0,0-5.907-9.777.857.857,0,0,1-.846-.278,9.419,9.419,0,1,0-14.438,12.1Zm0,0" transform="translate(-63.658 0)" fill="#ed1f4a"/>
    <path id="Path_1520" data-name="Path 1520" d="M166.854,303.641c-.075.032-.156.053-.231.085q-.5.21-1.02.373c-.13.041-.257.086-.39.121a13.112,13.112,0,0,1-1.387.319l-.257.042a.813.813,0,0,1-.281,0l-.257-.042a13.2,13.2,0,0,1-1.386-.324c-.13-.037-.257-.079-.389-.12-.342-.11-.685-.234-1.016-.372-.078-.032-.159-.052-.236-.086v3.239l2.141,2.852h2.56l2.148-2.854Zm0,0" transform="translate(-142.638 -271.146)" fill="#ed1f4a"/>
    <path id="Path_1521" data-name="Path 1521" d="M80.743,165.717v-3.234c-.04-.038-.078-.078-.117-.116a1.509,1.509,0,0,0-.739,1.518,5.143,5.143,0,0,0,.895,2.825Q80.744,166.218,80.743,165.717Zm0,0" transform="translate(-71.081 -144.994)" fill="#ed1f4a"/>
    <path id="Path_1522" data-name="Path 1522" d="M16.653,348.536l1.518-8.347-2.344-3.125a.859.859,0,0,1-.171-.514H13.087A12.821,12.821,0,0,0,.274,348.536Zm0,0" transform="translate(0 -300.538)" fill="#ed1f4a"/>
    <path id="Path_1523" data-name="Path 1523" d="M109.576,111.126a11.243,11.243,0,0,0,3.74,1.345l.113.018.116-.019a10.887,10.887,0,0,0,3.732-1.339,11.157,11.157,0,0,0,5.464-8.164,9.9,9.9,0,0,0,.1-1.476V96.235a1.493,1.493,0,0,0-.05-.367,8.226,8.226,0,0,0-2.5-3.333q-.3-.279-.633-.566c-.761-.653-1.481-1.193-1.938-1.524l-4.109,3.116a12.9,12.9,0,0,1-7.72,2.654h-.193a1.708,1.708,0,0,0-.481.079c-.025.008-.049.015-.073.023a1.716,1.716,0,0,0-.428.218l-.01.008a1.748,1.748,0,0,0-.342.336c-.009.012-.02.023-.03.036a1.668,1.668,0,0,0-.221.421c-.01.028-.019.057-.028.086a1.635,1.635,0,0,0-.082.464v3.6a10.638,10.638,0,0,0,.237,2.251,11.138,11.138,0,0,0,5.328,7.383Zm0,0" transform="translate(-92.637 -80.769)" fill="#ed1f4a"/>
    <path id="Path_1524" data-name="Path 1524" d="M234.4,348.536a12.858,12.858,0,0,0-12.813-11.985h-2.568a.857.857,0,0,1-.171.514l-.129.171-2.215,2.954,1.518,8.347Zm0,0" transform="translate(-193.095 -300.538)" fill="#ed1f4a"/>
    <path id="Path_1525" data-name="Path 1525" d="M296.012,153.781v4.346a5.137,5.137,0,0,0,.856-2.766C296.868,154.516,296.6,154,296.012,153.781Zm0,0" transform="translate(-264.091 -137.327)" fill="#ed1f4a"/>
  </g>
</svg>
