<svg xmlns="http://www.w3.org/2000/svg" width="48" height="47.904" viewBox="0 0 48 47.904">
  <g id="Group_451" data-name="Group 451" transform="translate(0 -0.316)">
    <path id="Path_1488" data-name="Path 1488" d="M231.816,354.974c3.671-.521,6.888-4.352,8.913-10.01a43.569,43.569,0,0,0-8.913-1.049Zm0,0" transform="translate(-206.958 -306.754)" fill="#ed1f4a"/>
    <path id="Path_1489" data-name="Path 1489" d="M280.248,366.3c.217-.063.433-.126.647-.2.181-.058.359-.121.538-.183.211-.073.421-.148.631-.228.178-.068.355-.14.532-.212l.61-.257c.176-.077.351-.159.527-.24.2-.093.4-.189.591-.287q.258-.131.515-.268.288-.154.573-.316c.172-.1.337-.195.5-.3l.555-.343c.165-.1.329-.211.491-.321.181-.122.359-.249.537-.376.16-.114.318-.228.474-.343.172-.132.348-.269.52-.407.153-.122.305-.243.456-.368.171-.142.335-.29.5-.437.146-.129.292-.258.435-.39.164-.153.323-.311.483-.468.138-.137.278-.271.413-.411.025-.026.049-.054.075-.081a28.835,28.835,0,0,0-5.878-2.262,21.288,21.288,0,0,1-5.483,8.9c.069-.018.139-.033.209-.051C279.888,366.414,280.068,366.357,280.248,366.3Zm0,0" transform="translate(-249.526 -318.983)" fill="#ed1f4a"/>
    <path id="Path_1490" data-name="Path 1490" d="M347.577,231.684H337.291a44.482,44.482,0,0,1-1.732,11.868,29.832,29.832,0,0,1,6.51,2.591,23.967,23.967,0,0,0,5.507-14.459Zm0,0" transform="translate(-299.577 -206.558)" fill="#ed1f4a"/>
    <path id="Path_1491" data-name="Path 1491" d="M231.816,120.388h11.141a42.914,42.914,0,0,0-1.689-11.446,45.186,45.186,0,0,1-9.452,1.127Zm0,0" transform="translate(-206.958 -96.978)" fill="#ed1f4a"/>
    <path id="Path_1492" data-name="Path 1492" d="M231.816.316V11.376a43.6,43.6,0,0,0,8.913-1.049C238.7,4.669,235.487.838,231.816.316Zm0,0" transform="translate(-206.958)" fill="#ed1f4a"/>
    <path id="Path_1493" data-name="Path 1493" d="M231.816,242a45.216,45.216,0,0,1,9.452,1.128,42.916,42.916,0,0,0,1.689-11.446H231.816Zm0,0" transform="translate(-206.958 -206.558)" fill="#ed1f4a"/>
    <path id="Path_1494" data-name="Path 1494" d="M342.069,80.844a29.834,29.834,0,0,1-6.51,2.591A44.486,44.486,0,0,1,337.29,95.3h10.286a23.974,23.974,0,0,0-5.507-14.459Zm0,0" transform="translate(-299.576 -71.892)" fill="#ed1f4a"/>
    <path id="Path_1495" data-name="Path 1495" d="M290.825,13.436c-.025-.026-.049-.053-.074-.08-.136-.14-.276-.275-.415-.411-.159-.157-.318-.316-.482-.468-.142-.132-.289-.258-.435-.39-.166-.147-.333-.3-.5-.439-.148-.125-.3-.245-.451-.365-.172-.139-.348-.277-.524-.41-.155-.117-.312-.23-.47-.343-.179-.129-.359-.258-.542-.38-.161-.108-.323-.214-.486-.317-.186-.119-.371-.236-.56-.349-.165-.1-.333-.2-.5-.292q-.288-.165-.578-.32c-.172-.086-.343-.179-.515-.265-.2-.1-.4-.2-.6-.29q-.258-.123-.523-.239c-.2-.09-.408-.171-.613-.257-.177-.072-.353-.143-.531-.211-.208-.08-.419-.154-.63-.227-.178-.063-.357-.125-.538-.184-.214-.07-.429-.133-.649-.2-.178-.052-.358-.106-.538-.153-.069-.019-.139-.034-.209-.052a21.289,21.289,0,0,1,5.483,8.9,28.789,28.789,0,0,0,5.885-2.264Zm0,0" transform="translate(-249.491 -5.786)" fill="#ed1f4a"/>
    <path id="Path_1496" data-name="Path 1496" d="M0,95.3H10.286a44.5,44.5,0,0,1,1.732-11.868,29.8,29.8,0,0,1-6.51-2.591A23.968,23.968,0,0,0,0,95.3Zm0,0" transform="translate(0 -71.892)" fill="#ed1f4a"/>
    <path id="Path_1497" data-name="Path 1497" d="M141.608,354.973V343.914a43.6,43.6,0,0,0-8.913,1.049C134.719,350.621,137.938,354.452,141.608,354.973Zm0,0" transform="translate(-118.466 -306.753)" fill="#ed1f4a"/>
    <path id="Path_1498" data-name="Path 1498" d="M123.062,231.684H111.921a42.9,42.9,0,0,0,1.689,11.446A45.154,45.154,0,0,1,123.062,242Zm0,0" transform="translate(-99.92 -206.558)" fill="#ed1f4a"/>
    <path id="Path_1499" data-name="Path 1499" d="M141.608.316c-3.671.521-6.889,4.352-8.913,10.01a43.541,43.541,0,0,0,8.913,1.049Zm0,0" transform="translate(-118.466)" fill="#ed1f4a"/>
    <path id="Path_1500" data-name="Path 1500" d="M123.062,110.068a45.186,45.186,0,0,1-9.452-1.127,42.9,42.9,0,0,0-1.689,11.446h11.141Zm0,0" transform="translate(-99.92 -96.977)" fill="#ed1f4a"/>
    <path id="Path_1501" data-name="Path 1501" d="M73.549,6.789c-.07.018-.139.033-.209.051-.182.049-.361.1-.542.155-.215.063-.429.126-.645.195-.182.059-.361.122-.541.184-.21.074-.42.148-.628.227-.179.069-.356.14-.534.213l-.61.257c-.177.077-.351.159-.527.24-.2.093-.4.188-.591.287q-.258.131-.515.268-.288.155-.572.317-.258.144-.506.295c-.186.112-.371.228-.554.343-.165.106-.329.212-.491.322-.181.122-.359.249-.537.376-.16.114-.318.228-.475.343-.176.132-.343.269-.52.406-.152.122-.306.243-.455.369-.172.142-.335.288-.5.435-.147.131-.294.258-.438.393-.163.152-.322.31-.481.467-.138.137-.279.271-.415.412-.025.026-.049.054-.075.081a28.8,28.8,0,0,0,5.878,2.262,21.28,21.28,0,0,1,5.48-8.9Zm0,0" transform="translate(-55.522 -5.779)" fill="#ed1f4a"/>
    <path id="Path_1502" data-name="Path 1502" d="M62.712,360.315c.16.157.318.316.482.469.142.132.289.257.435.389.166.148.333.3.5.439.148.124.3.245.451.365.172.139.343.277.525.411.155.116.312.228.469.344.179.129.36.257.543.381.16.108.323.214.486.318.186.119.371.236.56.349q.248.15.5.293.288.165.578.32c.171.086.343.179.515.265.2.1.4.2.6.29q.258.121.523.238c.2.09.408.171.613.257.177.072.353.143.531.211.208.08.419.155.63.227.178.062.357.125.538.183.214.069.429.133.649.2.178.052.358.106.538.154.07.019.14.033.209.051a21.293,21.293,0,0,1-5.483-8.9,28.8,28.8,0,0,0-5.878,2.263c.025.026.049.053.074.08C62.433,360.044,62.572,360.179,62.712,360.315Zm0,0" transform="translate(-55.558 -318.938)" fill="#ed1f4a"/>
    <path id="Path_1503" data-name="Path 1503" d="M5.507,246.142a29.837,29.837,0,0,1,6.51-2.591,44.5,44.5,0,0,1-1.732-11.868H0a23.972,23.972,0,0,0,5.507,14.459Zm0,0" transform="translate(0 -206.557)" fill="#ed1f4a"/>
  </g>
</svg>
